<svg width="1477" height="401" viewBox="0 0 1477 401" fill="none" xmlns="http://www.w3.org/2000/svg">
<path d="M71.3825 45.2074C73.3298 43.6188 75.2259 41.6458 77.0708 39.2886C78.9156 36.9313 80.5554 34.4459 81.9903 31.8324C83.4252 29.2189 84.5782 26.5541 85.4494 23.8381C86.3205 21.1221 86.7561 18.5854 86.7561 16.2282C86.7561 14.3321 86.2949 12.7435 85.3725 11.4623C84.5013 10.13 82.8871 9.46377 80.5298 9.46377C78.5313 9.46377 76.3277 9.92497 73.9192 10.8474C71.5106 11.7698 69.0765 13.0509 66.6167 14.6908C64.1569 16.2794 61.7484 18.2011 59.3911 20.4559C57.0851 22.6594 55.0353 25.068 53.2417 27.6815C51.4481 30.295 49.9876 33.0366 48.8602 35.9064C47.784 38.7761 47.246 41.6715 47.246 44.5925C47.246 47.1035 47.5534 49.2814 48.1684 51.1262C48.7833 52.9198 49.6801 54.5341 50.8588 55.9689C52.0374 57.3526 53.4466 58.6337 55.0865 59.8123C56.7776 60.991 58.6993 62.2209 60.8516 63.502C54.3947 66.218 48.4502 69.5746 43.0182 73.5717C37.6375 77.5176 32.9998 81.7966 29.1051 86.4087C25.2105 91.0208 22.1614 95.7866 19.9578 100.706C17.8055 105.574 16.7294 110.263 16.7294 114.773C16.7294 116.362 17.1137 117.771 17.8824 119.001C18.6511 120.179 19.8553 120.769 21.4952 120.769C23.6475 120.769 26.056 120.179 28.7208 119.001C31.3855 117.822 34.1528 116.285 37.0225 114.389C39.8923 112.493 42.762 110.366 45.6317 108.009C48.5527 105.651 51.2687 103.294 53.7797 100.937C56.342 98.5282 58.6224 96.2478 60.621 94.0955C62.6196 91.9432 64.2082 90.124 65.3868 88.6378C68.4615 91.0976 71.1263 93.3012 73.3811 95.2485C75.6359 97.1446 77.7369 98.8869 79.6843 100.476C78.8131 101.654 77.3526 103.294 75.3028 105.395C73.3042 107.496 70.8957 109.751 68.0772 112.159C65.3099 114.568 62.2608 117.028 58.9299 119.539C55.6502 121.999 52.2936 124.228 48.8602 126.226C45.478 128.225 42.1214 129.865 38.7905 131.146C35.4595 132.427 32.4104 133.068 29.6432 133.068C27.2346 133.068 24.8261 132.658 22.4176 131.838C20.0603 131.018 17.8055 129.916 15.6532 128.532C13.5009 127.2 11.5023 125.637 9.65749 123.843C7.8639 122.101 6.30092 120.282 4.96854 118.386C3.58492 116.49 2.48314 114.594 1.66322 112.698C0.843289 110.801 0.407704 109.033 0.356459 107.394V105.549C0.356459 100.168 1.3045 95.0948 3.20058 90.3289C5.09665 85.5631 7.68454 81.1816 10.9642 77.1845C14.2952 73.1361 18.1642 69.4977 22.5713 66.2692C27.0297 62.9895 31.7955 60.1454 36.8688 57.7369C35.9464 56.8145 35.0239 55.8152 34.1015 54.739C33.2304 53.6629 32.4361 52.4586 31.7186 51.1262C31.0524 49.7426 30.5144 48.2053 30.1044 46.5142C29.6944 44.8231 29.4894 42.927 29.4894 40.8259C29.4894 37.2387 30.13 33.7284 31.4111 30.295C32.6923 26.8616 34.409 23.6331 36.5613 20.6096C38.7136 17.5862 41.2246 14.8189 44.0944 12.3079C47.0154 9.79686 50.0901 7.64456 53.3185 5.85097C56.547 4.00614 59.8523 2.57127 63.2345 1.54636C66.6167 0.521451 69.8964 0.00899752 73.0736 0.00899752C78.3519 0.00899752 82.0416 0.547074 84.1426 1.62323C85.885 2.54564 87.7554 3.87802 89.754 5.62036C91.8038 7.36271 93.6999 9.28441 95.4422 11.3855C97.1846 13.4353 98.6451 15.5363 99.8237 17.6886C101.002 19.7897 101.592 21.6858 101.592 23.3769C101.592 26.2979 101.105 29.347 100.131 32.5242C99.1575 35.7014 97.8764 38.8017 96.2878 41.8252C94.6992 44.7974 92.8799 47.6159 90.8301 50.2807C88.7803 52.8942 86.7049 55.0978 84.6038 56.8913L71.3825 45.2074ZM123.73 113.543C123.883 113.851 124.114 114.261 124.421 114.773C124.729 115.234 125.395 115.465 126.42 115.465C126.984 115.465 127.855 115.106 129.034 114.389C130.212 113.62 131.57 112.646 133.108 111.468C134.645 110.289 136.259 109.008 137.95 107.624C139.641 106.189 141.256 104.806 142.793 103.473C144.33 102.09 145.714 100.86 146.944 99.7837C148.174 98.6563 149.096 97.8364 149.711 97.3239C150.172 97.7851 150.71 98.3745 151.325 99.0919C151.991 99.8093 152.606 100.476 153.17 101.09C152.043 102.218 150.608 103.601 148.866 105.241C147.174 106.881 145.304 108.572 143.254 110.315C141.204 112.057 139.078 113.799 136.874 115.542C134.671 117.284 132.544 118.847 130.494 120.231C128.444 121.614 126.523 122.716 124.729 123.536C122.935 124.407 121.449 124.843 120.271 124.843C117.042 124.843 114.224 124.381 111.815 123.459C109.407 122.537 107.972 121.179 107.511 119.385C107.101 117.95 106.691 116.49 106.281 115.004C105.922 113.517 105.589 112.031 105.281 110.545L86.6793 125.842C86.3206 125.842 85.8081 125.688 85.1419 125.381C84.4757 125.073 83.8352 124.689 83.2202 124.228C82.554 123.818 81.9903 123.408 81.5291 122.998C81.0167 122.639 80.7604 122.383 80.7604 122.229C80.7604 122.075 80.7861 121.947 80.8373 121.845C80.8885 121.742 80.9654 121.64 81.0679 121.537L103.667 102.551C102.95 98.9125 102.335 95.6585 101.822 92.7887C101.361 89.919 100.951 87.8179 100.592 86.4855C100.234 87.0492 99.6187 87.946 98.7476 89.1759C97.9276 90.4058 96.9283 91.7894 95.7497 93.3268C94.5711 94.8642 93.2131 96.4784 91.6757 98.1695C90.1896 99.8093 88.601 101.321 86.9099 102.705L83.2202 98.9382C86.7049 95.4022 89.4978 92.0969 91.5988 89.0222C93.7511 85.8962 95.4422 83.2058 96.6721 80.951C97.9532 78.645 98.8757 76.8514 99.4394 75.5703C100.054 74.2379 100.592 73.5717 101.054 73.5717C102.078 73.5717 103.308 73.6742 104.743 73.8792C106.229 74.0842 107.715 74.366 109.202 74.7247C110.739 75.0834 112.174 75.519 113.506 76.0315C114.839 76.4927 115.889 77.0308 116.658 77.6457C116.812 78.1582 117.093 79.5418 117.503 81.7966C117.913 84.0001 118.4 86.6137 118.964 89.6371L136.797 74.6479C137.361 74.2379 137.822 74.0329 138.181 74.0329C138.488 74.0329 138.95 74.2123 139.564 74.571C140.231 74.9297 140.871 75.3653 141.486 75.8777C142.152 76.339 142.716 76.8002 143.177 77.2614C143.69 77.6713 143.92 77.9532 143.869 78.1069C143.869 78.2094 143.767 78.3631 143.562 78.5681C143.408 78.7219 142.69 79.3624 141.409 80.4898C140.128 81.566 138.411 83.0009 136.259 84.7944C134.158 86.5368 131.724 88.561 128.957 90.867C126.241 93.1218 123.397 95.4791 120.424 97.9389C120.783 99.835 121.116 101.68 121.424 103.473C121.782 105.267 122.09 106.881 122.346 108.316C122.654 109.7 122.91 110.878 123.115 111.852C123.371 112.774 123.576 113.338 123.73 113.543ZM166.007 91.6357C168.774 88.2023 171.311 85.3838 173.617 83.1802C175.923 80.9254 177.947 79.1575 179.69 77.8763C181.483 76.5439 182.995 75.6215 184.225 75.1091C185.455 74.5966 186.377 74.3404 186.992 74.3404C187.812 74.3404 188.709 74.6479 189.682 75.2628C190.656 75.8777 191.604 76.6208 192.527 77.492C193.5 78.3631 194.397 79.2599 195.217 80.1824C196.037 81.1048 196.729 81.8478 197.292 82.4115C197.856 82.9752 198.189 83.5902 198.292 84.2564C198.445 84.8713 198.522 85.5119 198.522 86.1781C198.522 88.5866 198.112 91.2257 197.292 94.0955C196.472 96.914 195.396 99.7325 194.064 102.551C192.732 105.318 191.22 107.957 189.529 110.468C187.838 112.979 186.121 115.106 184.379 116.848C185.865 116.233 187.376 115.49 188.914 114.619C190.502 113.697 192.065 112.723 193.603 111.698C195.14 110.673 196.652 109.623 198.138 108.547C199.624 107.419 201.033 106.317 202.366 105.241C205.492 102.782 208.515 100.142 211.436 97.3239L214.895 101.09C213.204 102.679 211.308 104.37 209.207 106.164C207.157 107.957 205.005 109.725 202.75 111.468C200.495 113.21 198.189 114.875 195.832 116.464C193.526 118.053 191.297 119.462 189.144 120.692C186.992 121.922 184.993 122.895 183.149 123.613C181.304 124.33 179.715 124.689 178.383 124.689C177.46 124.689 176.307 124.407 174.924 123.843C173.54 123.331 172.182 122.69 170.85 121.922C169.569 121.153 168.441 120.333 167.468 119.462C166.545 118.54 166.084 117.72 166.084 117.002C166.084 116.592 166.34 116.233 166.853 115.926C167.416 115.567 168.211 114.952 169.236 114.081C170.26 113.21 171.49 111.903 172.925 110.161C174.36 108.419 175.974 105.882 177.768 102.551C178.742 100.706 179.664 98.81 180.535 96.8627C181.406 94.8642 182.175 93.0193 182.841 91.3282C183.507 89.5859 184.02 88.0998 184.379 86.8699C184.789 85.5887 184.993 84.7176 184.993 84.2564C184.993 83.7952 184.917 83.4877 184.763 83.3339C184.66 83.129 184.558 82.9752 184.455 82.8727C184.25 82.8215 184.071 82.8215 183.917 82.8727C183.2 83.0777 181.739 84.2307 179.536 86.3318C177.384 88.3816 174.847 91.3538 171.926 95.2485C169.005 99.0919 165.905 103.806 162.625 109.392C159.345 114.927 156.245 121.256 153.324 128.379C150.915 135.245 148.507 142.189 146.098 149.21C143.69 156.23 141.332 163.225 139.026 170.195L119.502 174.807C122.474 166.351 125.574 157.947 128.803 149.594C131.98 141.292 135.157 132.965 138.335 124.612C141.461 116.31 144.561 107.983 147.636 99.63C150.659 91.277 153.554 82.8984 156.322 74.4941C156.475 73.9304 156.604 73.5461 156.706 73.3411C156.86 73.0849 157.142 72.9568 157.552 72.9568C158.372 73.213 159.371 73.6998 160.549 74.4173C161.728 75.0834 162.881 75.8777 164.009 76.8002C165.187 77.6713 166.238 78.5681 167.16 79.4905C168.083 80.413 168.723 81.2073 169.082 81.8735C169.184 82.0272 169.159 82.309 169.005 82.719C168.902 83.0777 168.774 83.4877 168.621 83.9489L166.007 91.6357ZM227.578 114.619C228.398 114.619 229.5 114.261 230.884 113.543C232.319 112.826 233.882 111.929 235.573 110.853C237.264 109.725 239.032 108.495 240.877 107.163C242.721 105.831 244.438 104.524 246.027 103.243C247.667 101.962 249.127 100.783 250.408 99.7068C251.689 98.6307 252.637 97.8364 253.252 97.3239C253.714 97.7851 254.252 98.3745 254.867 99.0919C255.533 99.8093 256.148 100.476 256.711 101.09C255.584 102.218 254.175 103.601 252.484 105.241C250.793 106.83 248.948 108.47 246.949 110.161C245.002 111.852 242.952 113.543 240.8 115.234C238.699 116.925 236.623 118.437 234.573 119.769C232.575 121.102 230.704 122.178 228.962 122.998C227.22 123.818 225.759 124.228 224.581 124.228C222.992 124.228 221.301 123.664 219.507 122.537C217.765 121.409 216.125 120.102 214.588 118.616C213.05 117.079 211.744 115.542 210.667 114.004C209.591 112.467 208.976 111.314 208.823 110.545C208.72 110.238 208.669 109.879 208.669 109.469C208.669 109.008 208.669 108.521 208.669 108.009C208.669 105.446 209.002 102.218 209.668 98.3232C210.283 94.3773 211.129 90.2264 212.205 85.8706C213.281 81.4635 214.511 77.1076 215.894 72.803C217.329 68.4472 218.815 64.6038 220.353 61.2728C223.479 54.4572 226.682 48.4102 229.961 43.132C233.292 37.8537 236.546 33.2672 239.724 29.3726C242.901 25.4267 245.95 22.1214 248.871 19.4566C251.792 16.7919 254.405 14.6395 256.711 12.9997C259.069 11.3598 261.042 10.1812 262.63 9.46377C264.27 8.74633 265.397 8.38761 266.012 8.38761C266.986 8.74633 267.96 9.28441 268.933 10.0018C269.958 10.668 270.906 11.3855 271.777 12.1541C272.649 12.9228 273.417 13.6915 274.084 14.4602C274.75 15.1776 275.237 15.7157 275.544 16.0744C275.954 16.4844 276.21 16.8943 276.313 17.3043C276.466 17.663 276.543 18.1499 276.543 18.7648C276.543 19.9947 276.236 21.6858 275.621 23.8381C275.006 25.9904 273.853 28.732 272.162 32.063C270.471 35.3427 268.113 39.2886 265.09 43.9006C262.118 48.5127 258.223 53.8935 253.406 60.0429C251.151 62.9127 248.768 65.8337 246.257 68.8059C244.105 71.3682 241.62 74.161 238.801 77.1845C235.983 80.208 233.087 83.1033 230.115 85.8706C228.629 91.5076 227.578 96.4784 226.963 100.783C226.4 105.088 226.118 108.444 226.118 110.853C226.118 112.441 226.246 113.466 226.502 113.927C226.758 114.389 227.117 114.619 227.578 114.619ZM239.877 58.275C239.006 60.2223 238.186 62.1184 237.417 63.9632C236.7 65.808 236.008 67.6272 235.342 69.4208C236.931 67.6272 238.366 65.9105 239.647 64.2707C240.979 62.6308 242.106 61.2216 243.029 60.0429C244.105 58.6593 245.079 57.3526 245.95 56.1227C249.537 51.1006 252.637 46.4885 255.251 42.2864C257.864 38.0843 260.017 34.3946 261.708 31.2174C263.399 27.989 264.629 25.3242 265.397 23.2231C266.217 21.0708 266.627 19.5335 266.627 18.6111C266.627 18.3548 266.602 18.1755 266.55 18.073C266.55 17.9192 266.422 17.8424 266.166 17.8424C265.705 17.8424 264.654 18.6111 263.015 20.1484C261.375 21.6345 259.35 24.0174 256.942 27.2971C254.585 30.5769 251.92 34.779 248.948 39.9035C246.027 44.9768 243.003 51.1006 239.877 58.275ZM262.476 112.159C262.476 113.697 263.04 114.466 264.168 114.466C265.346 114.466 266.909 113.543 268.857 111.698C270.804 109.802 272.828 107.419 274.929 104.55C274.827 103.986 274.75 103.499 274.698 103.089C274.698 102.628 274.698 102.218 274.698 101.859C274.698 100.834 274.801 99.63 275.006 98.2463C275.262 96.8115 275.852 95.1972 276.774 93.4037C277.389 92.02 278.132 90.662 279.003 89.3297C279.721 88.151 280.592 86.8955 281.617 85.5631C282.642 84.1795 283.769 82.8984 284.999 81.7197L285.46 81.2585C285.972 81.8735 286.639 82.719 287.459 83.7952C288.33 84.8201 289.175 85.8962 289.995 87.0236C290.866 88.0998 291.609 89.099 292.224 90.0215C292.891 90.9439 293.301 91.5844 293.454 91.9432C293.454 94.1467 293.044 96.3503 292.224 98.5538C291.456 100.757 290.405 102.935 289.073 105.088C292.148 104.883 294.992 104.114 297.605 102.782C300.27 101.398 303.037 99.1688 305.907 96.094C306.368 96.5552 306.957 97.1958 307.675 98.0157C308.444 98.7844 309.059 99.4506 309.52 100.014C307.367 102.269 305.241 104.14 303.14 105.626C301.09 107.112 299.014 108.29 296.913 109.162C294.864 110.033 292.762 110.673 290.61 111.083C288.458 111.442 286.254 111.621 284 111.621C282.257 113.466 280.387 115.157 278.388 116.695C276.39 118.232 274.34 119.564 272.239 120.692C270.189 121.819 268.139 122.69 266.089 123.305C264.039 123.92 262.092 124.228 260.247 124.228C258.71 124.228 257.121 123.767 255.481 122.844C253.842 121.922 252.356 120.794 251.023 119.462C249.691 118.078 248.589 116.618 247.718 115.08C246.847 113.543 246.411 112.185 246.411 111.006C246.411 107.112 246.949 103.243 248.025 99.3994C249.05 95.556 250.69 91.9688 252.945 88.6378C255.148 85.2556 257.967 82.2834 261.4 79.7211C264.885 77.1589 269.01 75.2116 273.776 73.8792C273.93 73.7767 274.186 73.6998 274.545 73.6486C274.955 73.5973 275.288 73.5717 275.544 73.5717C276.261 73.5717 277.005 73.8536 277.773 74.4173C278.593 74.9297 279.336 75.519 280.002 76.1852C280.72 76.8514 281.309 77.5176 281.77 78.1838C282.232 78.7987 282.462 79.2087 282.462 79.4137C282.36 79.6699 281.975 80.003 281.309 80.413C280.643 80.7717 279.746 81.4122 278.619 82.3347C277.491 83.2571 276.159 84.5895 274.622 86.3318C273.084 88.0229 271.393 90.2777 269.548 93.0962C266.781 97.2471 264.911 101.014 263.937 104.396C262.963 107.727 262.476 110.315 262.476 112.159ZM339.652 88.1766C338.986 90.1752 338.14 92.4556 337.115 95.0179C336.142 97.5802 335.194 100.091 334.271 102.551C333.349 105.011 332.554 107.24 331.888 109.238C331.273 111.237 330.966 112.672 330.966 113.543C330.966 113.851 331.12 114.004 331.427 114.004C331.991 114.004 332.836 113.671 333.964 113.005C335.091 112.339 336.372 111.468 337.807 110.391C339.293 109.315 340.831 108.137 342.419 106.856C344.008 105.574 345.52 104.319 346.954 103.089C348.441 101.808 349.773 100.655 350.952 99.63C352.13 98.6051 353.027 97.8364 353.642 97.3239C354.103 97.7851 354.641 98.3745 355.256 99.0919C355.922 99.8093 356.537 100.476 357.101 101.09C355.974 102.218 354.564 103.601 352.873 105.241C351.182 106.83 349.337 108.47 347.339 110.161C345.391 111.852 343.342 113.543 341.189 115.234C339.088 116.925 337.013 118.437 334.963 119.769C332.964 121.102 331.094 122.178 329.352 122.998C327.609 123.818 326.149 124.228 324.97 124.228C324.201 124.228 323.228 123.946 322.049 123.382C320.871 122.87 319.743 122.204 318.667 121.384C317.591 120.615 316.668 119.744 315.9 118.77C315.131 117.796 314.747 116.848 314.747 115.926C315.515 112.493 316.284 109.495 317.053 106.932C317.821 104.37 318.539 102.192 319.205 100.399C319.871 98.5538 320.461 97.0677 320.973 95.9403C321.485 94.8129 321.87 93.9674 322.126 93.4037C321.511 93.1474 320.922 92.8656 320.358 92.5581C319.794 92.2506 319.231 91.9432 318.667 91.6357C317.847 92.5069 316.925 93.4293 315.9 94.4029C314.926 95.3766 313.927 96.3503 312.902 97.3239C311.877 98.2976 310.852 99.2456 309.827 100.168C308.802 101.09 307.88 101.936 307.06 102.705L303.37 98.9382C304.703 97.657 306.317 96.1197 308.213 94.3261C310.058 92.4812 311.877 90.6364 313.671 88.7916C312.389 88.0229 311.236 87.3055 310.212 86.6393C309.187 85.9218 308.315 85.2813 307.598 84.7176C306.727 84.1026 305.958 83.5389 305.292 83.0265C304.984 82.8727 304.831 82.5396 304.831 82.0272C304.831 81.4635 305.061 80.6692 305.523 79.6443C305.933 78.5681 306.471 77.4407 307.137 76.2621C307.803 75.0322 308.52 73.8023 309.289 72.5724C310.058 71.2913 310.801 70.1383 311.518 69.1134C312.236 68.0885 312.851 67.2685 313.363 66.6536C313.927 65.9874 314.286 65.6543 314.439 65.6543C314.542 65.6543 314.875 65.7824 315.439 66.0386C316.053 66.2949 316.694 66.6023 317.36 66.9611C318.026 67.2685 318.641 67.6272 319.205 68.0372C319.769 68.4472 320.127 68.8059 320.281 69.1134C320.332 69.3696 320.384 69.9077 320.435 70.7276C320.486 71.5475 320.537 72.5468 320.589 73.7254C322.587 74.7504 324.637 75.929 326.738 77.2614C328.839 78.5425 330.761 79.7724 332.503 80.951C334.553 82.2834 336.5 83.6414 338.345 85.025C339.011 85.435 339.421 85.9475 339.575 86.5624C339.78 87.1773 339.806 87.7154 339.652 88.1766ZM406.912 101.09C402.197 105.703 397.739 109.572 393.536 112.698C389.386 115.824 385.414 118.335 381.622 120.231C377.83 122.127 374.191 123.485 370.707 124.305C367.273 125.125 363.917 125.534 360.637 125.534C359.253 125.534 357.716 125.022 356.025 123.997C354.334 122.972 352.771 121.717 351.336 120.231C349.85 118.796 348.62 117.284 347.646 115.695C346.673 114.107 346.186 112.749 346.186 111.621C346.186 107.419 346.775 103.576 347.954 100.091C349.081 96.5552 350.593 93.378 352.489 90.5595C354.385 87.741 356.537 85.2556 358.946 83.1033C361.406 80.951 363.942 79.1575 366.556 77.7226C369.221 76.2877 371.86 75.2116 374.473 74.4941C377.087 73.7767 379.495 73.418 381.699 73.418C383.287 73.418 384.85 73.8792 386.388 74.8016C387.976 75.724 389.411 76.8514 390.692 78.1838C391.973 79.5162 392.998 80.9254 393.767 82.4115C394.587 83.8464 394.997 85.1019 394.997 86.1781C394.997 87.9204 394.254 89.714 392.768 91.5588C391.333 93.3524 389.283 95.1972 386.618 97.0933C383.954 98.9894 380.751 100.937 377.01 102.935C373.269 104.883 369.144 106.856 364.634 108.854C364.48 110.084 364.403 111.288 364.403 112.467C364.403 114.056 364.737 115.132 365.403 115.695C366.12 116.259 367.427 116.541 369.323 116.541C372.705 116.541 375.882 115.977 378.855 114.85C381.878 113.722 384.774 112.262 387.541 110.468C390.308 108.675 392.973 106.625 395.535 104.319C398.097 102.013 400.634 99.6812 403.145 97.3239L406.912 101.09ZM379.854 81.8735C378.829 81.8735 377.702 82.4372 376.472 83.5646C375.242 84.6407 374.012 86.0756 372.782 87.8692C371.552 89.6627 370.374 91.7382 369.246 94.0955C368.119 96.4015 367.145 98.81 366.325 101.321C368.221 100.091 370.066 98.7844 371.86 97.4008C373.705 96.0172 375.344 94.5823 376.779 93.0962C378.214 91.5588 379.367 89.9958 380.238 88.4072C381.109 86.8186 381.545 85.23 381.545 83.6414C381.545 83.1802 381.391 82.7702 381.084 82.4115C380.828 82.0528 380.418 81.8735 379.854 81.8735ZM541.661 21.7627C541.661 24.1712 541.149 26.8616 540.124 29.8338C539.15 32.7548 537.843 35.7783 536.204 38.9042C534.615 41.9789 532.744 45.0793 530.592 48.2053C528.491 51.3312 526.339 54.2778 524.135 57.0451C525.468 58.3775 526.672 59.6073 527.748 60.7347C528.824 61.8109 529.593 62.5283 530.054 62.8871C529.337 64.1169 528.337 65.9361 527.056 68.3447C525.826 70.702 524.494 73.3923 523.059 76.4158C521.675 79.4393 520.241 82.6421 518.754 86.0243C517.32 89.4065 516.013 92.7375 514.834 96.0172C513.656 99.2456 512.682 102.32 511.913 105.241C511.196 108.111 510.837 110.52 510.837 112.467C510.837 115.029 511.17 117.412 511.836 119.616C512.554 121.819 513.579 123.741 514.911 125.381C516.295 127.072 517.986 128.455 519.984 129.532C522.034 130.659 524.391 131.376 527.056 131.684L523.29 136.68C522.675 136.68 521.727 136.527 520.446 136.219C519.164 135.963 517.73 135.476 516.141 134.759C514.552 134.092 512.887 133.17 511.145 131.991C509.402 130.813 507.762 129.301 506.225 127.456C504.688 125.663 503.33 123.485 502.151 120.922C500.972 118.411 500.152 115.439 499.691 112.006C497.231 114.568 494.567 117.105 491.697 119.616C488.878 122.127 485.957 124.381 482.934 126.38C479.911 128.379 476.836 129.993 473.71 131.223C470.635 132.453 467.637 133.068 464.716 133.068C463.025 133.068 461.283 132.606 459.489 131.684C457.747 130.762 456.005 129.532 454.262 127.994C452.571 126.508 450.931 124.766 449.343 122.767C447.805 120.769 446.422 118.719 445.192 116.618C444.013 114.466 443.039 112.339 442.271 110.238C441.451 108.137 440.964 106.189 440.81 104.396C440.81 103.73 440.836 102.935 440.887 102.013C440.887 101.039 440.913 100.04 440.964 99.015C441.015 97.9901 441.092 96.9908 441.195 96.0172C441.246 95.0435 441.323 94.1723 441.425 93.4037C442.194 88.8428 443.424 84.0258 445.115 78.9525C446.806 73.8792 448.856 68.729 451.264 63.502C453.724 58.275 456.491 53.0736 459.566 47.8978C462.641 42.722 465.972 37.7768 469.559 33.0623C473.146 28.3477 476.938 23.9918 480.935 19.9947C484.933 15.9463 489.032 12.4616 493.234 9.54063C497.488 6.5684 501.792 4.23674 506.148 2.54564C510.555 0.854546 514.937 0.00899752 519.293 0.00899752C520.779 0.00899752 522.367 0.393338 524.058 1.16202C525.749 1.9307 527.415 2.92998 529.055 4.15987C530.746 5.38976 532.335 6.79901 533.821 8.38761C535.358 9.92497 536.69 11.5136 537.818 13.1534C538.996 14.742 539.919 16.305 540.585 17.8424C541.302 19.3285 541.661 20.6353 541.661 21.7627ZM461.565 119.693C462.538 119.693 463.948 119.129 465.792 118.001C467.688 116.874 469.866 115.26 472.326 113.159C474.837 111.058 477.553 108.47 480.474 105.395C483.395 102.32 486.342 98.8613 489.314 95.0179C492.286 91.1232 495.207 86.8699 498.077 82.2578C500.998 77.5945 503.714 72.6237 506.225 67.3454L497.155 58.275C498.026 57.3526 499.384 56.1227 501.229 54.5853C503.073 53.0479 505.123 51.2287 507.378 49.1277C509.633 47.0266 511.939 44.6949 514.296 42.1327C516.705 39.5192 518.883 36.7263 520.83 33.7541C522.828 30.7306 524.468 27.579 525.749 24.2993C527.031 20.9683 527.671 17.5093 527.671 13.9221C527.671 11.9235 527.261 10.4118 526.441 9.3869C525.673 8.31075 524.981 7.77267 524.366 7.77267C521.342 7.77267 518.037 8.87444 514.45 11.078C510.914 13.2303 507.276 16.1769 503.535 19.9178C499.794 23.6075 496.027 27.9377 492.235 32.9085C488.494 37.8793 484.881 43.1832 481.397 48.8202C477.963 54.4572 474.735 60.2479 471.711 66.1924C468.739 72.1368 466.151 77.9532 463.948 83.6414C461.744 89.3297 460.002 94.736 458.721 99.8606C457.439 104.985 456.799 109.495 456.799 113.389C456.799 117.591 458.387 119.693 461.565 119.693ZM580.941 111.468C580.941 112.749 581.351 113.389 582.171 113.389C583.144 113.389 584.297 113.082 585.63 112.467C587.013 111.852 588.448 111.058 589.934 110.084C591.42 109.059 592.932 107.932 594.469 106.702C596.007 105.472 597.442 104.268 598.774 103.089C600.158 101.91 601.388 100.809 602.464 99.7837C603.54 98.7588 604.385 97.9389 605 97.3239C605.513 97.7851 606.128 98.3745 606.845 99.0919C607.563 99.8093 608.203 100.476 608.767 101.09C607.435 102.423 605.923 103.909 604.232 105.549C602.541 107.189 600.721 108.88 598.774 110.622C596.878 112.313 594.879 113.979 592.778 115.619C590.729 117.207 588.679 118.642 586.629 119.923C584.579 121.153 582.581 122.152 580.633 122.921C578.686 123.69 576.841 124.074 575.099 124.074C574.176 124.074 573.049 123.638 571.717 122.767C570.384 121.947 569.103 120.922 567.873 119.693C566.643 118.463 565.593 117.182 564.722 115.849C563.902 114.466 563.492 113.236 563.492 112.159C563.492 109.802 563.645 107.342 563.953 104.78C561.647 106.83 559.418 108.777 557.265 110.622C555.113 112.467 552.935 114.209 550.732 115.849C548.579 117.438 546.35 118.898 544.044 120.231C541.789 121.614 539.381 122.793 536.818 123.767C536.05 124.074 535.384 124.228 534.82 124.228C534.307 124.228 533.641 123.972 532.821 123.459C532.001 122.947 531.207 122.28 530.438 121.46C529.67 120.692 529.004 119.821 528.44 118.847C527.876 117.822 527.594 116.848 527.594 115.926C527.594 113.825 528.004 111.493 528.824 108.931C529.593 106.317 530.746 103.653 532.283 100.937C533.769 98.1695 535.614 95.4279 537.818 92.7118C539.97 89.9446 542.43 87.3567 545.197 84.9482C547.964 82.4884 551.013 80.2848 554.344 78.3375C557.675 76.339 561.237 74.7504 565.029 73.5717C565.746 73.6742 566.669 74.0073 567.796 74.571C568.924 75.0834 569.974 75.6215 570.948 76.1852C572.793 70.9069 574.894 65.6287 577.251 60.3504C579.66 55.0209 582.196 49.922 584.861 45.0537C587.577 40.1341 590.395 35.5477 593.316 31.2943C596.237 26.9897 599.158 23.1975 602.079 19.9178C605 16.5869 607.87 13.8965 610.689 11.8467C613.558 9.79686 616.274 8.54135 618.837 8.08014C619.964 8.08014 621.143 8.46448 622.373 9.23316C623.654 9.9506 624.858 10.8474 625.985 11.9235C627.113 12.9485 628.061 14.0246 628.829 15.152C629.649 16.2794 630.162 17.2274 630.367 17.9961C630.367 20.3534 629.778 23.095 628.599 26.221C627.42 29.347 625.78 32.7292 623.679 36.3676C621.63 39.9548 619.17 43.7213 616.3 47.6672C613.482 51.6131 610.432 55.6358 607.153 59.7355C603.873 63.7838 600.414 67.8322 596.776 71.8806C593.188 75.929 589.576 79.8493 585.937 83.6414C584.4 88.8684 583.17 93.8649 582.247 98.6307C581.376 103.345 580.941 107.624 580.941 111.468ZM619.528 17.3812C618.657 17.3812 617.581 18.0217 616.3 19.3029C615.07 20.584 613.661 22.3776 612.072 24.6836C610.535 26.9384 608.895 29.6288 607.153 32.7548C605.41 35.8807 603.642 39.2886 601.849 42.9782C600.055 46.6679 598.262 50.5882 596.468 54.739C594.674 58.8899 592.983 63.092 591.395 67.3454C595.238 62.6308 598.877 57.9163 602.31 53.2017C605.795 48.4359 608.844 43.9263 611.457 39.6729C614.071 35.4195 616.146 31.5249 617.684 27.989C619.221 24.453 619.99 21.532 619.99 19.226C619.99 18.9185 619.964 18.5342 619.913 18.073C619.913 17.6118 619.785 17.3812 619.528 17.3812ZM546.581 108.854C548.272 108.854 550.783 107.675 554.114 105.318C557.445 102.91 561.211 99.7068 565.413 95.7097C565.875 93.3524 566.438 90.9695 567.104 88.561C567.771 86.1012 568.514 83.6158 569.334 81.1048C566.361 83.1033 563.44 85.3838 560.571 87.946C557.752 90.5083 555.241 93.0449 553.038 95.556C550.834 98.067 549.04 100.424 547.657 102.628C546.324 104.78 545.658 106.42 545.658 107.547C545.658 108.419 545.966 108.854 546.581 108.854ZM640.975 112.006C638.822 112.006 636.952 111.647 635.363 110.93C633.672 112.723 631.904 114.414 630.059 116.003C628.215 117.54 626.395 118.898 624.602 120.077C622.808 121.307 621.04 122.28 619.298 122.998C617.556 123.715 615.916 124.125 614.378 124.228C613.61 124.228 612.482 123.895 610.996 123.228C609.561 122.562 608.152 121.691 606.768 120.615C605.333 119.59 604.104 118.411 603.079 117.079C602.003 115.695 601.464 114.312 601.464 112.928C601.464 109.546 601.798 106.164 602.464 102.782C603.13 99.3481 603.975 95.9659 605 92.635C605.974 89.304 607.076 86.05 608.306 82.8727C609.484 79.6443 610.612 76.5439 611.688 73.5717C614.301 74.7504 616.838 76.0571 619.298 77.492C621.809 78.9268 624.141 80.6179 626.293 82.5653C625.524 84.1026 624.755 85.8706 623.987 87.8692C623.218 89.8677 622.475 91.9432 621.758 94.0955C621.04 96.2478 620.374 98.4001 619.759 100.552C619.144 102.705 618.606 104.703 618.145 106.548C617.684 108.393 617.325 110.033 617.069 111.468C616.812 112.851 616.684 113.851 616.684 114.466C616.684 114.875 616.761 115.26 616.915 115.619C617.12 115.926 617.427 116.08 617.837 116.08C618.657 116.08 619.554 115.824 620.528 115.311C621.553 114.799 622.629 114.132 623.756 113.312C624.884 112.441 626.011 111.442 627.138 110.315C628.317 109.136 629.444 107.906 630.521 106.625C629.598 105.036 629.137 103.448 629.137 101.859C629.137 100.783 629.291 99.5019 629.598 98.0157C629.957 96.4784 630.418 94.8898 630.982 93.2499C631.545 91.6101 632.16 89.9702 632.827 88.3304C633.544 86.6393 634.261 85.0763 634.979 83.6414C635.748 82.2065 636.465 80.951 637.131 79.8749C637.849 78.7987 638.489 78.0044 639.053 77.492C640.232 77.9532 641.461 78.5938 642.743 79.4137C644.024 80.1824 645.202 81.0279 646.279 81.9503C647.355 82.8215 648.226 83.6927 648.892 84.5638C649.609 85.3838 650.019 86.0756 650.122 86.6393C650.122 87.7154 649.866 88.9709 649.353 90.4058C648.841 91.8407 648.123 93.4037 647.201 95.0948C646.33 96.7346 645.254 98.477 643.972 100.322C642.743 102.115 641.385 103.935 639.898 105.779C640.206 105.882 640.513 105.984 640.821 106.087C641.18 106.138 641.59 106.164 642.051 106.164C644.101 106.164 645.92 105.959 647.508 105.549C649.097 105.139 650.609 104.55 652.044 103.781C653.479 102.961 654.888 101.962 656.271 100.783C657.655 99.6043 659.167 98.2463 660.807 96.709C661.268 97.1702 661.857 97.7851 662.575 98.5538C663.343 99.2713 663.958 99.9118 664.419 100.476C662.267 102.628 660.217 104.447 658.27 105.933C656.374 107.368 654.478 108.547 652.582 109.469C650.737 110.34 648.866 110.981 646.97 111.391C645.074 111.801 643.076 112.006 640.975 112.006ZM713.307 101.09C708.593 105.703 704.135 109.572 699.932 112.698C695.782 115.824 691.81 118.335 688.018 120.231C684.226 122.127 680.587 123.485 677.103 124.305C673.669 125.125 670.313 125.534 667.033 125.534C665.649 125.534 664.112 125.022 662.421 123.997C660.73 122.972 659.167 121.717 657.732 120.231C656.246 118.796 655.016 117.284 654.042 115.695C653.069 114.107 652.582 112.749 652.582 111.621C652.582 107.419 653.171 103.576 654.35 100.091C655.477 96.5552 656.989 93.378 658.885 90.5595C660.781 87.741 662.933 85.2556 665.342 83.1033C667.802 80.951 670.338 79.1575 672.952 77.7226C675.617 76.2877 678.256 75.2116 680.869 74.4941C683.483 73.7767 685.891 73.418 688.095 73.418C689.683 73.418 691.246 73.8792 692.784 74.8016C694.372 75.724 695.807 76.8514 697.088 78.1838C698.369 79.5162 699.394 80.9254 700.163 82.4115C700.983 83.8464 701.393 85.1019 701.393 86.1781C701.393 87.9204 700.65 89.714 699.164 91.5588C697.729 93.3524 695.679 95.1972 693.014 97.0933C690.35 98.9894 687.147 100.937 683.406 102.935C679.665 104.883 675.54 106.856 671.03 108.854C670.876 110.084 670.799 111.288 670.799 112.467C670.799 114.056 671.133 115.132 671.799 115.695C672.516 116.259 673.823 116.541 675.719 116.541C679.101 116.541 682.278 115.977 685.251 114.85C688.274 113.722 691.169 112.262 693.937 110.468C696.704 108.675 699.369 106.625 701.931 104.319C704.493 102.013 707.03 99.6812 709.541 97.3239L713.307 101.09ZM686.25 81.8735C685.225 81.8735 684.098 82.4372 682.868 83.5646C681.638 84.6407 680.408 86.0756 679.178 87.8692C677.948 89.6627 676.77 91.7382 675.642 94.0955C674.515 96.4015 673.541 98.81 672.721 101.321C674.617 100.091 676.462 98.7844 678.256 97.4008C680.1 96.0172 681.74 94.5823 683.175 93.0962C684.61 91.5588 685.763 89.9958 686.634 88.4072C687.505 86.8186 687.941 85.23 687.941 83.6414C687.941 83.1802 687.787 82.7702 687.48 82.4115C687.224 82.0528 686.814 81.8735 686.25 81.8735ZM731.371 82.8727C730.757 84.5126 730.142 86.1781 729.527 87.8692C728.912 89.5603 728.297 91.3026 727.682 93.0962C730.91 89.4065 733.677 86.4087 735.984 84.1026C738.341 81.7453 740.314 79.9005 741.902 78.5681C743.542 77.2357 744.849 76.339 745.823 75.8777C746.848 75.3653 747.642 75.1091 748.206 75.1091C748.872 75.1091 749.871 75.4422 751.203 76.1084C752.536 76.7745 753.868 77.5945 755.201 78.5681C756.584 79.5418 757.763 80.5411 758.736 81.566C759.761 82.5909 760.274 83.4877 760.274 84.2564C760.274 84.4101 760.248 84.6151 760.197 84.8713C760.146 85.0763 760.069 85.3581 759.966 85.7169C759.556 86.998 759.018 88.5097 758.352 90.2521C757.737 91.9944 757.071 93.8136 756.354 95.7097C755.636 97.5545 754.919 99.425 754.201 101.321C753.484 103.166 752.843 104.908 752.28 106.548C751.716 108.188 751.255 109.623 750.896 110.853C750.537 112.083 750.358 112.979 750.358 113.543C750.358 113.851 750.512 114.004 750.819 114.004C751.383 114.004 752.228 113.671 753.356 113.005C754.483 112.339 755.764 111.468 757.199 110.391C758.685 109.315 760.223 108.137 761.811 106.856C763.4 105.574 764.912 104.319 766.346 103.089C767.833 101.808 769.165 100.655 770.344 99.63C771.522 98.6051 772.419 97.8364 773.034 97.3239C773.546 97.7851 774.11 98.3745 774.725 99.0919C775.34 99.8093 775.929 100.476 776.493 101.09C775.366 102.218 773.956 103.601 772.265 105.241C770.574 106.83 768.729 108.47 766.731 110.161C764.783 111.852 762.734 113.543 760.581 115.234C758.48 116.925 756.43 118.437 754.432 119.769C752.433 121.102 750.563 122.178 748.82 122.998C747.078 123.818 745.618 124.228 744.439 124.228C743.67 124.228 742.697 123.946 741.518 123.382C740.339 122.87 739.186 122.204 738.059 121.384C736.983 120.615 736.06 119.744 735.292 118.77C734.523 117.796 734.139 116.848 734.139 115.926C734.6 113.825 735.215 111.442 735.984 108.777C736.803 106.113 737.675 103.397 738.597 100.629C739.519 97.8108 740.467 95.0435 741.441 92.3275C742.466 89.5603 743.44 87.0236 744.362 84.7176L744.208 84.8713C743.235 86.05 741.825 87.6129 739.981 89.5603C738.187 91.4563 736.137 93.9161 733.831 96.9396C731.525 99.9118 729.091 103.525 726.529 107.778C723.966 111.98 721.455 116.977 718.996 122.767C718.688 123.485 718.406 124.048 718.15 124.458C717.894 124.868 717.407 125.073 716.69 125.073C715.818 125.073 714.819 124.817 713.692 124.305C712.616 123.843 711.514 123.203 710.386 122.383C709.208 121.614 708.055 120.743 706.927 119.769C705.749 118.796 704.698 117.822 703.776 116.848C703.776 116.541 703.93 115.67 704.237 114.235C704.493 112.8 704.878 111.006 705.39 108.854C705.903 106.651 706.543 104.165 707.312 101.398C708.08 98.5794 708.952 95.6328 709.925 92.5581C710.899 89.4834 711.975 86.3574 713.154 83.1802C714.281 79.9518 715.511 76.8514 716.843 73.8792C718.996 74.9041 721.379 76.1596 723.992 77.6457C726.657 79.1318 729.117 80.8742 731.371 82.8727ZM780.49 124.228C779.619 124.228 778.466 123.818 777.031 122.998C775.647 122.229 774.289 121.256 772.957 120.077C771.625 118.949 770.472 117.771 769.498 116.541C768.524 115.311 768.038 114.261 768.038 113.389C768.038 111.852 768.473 109.418 769.344 106.087C770.164 102.756 771.266 98.9638 772.65 94.7104C774.033 90.4058 775.596 85.8193 777.339 80.951C779.132 76.0827 780.926 71.3169 782.719 66.6536H771.881H771.804C771.753 66.6536 771.727 66.6023 771.727 66.4998C771.727 66.1924 771.855 65.7568 772.112 65.1931C772.317 64.5781 772.598 63.9632 772.957 63.3483C773.265 62.6821 773.649 62.0927 774.11 61.5803C774.52 61.0166 774.93 60.6579 775.34 60.5041L785.333 60.0429C786.768 56.5582 788.126 53.3554 789.407 50.4344C790.739 47.4622 791.918 44.9256 792.943 42.8245C793.199 42.2608 793.455 41.6715 793.711 41.0565C794.019 40.3903 794.429 39.7498 794.941 39.1348C795.505 38.4686 796.222 37.8024 797.094 37.1363C798.016 36.4188 799.246 35.7014 800.783 34.984C801.911 34.4203 803.269 33.8053 804.857 33.1391C806.497 32.4729 808.086 31.858 809.623 31.2943C811.212 30.7306 812.647 30.2694 813.928 29.9107C815.209 29.5007 816.131 29.2957 816.695 29.2957C817.207 29.2957 817.464 29.3982 817.464 29.6032V29.7569C817.464 29.8082 817.412 29.9363 817.31 30.1413C817.002 30.6537 816.439 31.7811 815.619 33.5235C814.799 35.2146 813.774 37.3669 812.544 39.9804C811.365 42.5426 810.033 45.4893 808.547 48.8202C807.112 52.0999 805.626 55.5846 804.089 59.2743L822.537 58.5824C823.049 58.5824 823.203 58.8899 822.998 59.5049C822.793 60.1198 822.409 60.8372 821.845 61.6572C821.281 62.4771 820.615 63.3226 819.847 64.1938C819.129 65.065 818.514 65.7312 818.002 66.1924C817.899 66.2949 817.694 66.3974 817.387 66.4998C817.079 66.6023 816.695 66.6536 816.234 66.6536H801.014C799.169 71.1119 797.401 75.6215 795.71 80.1824C794.019 84.7432 792.507 89.0734 791.175 93.1731C789.842 97.2727 788.766 101.039 787.946 104.473C787.178 107.906 786.793 110.725 786.793 112.928C786.793 113.236 786.947 113.389 787.255 113.389C787.818 113.389 788.664 113.082 789.791 112.467C790.919 111.801 792.174 110.955 793.558 109.93C794.993 108.905 796.504 107.778 798.093 106.548C799.682 105.318 801.193 104.114 802.628 102.935C804.063 101.705 805.344 100.604 806.472 99.63C807.65 98.6051 808.547 97.8364 809.162 97.3239C809.623 97.7851 810.161 98.3745 810.776 99.0919C811.442 99.8093 812.057 100.476 812.621 101.09C811.494 102.218 810.084 103.601 808.393 105.241C806.702 106.83 804.857 108.47 802.859 110.161C800.911 111.852 798.862 113.543 796.709 115.234C794.608 116.925 792.533 118.437 790.483 119.769C788.484 121.102 786.614 122.178 784.872 122.998C783.129 123.818 781.669 124.228 780.49 124.228ZM849.21 113.236C849.21 113.543 849.364 113.697 849.671 113.697C850.235 113.697 851.081 113.364 852.208 112.698C853.387 112.031 854.719 111.186 856.205 110.161C857.691 109.136 859.254 107.983 860.894 106.702C862.534 105.421 864.097 104.191 865.583 103.012C867.069 101.782 868.402 100.655 869.58 99.63C870.81 98.6051 871.733 97.8364 872.347 97.3239C872.809 97.7851 873.347 98.3745 873.962 99.0919C874.628 99.8093 875.243 100.476 875.807 101.09C874.679 102.218 873.244 103.576 871.502 105.164C869.811 106.753 867.94 108.419 865.891 110.161C863.892 111.852 861.791 113.543 859.587 115.234C857.435 116.874 855.334 118.36 853.284 119.693C851.234 120.974 849.313 122.024 847.519 122.844C845.726 123.664 844.239 124.074 843.061 124.074C842.19 124.074 841.216 123.792 840.14 123.228C839.064 122.716 838.039 122.024 837.065 121.153C836.143 120.333 835.348 119.411 834.682 118.386C834.067 117.361 833.76 116.387 833.76 115.465C833.76 114.645 834.067 113.082 834.682 110.776C835.297 108.47 836.04 105.779 836.911 102.705C834.605 105.831 832.35 108.598 830.147 111.006C827.943 113.364 825.919 115.388 824.074 117.079C822.23 118.77 820.615 120.128 819.232 121.153C817.848 122.229 816.823 122.998 816.157 123.459C815.747 123.715 815.26 123.895 814.696 123.997C814.133 124.151 813.62 124.228 813.159 124.228C812.185 124.228 811.109 123.92 809.931 123.305C808.752 122.742 807.676 122.024 806.702 121.153C805.677 120.282 804.832 119.308 804.166 118.232C803.448 117.156 803.089 116.131 803.089 115.157C803.089 114.03 803.474 112.159 804.242 109.546C804.96 106.932 805.959 103.806 807.24 100.168C808.47 96.5296 809.931 92.4556 811.622 87.946C813.313 83.4364 815.132 78.6962 817.079 73.7254C817.182 73.4692 817.259 73.3667 817.31 73.418C817.412 73.418 817.566 73.418 817.771 73.418C818.745 73.5717 820.077 73.9817 821.768 74.6479C823.459 75.2628 825.099 75.9546 826.688 76.7233C828.328 77.492 829.737 78.235 830.916 78.9525C832.094 79.6187 832.684 80.0799 832.684 80.3361C832.53 80.6948 832.12 81.5404 831.454 82.8727C830.839 84.2051 830.096 85.8193 829.225 87.7154C828.405 89.5603 827.508 91.5844 826.534 93.788C825.612 95.9403 824.741 98.0157 823.921 100.014C823.152 102.013 822.511 103.832 821.999 105.472C821.486 107.061 821.23 108.239 821.23 109.008C821.23 109.213 821.333 109.315 821.538 109.315C821.948 109.315 822.844 108.777 824.228 107.701C825.612 106.574 827.303 104.831 829.301 102.474C831.351 100.117 833.657 97.0933 836.219 93.4037C838.782 89.6627 841.447 85.1788 844.214 79.9518L846.366 73.8792C846.52 73.4692 846.853 73.2642 847.365 73.2642C847.724 73.2642 848.493 73.623 849.671 74.3404C850.901 75.0066 852.182 75.8009 853.515 76.7233C854.898 77.5945 856.128 78.4913 857.204 79.4137C858.281 80.2848 858.87 80.8998 858.972 81.2585C858.972 81.4122 858.947 81.6941 858.896 82.1041C858.844 82.4628 858.767 82.7702 858.665 83.0265C858.153 84.4101 857.563 86.05 856.897 87.946C856.231 89.7909 855.539 91.7382 854.822 93.788C854.155 95.7866 853.489 97.8108 852.823 99.8606C852.157 101.91 851.542 103.832 850.978 105.626C850.466 107.368 850.03 108.931 849.671 110.315C849.364 111.647 849.21 112.621 849.21 113.236ZM907.092 88.1766C906.426 90.1752 905.58 92.4556 904.555 95.0179C903.581 97.5802 902.633 100.091 901.711 102.551C900.789 105.011 899.994 107.24 899.328 109.238C898.713 111.237 898.406 112.672 898.406 113.543C898.406 113.851 898.559 114.004 898.867 114.004C899.431 114.004 900.276 113.671 901.404 113.005C902.531 112.339 903.812 111.468 905.247 110.391C906.733 109.315 908.27 108.137 909.859 106.856C911.448 105.574 912.959 104.319 914.394 103.089C915.88 101.808 917.213 100.655 918.391 99.63C919.57 98.6051 920.467 97.8364 921.082 97.3239C921.543 97.7851 922.081 98.3745 922.696 99.0919C923.362 99.8093 923.977 100.476 924.541 101.09C923.413 102.218 922.004 103.601 920.313 105.241C918.622 106.83 916.777 108.47 914.779 110.161C912.831 111.852 910.781 113.543 908.629 115.234C906.528 116.925 904.453 118.437 902.403 119.769C900.404 121.102 898.534 122.178 896.791 122.998C895.049 123.818 893.589 124.228 892.41 124.228C891.641 124.228 890.668 123.946 889.489 123.382C888.31 122.87 887.183 122.204 886.107 121.384C885.031 120.615 884.108 119.744 883.34 118.77C882.571 117.796 882.187 116.848 882.187 115.926C882.955 112.493 883.724 109.495 884.493 106.932C885.261 104.37 885.979 102.192 886.645 100.399C887.311 98.5538 887.9 97.0677 888.413 95.9403C888.925 94.8129 889.31 93.9674 889.566 93.4037C888.951 93.1474 888.362 92.8656 887.798 92.5581C887.234 92.2506 886.671 91.9432 886.107 91.6357C885.287 92.5069 884.364 93.4293 883.34 94.4029C882.366 95.3766 881.367 96.3503 880.342 97.3239C879.317 98.2976 878.292 99.2456 877.267 100.168C876.242 101.09 875.32 101.936 874.5 102.705L870.81 98.9382C872.142 97.657 873.757 96.1197 875.653 94.3261C877.498 92.4812 879.317 90.6364 881.11 88.7916C879.829 88.0229 878.676 87.3055 877.651 86.6393C876.626 85.9218 875.755 85.2813 875.038 84.7176C874.167 84.1026 873.398 83.5389 872.732 83.0265C872.424 82.8727 872.271 82.5396 872.271 82.0272C872.271 81.4635 872.501 80.6692 872.962 79.6443C873.372 78.5681 873.91 77.4407 874.577 76.2621C875.243 75.0322 875.96 73.8023 876.729 72.5724C877.498 71.2913 878.241 70.1383 878.958 69.1134C879.676 68.0885 880.29 67.2685 880.803 66.6536C881.367 65.9874 881.725 65.6543 881.879 65.6543C881.982 65.6543 882.315 65.7824 882.878 66.0386C883.493 66.2949 884.134 66.6023 884.8 66.9611C885.466 67.2685 886.081 67.6272 886.645 68.0372C887.209 68.4472 887.567 68.8059 887.721 69.1134C887.772 69.3696 887.824 69.9077 887.875 70.7276C887.926 71.5475 887.977 72.5468 888.029 73.7254C890.027 74.7504 892.077 75.929 894.178 77.2614C896.279 78.5425 898.201 79.7724 899.943 80.951C901.993 82.2834 903.94 83.6414 905.785 85.025C906.451 85.435 906.861 85.9475 907.015 86.5624C907.22 87.1773 907.246 87.7154 907.092 88.1766ZM974.351 101.09C969.637 105.703 965.178 109.572 960.976 112.698C956.825 115.824 952.854 118.335 949.062 120.231C945.27 122.127 941.631 123.485 938.146 124.305C934.713 125.125 931.356 125.534 928.077 125.534C926.693 125.534 925.156 125.022 923.465 123.997C921.774 122.972 920.211 121.717 918.776 120.231C917.29 118.796 916.06 117.284 915.086 115.695C914.112 114.107 913.626 112.749 913.626 111.621C913.626 107.419 914.215 103.576 915.394 100.091C916.521 96.5552 918.033 93.378 919.929 90.5595C921.825 87.741 923.977 85.2556 926.386 83.1033C928.845 80.951 931.382 79.1575 933.996 77.7226C936.66 76.2877 939.299 75.2116 941.913 74.4941C944.526 73.7767 946.935 73.418 949.139 73.418C950.727 73.418 952.29 73.8792 953.828 74.8016C955.416 75.724 956.851 76.8514 958.132 78.1838C959.413 79.5162 960.438 80.9254 961.207 82.4115C962.027 83.8464 962.437 85.1019 962.437 86.1781C962.437 87.9204 961.694 89.714 960.208 91.5588C958.773 93.3524 956.723 95.1972 954.058 97.0933C951.393 98.9894 948.191 100.937 944.45 102.935C940.709 104.883 936.583 106.856 932.074 108.854C931.92 110.084 931.843 111.288 931.843 112.467C931.843 114.056 932.176 115.132 932.843 115.695C933.56 116.259 934.867 116.541 936.763 116.541C940.145 116.541 943.322 115.977 946.294 114.85C949.318 113.722 952.213 112.262 954.981 110.468C957.748 108.675 960.413 106.625 962.975 104.319C965.537 102.013 968.074 99.6812 970.585 97.3239L974.351 101.09ZM947.294 81.8735C946.269 81.8735 945.141 82.4372 943.912 83.5646C942.682 84.6407 941.452 86.0756 940.222 87.8692C938.992 89.6627 937.813 91.7382 936.686 94.0955C935.559 96.4015 934.585 98.81 933.765 101.321C935.661 100.091 937.506 98.7844 939.299 97.4008C941.144 96.0172 942.784 94.5823 944.219 93.0962C945.654 91.5588 946.807 89.9958 947.678 88.4072C948.549 86.8186 948.985 85.23 948.985 83.6414C948.985 83.1802 948.831 82.7702 948.524 82.4115C948.267 82.0528 947.857 81.8735 947.294 81.8735ZM969.201 98.7844C970.38 97.657 971.738 96.3759 973.275 94.941C974.761 93.5062 976.247 91.9432 977.734 90.2521C979.271 88.561 980.68 86.7418 981.961 84.7944C983.294 82.8471 984.344 80.7461 985.113 78.4913C985.318 77.3126 985.625 76.0827 986.035 74.8016C986.496 73.4692 986.983 72.265 987.496 71.1888C988.059 70.1126 988.598 69.2159 989.11 68.4984C989.622 67.781 990.084 67.4223 990.494 67.4223C991.109 67.781 992.031 68.4728 993.261 69.4977C994.491 70.4714 995.721 71.5219 996.951 72.6493C998.18 73.7767 999.257 74.8272 1000.18 75.8009C1001.15 76.7233 1001.64 77.287 1001.64 77.492C1001.02 79.8493 1000.72 81.9759 1000.72 83.872C1000.77 85.7681 1000.92 87.6386 1001.18 89.4834C1001.49 91.3282 1001.79 93.3012 1002.1 95.4022C1002.46 97.452 1002.64 99.835 1002.64 102.551C1002.64 104.191 1002.36 106.087 1001.79 108.239C1001.28 110.34 1000.36 112.236 999.026 113.927C1001.64 112.39 1004.23 110.673 1006.79 108.777C1009.35 106.83 1011.63 105.011 1013.63 103.32C1015.99 101.321 1018.24 99.3225 1020.4 97.3239L1023.85 101.09C1022.16 102.679 1020.32 104.37 1018.32 106.164C1016.37 107.957 1014.32 109.725 1012.17 111.468C1010.07 113.21 1007.92 114.875 1005.71 116.464C1003.51 118.053 1001.33 119.462 999.18 120.692C997.027 121.922 994.952 122.895 992.953 123.613C990.955 124.33 989.084 124.689 987.342 124.689C985.856 124.689 984.216 124.33 982.422 123.613C980.629 122.895 978.938 122.024 977.349 120.999C975.761 119.974 974.377 118.898 973.198 117.771C972.02 116.643 971.328 115.695 971.123 114.927C971.123 114.824 971.225 114.619 971.43 114.312C971.635 113.953 971.892 113.594 972.199 113.236C972.455 112.877 972.737 112.569 973.045 112.313C973.301 112.006 973.506 111.852 973.66 111.852C973.967 111.852 974.582 112.083 975.504 112.544C976.427 113.005 977.964 113.236 980.116 113.236C981.295 113.236 982.294 112.928 983.114 112.313C983.985 111.698 984.703 110.878 985.267 109.853C985.83 108.829 986.24 107.65 986.496 106.317C986.753 104.985 986.881 103.576 986.881 102.09C986.881 99.9374 986.778 97.862 986.573 95.8634C986.368 93.8136 986.138 91.8407 985.882 89.9446C985.01 90.9695 984.011 92.0457 982.884 93.1731C981.756 94.3005 980.603 95.4279 979.425 96.5552C978.297 97.6314 977.144 98.7076 975.966 99.7837C974.838 100.809 973.813 101.731 972.891 102.551L969.201 98.7844ZM1174.36 20.994C1174.36 23.4537 1173.39 26.1954 1171.44 29.2189C1169.49 32.1911 1166.98 35.2146 1163.91 38.2893C1160.88 41.3128 1157.5 44.285 1153.76 47.206C1150.02 50.0757 1146.33 52.6636 1142.69 54.9696C1139.67 56.8657 1136.75 58.6081 1133.93 60.1967C1131.16 61.734 1128.55 63.1945 1126.09 64.5781C1123.68 65.9618 1121.48 67.2942 1119.48 68.5753C1117.48 69.8052 1115.74 71.0607 1114.25 72.3418C1117.94 73.008 1121.22 73.6742 1124.09 74.3404C1126.96 74.9553 1129.24 75.6984 1130.93 76.5696C1132.16 77.4407 1133.42 78.7475 1134.7 80.4898C1135.98 82.1809 1137.13 83.9233 1138.16 85.7169C1139.18 87.5104 1140 89.1503 1140.62 90.6364C1141.28 92.0713 1141.62 92.9425 1141.62 93.2499C1141.62 95.5047 1141.03 97.8876 1139.85 100.399C1138.72 102.91 1137.13 105.421 1135.08 107.932C1133.08 110.391 1130.68 112.774 1127.86 115.08C1125.09 117.386 1122.04 119.462 1118.71 121.307C1115.43 123.203 1111.95 124.791 1108.26 126.073C1104.57 127.405 1100.82 128.276 1097.03 128.686C1095.34 127.302 1093.7 125.816 1092.11 124.228C1090.52 122.69 1089.09 121.256 1087.81 119.923C1086.53 118.54 1085.45 117.361 1084.58 116.387C1083.71 115.362 1083.17 114.722 1082.97 114.466C1081.12 117.335 1079.25 119.949 1077.35 122.306C1075.46 124.663 1073.56 126.636 1071.67 128.225C1069.82 129.865 1067.95 131.095 1066.05 131.915C1064.21 132.786 1062.37 133.17 1060.52 133.068C1059.75 133.016 1058.96 132.709 1058.14 132.145C1057.32 131.633 1056.52 130.967 1055.75 130.147C1054.99 129.327 1054.27 128.43 1053.6 127.456C1052.88 126.483 1052.27 125.534 1051.76 124.612C1051.19 123.741 1050.76 122.921 1050.45 122.152C1050.14 121.435 1049.99 120.922 1049.99 120.615C1049.99 115.234 1051.14 109.238 1053.45 102.628C1055.7 96.0172 1058.8 89.1759 1062.75 82.1041C1066.7 75.0322 1071.36 67.9603 1076.74 60.8885C1082.12 53.7654 1087.91 47.0266 1094.11 40.6722C1096.16 33.2929 1097.83 26.1185 1099.11 19.1491C1100.39 12.1798 1101.08 5.79972 1101.18 0.00899752C1104.57 1.80259 1107.28 3.57055 1109.33 5.31289C1111.38 7.00399 1113 8.51573 1114.17 9.84811C1115.51 11.4367 1116.48 12.9485 1117.1 14.3833C1117.4 15.3057 1117.56 16.6125 1117.56 18.3036C1117.56 18.6111 1117.53 18.9442 1117.48 19.3029C1117.48 19.6103 1117.45 19.9434 1117.4 20.3022C1124.58 15.1776 1131.7 11.1036 1138.77 8.08014C1145.9 5.00542 1152.71 3.46806 1159.22 3.46806C1160.04 3.46806 1160.99 3.77553 1162.06 4.39048C1163.14 5.00542 1164.22 5.82535 1165.29 6.85025C1166.42 7.87516 1167.52 9.02818 1168.6 10.3093C1169.72 11.5392 1170.7 12.8203 1171.52 14.1527C1172.39 15.4338 1173.08 16.6894 1173.59 17.9192C1174.11 19.0979 1174.36 20.1228 1174.36 20.994ZM1101.57 76.339C1098.85 83.3083 1095.93 90.0727 1092.8 96.6321C1089.73 103.14 1086.5 109.033 1083.12 114.312C1088.96 113.799 1094.39 112.954 1099.42 111.775C1104.44 110.545 1108.97 108.931 1113.02 106.932C1117.07 104.934 1120.61 102.474 1123.63 99.5531C1126.7 96.6321 1129.21 93.1987 1131.16 89.2528C1130.14 88.6891 1129.01 88.1766 1127.78 87.7154C1126.6 87.2542 1125.35 86.8443 1124.01 86.4855C1122.68 86.1268 1121.32 85.8193 1119.94 85.5631C1118.61 85.2556 1117.3 84.9738 1116.02 84.7176C1113.05 84.2051 1109.97 83.7952 1106.79 83.4877C1106.08 83.3852 1105.23 82.6165 1104.26 81.1816C1103.34 79.7468 1102.44 78.1325 1101.57 76.339ZM1113.56 39.8266C1112.69 43.0039 1111.71 46.3348 1110.64 49.8195C1109.61 53.2529 1108.49 56.8145 1107.26 60.5041C1111.87 56.7632 1116.81 53.2273 1122.09 49.8964C1127.42 46.5654 1132.7 43.1832 1137.93 39.7498C1143.15 36.2651 1148.1 32.5754 1152.76 28.6808C1157.43 24.7349 1161.42 20.2765 1164.75 15.3057C1164.96 15.0495 1165.04 14.742 1164.98 14.3833C1164.98 14.0246 1164.88 13.6915 1164.68 13.384C1164.47 13.0253 1164.19 12.7435 1163.83 12.5385C1163.52 12.2823 1163.14 12.1541 1162.68 12.1541C1159.81 12.1541 1156.5 12.846 1152.76 14.2296C1149.07 15.562 1145.1 17.458 1140.85 19.9178C1136.59 22.3264 1132.14 25.2473 1127.47 28.6808C1122.86 32.063 1118.22 35.7783 1113.56 39.8266ZM1060.83 118.463C1061.29 118.463 1061.96 117.899 1062.83 116.772C1063.75 115.593 1064.8 113.979 1065.98 111.929C1067.21 109.828 1068.54 107.317 1069.98 104.396C1071.46 101.424 1073 98.1695 1074.59 94.6335C1076.18 91.0464 1077.79 87.203 1079.43 83.1033C1081.12 79.0037 1082.79 74.7504 1084.43 70.3432C1081.4 74.1867 1078.56 78.0813 1075.89 82.0272C1073.23 85.9218 1070.82 89.8165 1068.67 93.7111C1066.57 97.6058 1064.75 101.475 1063.21 105.318C1061.72 109.11 1060.62 112.8 1059.91 116.387C1059.75 117.105 1059.78 117.643 1059.98 118.001C1060.24 118.309 1060.52 118.463 1060.83 118.463ZM1208.34 101.09C1203.62 105.703 1199.16 109.572 1194.96 112.698C1190.81 115.824 1186.84 118.335 1183.05 120.231C1179.26 122.127 1175.62 123.485 1172.13 124.305C1168.7 125.125 1165.34 125.534 1162.06 125.534C1160.68 125.534 1159.14 125.022 1157.45 123.997C1155.76 122.972 1154.2 121.717 1152.76 120.231C1151.28 118.796 1150.05 117.284 1149.07 115.695C1148.1 114.107 1147.61 112.749 1147.61 111.621C1147.61 107.419 1148.2 103.576 1149.38 100.091C1150.51 96.5552 1152.02 93.378 1153.92 90.5595C1155.81 87.741 1157.96 85.2556 1160.37 83.1033C1162.83 80.951 1165.37 79.1575 1167.98 77.7226C1170.65 76.2877 1173.29 75.2116 1175.9 74.4941C1178.51 73.7767 1180.92 73.418 1183.12 73.418C1184.71 73.418 1186.28 73.8792 1187.81 74.8016C1189.4 75.724 1190.84 76.8514 1192.12 78.1838C1193.4 79.5162 1194.42 80.9254 1195.19 82.4115C1196.01 83.8464 1196.42 85.1019 1196.42 86.1781C1196.42 87.9204 1195.68 89.714 1194.19 91.5588C1192.76 93.3524 1190.71 95.1972 1188.04 97.0933C1185.38 98.9894 1182.18 100.937 1178.44 102.935C1174.7 104.883 1170.57 106.856 1166.06 108.854C1165.91 110.084 1165.83 111.288 1165.83 112.467C1165.83 114.056 1166.16 115.132 1166.83 115.695C1167.55 116.259 1168.85 116.541 1170.75 116.541C1174.13 116.541 1177.31 115.977 1180.28 114.85C1183.3 113.722 1186.2 112.262 1188.97 110.468C1191.73 108.675 1194.4 106.625 1196.96 104.319C1199.52 102.013 1202.06 99.6812 1204.57 97.3239L1208.34 101.09ZM1181.28 81.8735C1180.26 81.8735 1179.13 82.4372 1177.9 83.5646C1176.67 84.6407 1175.44 86.0756 1174.21 87.8692C1172.98 89.6627 1171.8 91.7382 1170.67 94.0955C1169.54 96.4015 1168.57 98.81 1167.75 101.321C1169.65 100.091 1171.49 98.7844 1173.29 97.4008C1175.13 96.0172 1176.77 94.5823 1178.21 93.0962C1179.64 91.5588 1180.79 89.9958 1181.66 88.4072C1182.54 86.8186 1182.97 85.23 1182.97 83.6414C1182.97 83.1802 1182.82 82.7702 1182.51 82.4115C1182.25 82.0528 1181.84 81.8735 1181.28 81.8735ZM1270.14 100.937C1265.53 105.088 1260.79 109.008 1255.92 112.698C1251.05 116.387 1246.18 119.949 1241.31 123.382C1240.6 125.534 1239.78 127.815 1238.85 130.223C1237.93 132.632 1236.8 135.374 1235.47 138.448C1233.99 141.831 1232.29 145.136 1230.4 148.364C1228.5 151.593 1226.48 154.616 1224.33 157.435C1222.23 160.304 1220.05 162.918 1217.79 165.275C1215.54 167.633 1213.31 169.657 1211.1 171.348C1208.95 173.09 1206.88 174.423 1204.88 175.345C1202.83 176.319 1200.96 176.805 1199.27 176.805C1198.45 176.805 1197.45 176.498 1196.27 175.883C1195.09 175.268 1193.96 174.474 1192.89 173.5C1191.81 172.578 1190.91 171.578 1190.2 170.502C1189.43 169.426 1189.04 168.427 1189.04 167.504C1189.04 164.276 1189.91 161.099 1191.66 157.973C1193.4 154.898 1195.81 151.798 1198.88 148.672C1201.91 145.546 1205.47 142.369 1209.57 139.14C1213.72 135.963 1218.18 132.683 1222.94 129.301C1224.43 125.355 1225.86 121.256 1227.25 117.002C1228.68 112.698 1230.07 108.444 1231.4 104.242C1229.19 107.061 1227.07 109.52 1225.02 111.621C1222.97 113.722 1221.07 115.516 1219.33 117.002C1217.59 118.437 1216.08 119.59 1214.79 120.461C1213.51 121.384 1212.54 122.075 1211.87 122.537C1211.46 122.793 1210.98 122.972 1210.41 123.075C1209.85 123.228 1209.34 123.305 1208.88 123.305C1207.9 123.305 1206.83 122.998 1205.65 122.383C1204.47 121.819 1203.39 121.076 1202.42 120.154C1201.39 119.283 1200.55 118.309 1199.88 117.233C1199.16 116.157 1198.81 115.132 1198.81 114.158C1198.81 113.031 1199.19 111.237 1199.96 108.777C1200.68 106.266 1201.68 103.243 1202.96 99.7068C1204.19 96.1709 1205.65 92.1994 1207.34 87.7923C1209.03 83.3852 1210.85 78.6962 1212.8 73.7254C1212.9 73.4692 1212.98 73.3667 1213.03 73.418C1213.13 73.418 1213.28 73.418 1213.49 73.418C1214.46 73.5717 1215.79 73.9817 1217.48 74.6479C1219.18 75.2628 1220.82 75.9546 1222.4 76.7233C1224.04 77.492 1225.45 78.235 1226.63 78.9525C1227.81 79.6187 1228.4 80.0799 1228.4 80.3361C1228.25 80.6948 1227.84 81.5404 1227.17 82.8727C1226.56 84.2051 1225.81 85.8193 1224.94 87.7154C1224.12 89.5603 1223.22 91.5844 1222.25 93.788C1221.33 95.9403 1220.46 98.0157 1219.64 100.014C1218.87 102.013 1218.23 103.832 1217.72 105.472C1217.2 107.061 1216.95 108.239 1216.95 109.008C1216.95 109.213 1217.05 109.315 1217.25 109.315C1217.61 109.315 1218.38 108.854 1219.56 107.932C1220.79 107.009 1222.3 105.549 1224.1 103.55C1225.89 101.552 1227.91 99.015 1230.17 95.9403C1232.42 92.8143 1234.81 89.0734 1237.32 84.7176C1238.34 81.3354 1239.19 78.645 1239.85 76.6464C1240.52 74.5966 1240.96 73.5717 1241.16 73.5717C1241.47 73.5717 1242.26 73.956 1243.54 74.7247C1244.82 75.4934 1246.18 76.4158 1247.62 77.492C1249.05 78.5169 1250.33 79.5674 1251.46 80.6436C1252.59 81.6685 1253.15 82.4628 1253.15 83.0265C1253.15 83.2827 1253.13 83.5133 1253.07 83.7183C1253.02 83.9233 1252.95 84.1539 1252.84 84.4101C1251.67 87.9973 1250.64 91.2514 1249.77 94.1723C1248.9 97.0421 1248.1 99.6812 1247.39 102.09C1246.72 104.498 1246.11 106.727 1245.54 108.777C1245.03 110.776 1244.52 112.723 1244 114.619C1247.85 111.852 1251.67 109.033 1255.46 106.164C1259.25 103.243 1262.99 100.194 1266.68 97.0165L1270.14 100.937ZM1198.81 168.35C1199.73 168.35 1201.01 167.453 1202.65 165.66C1204.29 163.917 1206.06 161.662 1207.95 158.895C1209.85 156.128 1211.75 153.028 1213.64 149.594C1215.59 146.212 1217.31 142.881 1218.79 139.601C1216.84 141.241 1214.67 143.035 1212.26 144.982C1209.85 146.929 1207.59 149.056 1205.49 151.362C1203.39 153.668 1201.62 156.128 1200.19 158.741C1198.75 161.406 1198.04 164.225 1198.04 167.197C1198.04 167.966 1198.29 168.35 1198.81 168.35ZM1275.44 112.159C1275.44 113.697 1276.01 114.466 1277.13 114.466C1278.31 114.466 1279.88 113.543 1281.82 111.698C1283.77 109.802 1285.79 107.419 1287.9 104.55C1287.79 103.986 1287.72 103.499 1287.67 103.089C1287.67 102.628 1287.67 102.218 1287.67 101.859C1287.67 100.834 1287.77 99.63 1287.97 98.2463C1288.23 96.8115 1288.82 95.1972 1289.74 93.4037C1290.36 92.02 1291.1 90.662 1291.97 89.3297C1292.69 88.151 1293.56 86.8955 1294.58 85.5631C1295.61 84.1795 1296.74 82.8984 1297.97 81.7197L1298.43 81.2585C1298.94 81.8735 1299.61 82.719 1300.43 83.7952C1301.3 84.8201 1302.14 85.8962 1302.96 87.0236C1303.83 88.0998 1304.58 89.099 1305.19 90.0215C1305.86 90.9439 1306.27 91.5844 1306.42 91.9432C1306.42 94.1467 1306.01 96.3503 1305.19 98.5538C1304.42 100.757 1303.37 102.935 1302.04 105.088C1305.11 104.883 1307.96 104.114 1310.57 102.782C1313.24 101.398 1316 99.1688 1318.87 96.094C1319.34 96.5552 1319.92 97.1958 1320.64 98.0157C1321.41 98.7844 1322.03 99.4506 1322.49 100.014C1320.33 102.269 1318.21 104.14 1316.11 105.626C1314.06 107.112 1311.98 108.29 1309.88 109.162C1307.83 110.033 1305.73 110.673 1303.58 111.083C1301.42 111.442 1299.22 111.621 1296.97 111.621C1295.22 113.466 1293.35 115.157 1291.36 116.695C1289.36 118.232 1287.31 119.564 1285.21 120.692C1283.16 121.819 1281.11 122.69 1279.06 123.305C1277.01 123.92 1275.06 124.228 1273.21 124.228C1271.68 124.228 1270.09 123.767 1268.45 122.844C1266.81 121.922 1265.32 120.794 1263.99 119.462C1262.66 118.078 1261.56 116.618 1260.68 115.08C1259.81 113.543 1259.38 112.185 1259.38 111.006C1259.38 107.112 1259.92 103.243 1260.99 99.3994C1262.02 95.556 1263.66 91.9688 1265.91 88.6378C1268.12 85.2556 1270.93 82.2834 1274.37 79.7211C1277.85 77.1589 1281.98 75.2116 1286.74 73.8792C1286.9 73.7767 1287.15 73.6998 1287.51 73.6486C1287.92 73.5973 1288.25 73.5717 1288.51 73.5717C1289.23 73.5717 1289.97 73.8536 1290.74 74.4173C1291.56 74.9297 1292.3 75.519 1292.97 76.1852C1293.69 76.8514 1294.28 77.5176 1294.74 78.1838C1295.2 78.7987 1295.43 79.2087 1295.43 79.4137C1295.33 79.6699 1294.94 80.003 1294.28 80.413C1293.61 80.7717 1292.71 81.4122 1291.59 82.3347C1290.46 83.2571 1289.13 84.5895 1287.59 86.3318C1286.05 88.0229 1284.36 90.2777 1282.52 93.0962C1279.75 97.2471 1277.88 101.014 1276.9 104.396C1275.93 107.727 1275.44 110.315 1275.44 112.159ZM1339.55 82.8727C1338.94 84.5126 1338.32 86.1781 1337.71 87.8692C1337.09 89.5603 1336.48 91.3026 1335.86 93.0962C1339.09 89.4065 1341.86 86.4087 1344.16 84.1026C1346.52 81.7453 1348.49 79.9005 1350.08 78.5681C1351.72 77.2357 1353.03 76.339 1354 75.8777C1355.03 75.3653 1355.82 75.1091 1356.39 75.1091C1357.05 75.1091 1358.05 75.4422 1359.38 76.1084C1360.72 76.7745 1362.05 77.5945 1363.38 78.5681C1364.76 79.5418 1365.94 80.5411 1366.92 81.566C1367.94 82.5909 1368.45 83.4877 1368.45 84.2564C1368.45 84.4101 1368.43 84.6151 1368.38 84.8713C1368.33 85.0763 1368.25 85.3581 1368.15 85.7169C1367.74 86.998 1367.2 88.5097 1366.53 90.2521C1365.92 91.9944 1365.25 93.8136 1364.53 95.7097C1363.82 97.5545 1363.1 99.425 1362.38 101.321C1361.66 103.166 1361.02 104.908 1360.46 106.548C1359.9 108.188 1359.43 109.623 1359.08 110.853C1358.72 112.083 1358.54 112.979 1358.54 113.543C1358.54 113.851 1358.69 114.004 1359 114.004C1359.56 114.004 1360.41 113.671 1361.54 113.005C1362.66 112.339 1363.94 111.468 1365.38 110.391C1366.87 109.315 1368.4 108.137 1369.99 106.856C1371.58 105.574 1373.09 104.319 1374.53 103.089C1376.01 101.808 1377.34 100.655 1378.52 99.63C1379.7 98.6051 1380.6 97.8364 1381.21 97.3239C1381.73 97.7851 1382.29 98.3745 1382.9 99.0919C1383.52 99.8093 1384.11 100.476 1384.67 101.09C1383.55 102.218 1382.14 103.601 1380.45 105.241C1378.75 106.83 1376.91 108.47 1374.91 110.161C1372.96 111.852 1370.91 113.543 1368.76 115.234C1366.66 116.925 1364.61 118.437 1362.61 119.769C1360.61 121.102 1358.74 122.178 1357 122.998C1355.26 123.818 1353.8 124.228 1352.62 124.228C1351.85 124.228 1350.88 123.946 1349.7 123.382C1348.52 122.87 1347.37 122.204 1346.24 121.384C1345.16 120.615 1344.24 119.744 1343.47 118.77C1342.7 117.796 1342.32 116.848 1342.32 115.926C1342.78 113.825 1343.39 111.442 1344.16 108.777C1344.98 106.113 1345.85 103.397 1346.78 100.629C1347.7 97.8108 1348.65 95.0435 1349.62 92.3275C1350.65 89.5603 1351.62 87.0236 1352.54 84.7176L1352.39 84.8713C1351.41 86.05 1350.01 87.6129 1348.16 89.5603C1346.37 91.4563 1344.32 93.9161 1342.01 96.9396C1339.71 99.9118 1337.27 103.525 1334.71 107.778C1332.15 111.98 1329.64 116.977 1327.18 122.767C1326.87 123.485 1326.59 124.048 1326.33 124.458C1326.07 124.868 1325.59 125.073 1324.87 125.073C1324 125.073 1323 124.817 1321.87 124.305C1320.8 123.843 1319.69 123.203 1318.57 122.383C1317.39 121.614 1316.23 120.743 1315.11 119.769C1313.93 118.796 1312.88 117.822 1311.96 116.848C1311.96 116.541 1312.11 115.67 1312.42 114.235C1312.67 112.8 1313.06 111.006 1313.57 108.854C1314.08 106.651 1314.72 104.165 1315.49 101.398C1316.26 98.5794 1317.13 95.6328 1318.11 92.5581C1319.08 89.4834 1320.16 86.3574 1321.33 83.1802C1322.46 79.9518 1323.69 76.8514 1325.02 73.8792C1327.18 74.9041 1329.56 76.1596 1332.17 77.6457C1334.84 79.1318 1337.3 80.8742 1339.55 82.8727ZM1427.1 111.468C1427.1 112.749 1427.51 113.389 1428.33 113.389C1429.31 113.389 1430.46 113.082 1431.79 112.467C1433.18 111.852 1434.61 111.058 1436.1 110.084C1437.58 109.059 1439.1 107.932 1440.63 106.702C1442.17 105.472 1443.61 104.268 1444.94 103.089C1446.32 101.91 1447.55 100.809 1448.63 99.7837C1449.7 98.7588 1450.55 97.9389 1451.16 97.3239C1451.68 97.7851 1452.29 98.3745 1453.01 99.0919C1453.73 99.8093 1454.37 100.476 1454.93 101.09C1453.6 102.423 1452.09 103.909 1450.4 105.549C1448.7 107.189 1446.88 108.88 1444.94 110.622C1443.04 112.313 1441.04 113.979 1438.94 115.619C1436.89 117.207 1434.84 118.642 1432.79 119.923C1430.74 121.153 1428.74 122.152 1426.8 122.921C1424.85 123.69 1423 124.074 1421.26 124.074C1420.34 124.074 1419.21 123.638 1417.88 122.767C1416.55 121.947 1415.27 120.922 1414.04 119.693C1412.81 118.463 1411.76 117.182 1410.88 115.849C1410.06 114.466 1409.65 113.236 1409.65 112.159C1409.65 109.802 1409.81 107.342 1410.12 104.78C1407.81 106.83 1405.58 108.777 1403.43 110.622C1401.28 112.467 1399.1 114.209 1396.89 115.849C1394.74 117.438 1392.51 118.898 1390.21 120.231C1387.95 121.614 1385.54 122.793 1382.98 123.767C1382.21 124.074 1381.55 124.228 1380.98 124.228C1380.47 124.228 1379.8 123.972 1378.98 123.459C1378.16 122.947 1377.37 122.28 1376.6 121.46C1375.83 120.692 1375.17 119.821 1374.6 118.847C1374.04 117.822 1373.76 116.848 1373.76 115.926C1373.76 113.825 1374.17 111.493 1374.99 108.931C1375.76 106.317 1376.91 103.653 1378.45 100.937C1379.93 98.1695 1381.78 95.4279 1383.98 92.7118C1386.13 89.9446 1388.59 87.3567 1391.36 84.9482C1394.13 82.4884 1397.18 80.2848 1400.51 78.3375C1403.84 76.339 1407.4 74.7504 1411.19 73.5717C1411.91 73.6742 1412.83 74.0073 1413.96 74.571C1415.09 75.0834 1416.14 75.6215 1417.11 76.1852C1418.96 70.9069 1421.06 65.6287 1423.41 60.3504C1425.82 55.0209 1428.36 49.922 1431.02 45.0537C1433.74 40.1341 1436.56 35.5477 1439.48 31.2943C1442.4 26.9897 1445.32 23.1975 1448.24 19.9178C1451.16 16.5869 1454.03 13.8965 1456.85 11.8467C1459.72 9.79686 1462.44 8.54135 1465 8.08014C1466.13 8.08014 1467.31 8.46448 1468.54 9.23316C1469.82 9.9506 1471.02 10.8474 1472.15 11.9235C1473.28 12.9485 1474.22 14.0246 1474.99 15.152C1475.81 16.2794 1476.33 17.2274 1476.53 17.9961C1476.53 20.3534 1475.94 23.095 1474.76 26.221C1473.58 29.347 1471.94 32.7292 1469.84 36.3676C1467.79 39.9548 1465.33 43.7213 1462.46 47.6672C1459.64 51.6131 1456.6 55.6358 1453.32 59.7355C1450.04 63.7838 1446.58 67.8322 1442.94 71.8806C1439.35 75.929 1435.74 79.8493 1432.1 83.6414C1430.56 88.8684 1429.33 93.8649 1428.41 98.6307C1427.54 103.345 1427.1 107.624 1427.1 111.468ZM1465.69 17.3812C1464.82 17.3812 1463.74 18.0217 1462.46 19.3029C1461.23 20.584 1459.82 22.3776 1458.24 24.6836C1456.7 26.9384 1455.06 29.6288 1453.32 32.7548C1451.57 35.8807 1449.81 39.2886 1448.01 42.9782C1446.22 46.6679 1444.42 50.5882 1442.63 54.739C1440.84 58.8899 1439.15 63.092 1437.56 67.3454C1441.4 62.6308 1445.04 57.9163 1448.47 53.2017C1451.96 48.4359 1455.01 43.9263 1457.62 39.6729C1460.23 35.4195 1462.31 31.5249 1463.85 27.989C1465.38 24.453 1466.15 21.532 1466.15 19.226C1466.15 18.9185 1466.13 18.5342 1466.08 18.073C1466.08 17.6118 1465.95 17.3812 1465.69 17.3812ZM1392.74 108.854C1394.44 108.854 1396.95 107.675 1400.28 105.318C1403.61 102.91 1407.37 99.7068 1411.58 95.7097C1412.04 93.3524 1412.6 90.9695 1413.27 88.561C1413.93 86.1012 1414.68 83.6158 1415.5 81.1048C1412.52 83.1033 1409.6 85.3838 1406.73 87.946C1403.92 90.5083 1401.4 93.0449 1399.2 95.556C1397 98.067 1395.2 100.424 1393.82 102.628C1392.49 104.78 1391.82 106.42 1391.82 107.547C1391.82 108.419 1392.13 108.854 1392.74 108.854ZM379.008 348.228C378.137 348.228 376.984 347.818 375.549 346.998C374.166 346.229 372.808 345.256 371.475 344.077C370.143 342.949 368.99 341.771 368.016 340.541C367.043 339.311 366.556 338.261 366.556 337.389C366.556 335.852 366.991 333.418 367.863 330.087C368.682 326.756 369.784 322.964 371.168 318.71C372.551 314.406 374.114 309.819 375.857 304.951C377.65 300.083 379.444 295.317 381.238 290.654H370.399H370.322C370.271 290.654 370.245 290.602 370.245 290.5C370.245 290.192 370.374 289.757 370.63 289.193C370.835 288.578 371.117 287.963 371.475 287.348C371.783 286.682 372.167 286.093 372.628 285.58C373.038 285.017 373.448 284.658 373.858 284.504L383.851 284.043C385.286 280.558 386.644 277.355 387.925 274.434C389.257 271.462 390.436 268.926 391.461 266.824C391.717 266.261 391.973 265.671 392.23 265.057C392.537 264.39 392.947 263.75 393.46 263.135C394.023 262.469 394.741 261.802 395.612 261.136C396.534 260.419 397.764 259.701 399.302 258.984C400.429 258.42 401.787 257.805 403.376 257.139C405.015 256.473 406.604 255.858 408.141 255.294C409.73 254.731 411.165 254.269 412.446 253.911C413.727 253.501 414.65 253.296 415.213 253.296C415.726 253.296 415.982 253.398 415.982 253.603V253.757C415.982 253.808 415.931 253.936 415.828 254.141C415.521 254.654 414.957 255.781 414.137 257.523C413.317 259.215 412.292 261.367 411.062 263.98C409.884 266.543 408.551 269.489 407.065 272.82C405.63 276.1 404.144 279.585 402.607 283.274L421.055 282.582C421.568 282.582 421.721 282.89 421.516 283.505C421.311 284.12 420.927 284.837 420.363 285.657C419.8 286.477 419.134 287.323 418.365 288.194C417.647 289.065 417.032 289.731 416.52 290.192C416.418 290.295 416.213 290.397 415.905 290.5C415.598 290.602 415.213 290.654 414.752 290.654H399.532C397.687 295.112 395.919 299.622 394.228 304.182C392.537 308.743 391.025 313.073 389.693 317.173C388.361 321.273 387.285 325.039 386.465 328.473C385.696 331.906 385.312 334.725 385.312 336.928C385.312 337.236 385.465 337.389 385.773 337.389C386.336 337.389 387.182 337.082 388.309 336.467C389.437 335.801 390.692 334.955 392.076 333.93C393.511 332.905 395.023 331.778 396.611 330.548C398.2 329.318 399.712 328.114 401.146 326.935C402.581 325.705 403.862 324.604 404.99 323.63C406.168 322.605 407.065 321.836 407.68 321.324C408.141 321.785 408.679 322.374 409.294 323.092C409.961 323.809 410.576 324.476 411.139 325.09C410.012 326.218 408.603 327.601 406.912 329.241C405.22 330.83 403.376 332.47 401.377 334.161C399.43 335.852 397.38 337.543 395.228 339.234C393.127 340.925 391.051 342.437 389.001 343.769C387.003 345.102 385.132 346.178 383.39 346.998C381.648 347.818 380.187 348.228 379.008 348.228ZM450.573 337.543C451.341 337.543 452.366 337.21 453.647 336.544C454.928 335.878 456.338 335.032 457.875 334.007C459.464 332.982 461.078 331.855 462.718 330.625C464.358 329.344 465.921 328.114 467.407 326.935C468.944 325.705 470.302 324.604 471.481 323.63C472.659 322.605 473.556 321.836 474.171 321.324C474.632 321.785 475.17 322.374 475.785 323.092C476.451 323.809 477.066 324.476 477.63 325.09C476.503 326.218 475.093 327.576 473.402 329.164C471.711 330.702 469.892 332.29 467.945 333.93C465.997 335.57 463.973 337.184 461.872 338.773C459.771 340.362 457.721 341.796 455.723 343.078C453.724 344.359 451.854 345.384 450.111 346.152C448.369 346.921 446.909 347.305 445.73 347.305C444.756 347.305 443.603 347.049 442.271 346.537C440.99 346.075 439.734 345.46 438.504 344.692C437.326 343.974 436.301 343.18 435.43 342.309C434.61 341.386 434.2 340.49 434.2 339.619C434.251 337.415 434.661 334.853 435.43 331.932C436.198 329.011 437.095 326.013 438.12 322.938C439.196 319.863 440.323 316.84 441.502 313.868C442.732 310.844 443.859 308.154 444.884 305.797C444.474 305.899 443.68 306.463 442.501 307.488C441.323 308.513 439.888 309.922 438.197 311.715C436.557 313.458 434.738 315.584 432.739 318.095C430.792 320.555 428.845 323.322 426.897 326.397C425.001 329.472 423.182 332.803 421.44 336.39C419.697 339.926 418.237 343.667 417.058 347.613C416.904 348.176 416.674 348.586 416.366 348.843C416.11 349.099 415.649 349.227 414.983 349.227C414.521 349.227 413.804 348.996 412.83 348.535C411.857 348.074 410.832 347.51 409.756 346.844C408.679 346.229 407.629 345.563 406.604 344.846C405.579 344.128 404.759 343.488 404.144 342.924C403.837 342.565 403.581 342.232 403.376 341.925C403.171 341.617 403.068 341.156 403.068 340.541C403.068 337.159 403.632 333.008 404.759 328.088C405.887 323.169 407.45 317.839 409.448 312.1C411.395 306.309 413.676 300.288 416.289 294.036C418.954 287.733 421.773 281.558 424.745 275.511C427.768 269.464 430.894 263.724 434.123 258.292C437.403 252.809 440.605 247.992 443.731 243.841C446.909 239.639 449.932 236.282 452.802 233.771C455.723 231.209 458.387 229.851 460.796 229.697C461.975 230.056 463.153 230.62 464.332 231.388C465.562 232.157 466.715 233.003 467.791 233.925C468.867 234.847 469.815 235.744 470.635 236.615C471.506 237.487 472.172 238.23 472.634 238.845C472.941 239.254 473.146 239.741 473.249 240.305C473.351 240.869 473.402 241.279 473.402 241.535C473.402 243.38 472.89 245.66 471.865 248.376C470.84 251.092 469.405 254.141 467.56 257.523C465.716 260.906 463.461 264.544 460.796 268.439C458.182 272.282 455.262 276.254 452.033 280.353C448.856 284.402 445.397 288.501 441.656 292.652C437.966 296.803 434.097 300.826 430.049 304.72C429.024 307.488 428.101 310.178 427.282 312.792C430.049 309.922 432.585 307.513 434.891 305.566C437.198 303.619 439.247 302.081 441.041 300.954C442.835 299.775 444.346 298.955 445.576 298.494C446.857 297.982 447.831 297.725 448.497 297.725C448.958 297.725 449.778 298.033 450.957 298.648C452.136 299.212 453.365 299.903 454.647 300.723C455.928 301.543 457.106 302.389 458.182 303.26C459.259 304.131 459.925 304.849 460.181 305.412C460.284 305.668 460.284 306.027 460.181 306.488C460.079 306.898 459.976 307.231 459.874 307.488C459.412 308.871 458.849 310.486 458.182 312.33C457.568 314.124 456.876 316.046 456.107 318.095C455.39 320.094 454.672 322.118 453.955 324.168C453.237 326.218 452.597 328.114 452.033 329.856C451.469 331.547 451.008 333.059 450.649 334.391C450.291 335.673 450.111 336.569 450.111 337.082C450.111 337.389 450.265 337.543 450.573 337.543ZM443.808 271.437C442.578 274.05 441.374 276.664 440.195 279.277C439.068 281.839 437.966 284.427 436.89 287.041C440.323 282.634 443.654 278.175 446.883 273.666C450.111 269.105 452.981 264.749 455.492 260.598C458.054 256.396 460.104 252.527 461.642 248.991C463.179 245.455 463.948 242.483 463.948 240.074C463.948 238.947 463.743 238.383 463.333 238.383C462.718 238.383 461.77 239.229 460.489 240.92C459.259 242.56 457.773 244.84 456.03 247.761C454.288 250.682 452.366 254.167 450.265 258.215C448.215 262.264 446.063 266.671 443.808 271.437ZM527.21 325.09C522.495 329.703 518.037 333.572 513.835 336.698C509.684 339.824 505.713 342.335 501.92 344.231C498.128 346.127 494.49 347.485 491.005 348.305C487.572 349.125 484.215 349.534 480.935 349.534C479.552 349.534 478.014 349.022 476.323 347.997C474.632 346.972 473.069 345.717 471.634 344.231C470.148 342.796 468.918 341.284 467.945 339.695C466.971 338.107 466.484 336.749 466.484 335.621C466.484 331.419 467.074 327.576 468.252 324.091C469.38 320.555 470.891 317.378 472.787 314.56C474.684 311.741 476.836 309.256 479.244 307.103C481.704 304.951 484.241 303.157 486.854 301.723C489.519 300.288 492.158 299.212 494.772 298.494C497.385 297.777 499.794 297.418 501.997 297.418C503.586 297.418 505.149 297.879 506.686 298.802C508.275 299.724 509.71 300.851 510.991 302.184C512.272 303.516 513.297 304.925 514.066 306.412C514.885 307.846 515.295 309.102 515.295 310.178C515.295 311.92 514.552 313.714 513.066 315.559C511.631 317.352 509.582 319.197 506.917 321.093C504.252 322.989 501.049 324.937 497.308 326.935C493.567 328.883 489.442 330.856 484.933 332.854C484.779 334.084 484.702 335.288 484.702 336.467C484.702 338.056 485.035 339.132 485.701 339.695C486.419 340.259 487.725 340.541 489.622 340.541C493.004 340.541 496.181 339.977 499.153 338.85C502.177 337.722 505.072 336.262 507.839 334.468C510.607 332.675 513.271 330.625 515.834 328.319C518.396 326.013 520.932 323.681 523.443 321.324L527.21 325.09ZM500.152 305.873C499.128 305.873 498 306.437 496.77 307.565C495.54 308.641 494.31 310.076 493.081 311.869C491.851 313.663 490.672 315.738 489.545 318.095C488.417 320.402 487.444 322.81 486.624 325.321C488.52 324.091 490.365 322.784 492.158 321.401C494.003 320.017 495.643 318.582 497.078 317.096C498.513 315.559 499.666 313.996 500.537 312.407C501.408 310.819 501.844 309.23 501.844 307.641C501.844 307.18 501.69 306.77 501.382 306.412C501.126 306.053 500.716 305.873 500.152 305.873ZM657.886 240.92C658.244 241.535 658.629 242.15 659.039 242.765C659.449 243.328 659.833 244.148 660.192 245.225C660.55 246.301 660.858 247.736 661.114 249.529C661.37 251.323 661.498 253.731 661.498 256.755C661.498 263.109 660.755 269.412 659.269 275.664C657.783 281.916 655.759 287.989 653.197 293.882C650.634 299.775 647.611 305.438 644.126 310.87C640.642 316.251 636.875 321.298 632.827 326.013C628.829 330.676 624.653 334.93 620.297 338.773C615.941 342.565 611.585 345.819 607.23 348.535C602.925 351.251 598.723 353.352 594.623 354.838C590.524 356.325 586.731 357.068 583.247 357.068C581.863 357.068 580.428 356.734 578.942 356.068C577.507 355.402 576.072 354.531 574.638 353.455C573.254 352.379 571.922 351.2 570.64 349.919C569.411 348.638 568.283 347.357 567.258 346.075C566.285 344.846 565.465 343.718 564.798 342.693C564.132 341.668 563.671 340.9 563.415 340.387C563.159 339.875 562.851 339.26 562.492 338.542C562.134 337.825 561.801 336.928 561.493 335.852C561.186 334.725 560.929 333.367 560.724 331.778C560.519 330.138 560.417 328.165 560.417 325.859C560.417 322.323 560.776 318.48 561.493 314.329C562.159 310.127 563.389 305.617 565.183 300.8C566.976 295.983 569.411 290.859 572.485 285.427C575.611 279.943 579.583 274.178 584.4 268.131C584.81 268.592 585.425 269.284 586.245 270.207C587.065 271.078 587.961 272.077 588.935 273.205C589.909 274.332 590.934 275.536 592.01 276.817C593.086 278.047 594.085 279.226 595.008 280.353C595.981 281.481 596.801 282.506 597.467 283.428C598.134 284.299 598.595 284.965 598.851 285.427C596.391 288.245 594.06 291.294 591.856 294.574C589.652 297.854 587.603 301.185 585.707 304.567C583.862 307.898 582.171 311.203 580.633 314.483C579.096 317.762 577.789 320.811 576.713 323.63C575.637 326.448 574.791 328.959 574.176 331.163C573.613 333.367 573.331 335.083 573.331 336.313C573.331 337.133 573.485 337.927 573.792 338.696C574.099 339.414 574.484 340.054 574.945 340.618C575.406 341.182 575.893 341.643 576.405 342.001C576.918 342.309 577.379 342.463 577.789 342.463C580.454 342.463 583.503 341.694 586.936 340.157C590.37 338.619 593.957 336.467 597.698 333.7C601.49 330.932 605.359 327.601 609.305 323.707C613.251 319.812 617.069 315.508 620.758 310.793C624.448 306.078 627.907 301.031 631.136 295.65C634.415 290.218 637.285 284.581 639.745 278.739C642.205 272.897 644.126 266.927 645.51 260.829C646.945 254.679 647.662 248.556 647.662 242.457C647.662 240.612 647.457 239.075 647.047 237.845C646.637 236.564 646.099 235.539 645.433 234.771C644.767 233.951 643.998 233.387 643.127 233.079C642.307 232.721 641.461 232.541 640.59 232.541C636.644 232.541 633.108 233.31 629.983 234.847C626.908 236.334 624.243 238.23 621.988 240.536C619.733 242.842 617.914 245.378 616.531 248.146C615.147 250.913 614.199 253.578 613.686 256.14C612.918 260.444 612.79 264.313 613.302 267.747C613.815 271.129 614.532 274.076 615.454 276.587C616.428 279.098 617.376 281.148 618.299 282.736C619.272 284.274 619.81 285.375 619.913 286.042C618.683 285.888 617.222 285.76 615.531 285.657C613.84 285.503 612.072 285.35 610.227 285.196C608.383 285.042 606.563 284.888 604.77 284.735C602.976 284.53 601.362 284.299 599.927 284.043C599.312 283.325 598.646 282.301 597.929 280.968C597.211 279.636 596.545 278.098 595.93 276.356C595.366 274.614 594.879 272.718 594.469 270.668C594.06 268.618 593.855 266.517 593.855 264.365C593.855 260.265 594.495 256.422 595.776 252.835C597.109 249.196 598.877 245.891 601.08 242.919C603.284 239.895 605.795 237.23 608.613 234.924C611.432 232.567 614.353 230.594 617.376 229.005C620.4 227.366 623.397 226.136 626.37 225.316C629.342 224.445 632.084 224.009 634.595 224.009C636.234 224.009 637.874 224.342 639.514 225.008C641.205 225.623 642.845 226.469 644.434 227.545C646.022 228.57 647.534 229.723 648.969 231.004C650.455 232.234 651.787 233.489 652.966 234.771C654.145 236 655.144 237.179 655.964 238.306C656.835 239.383 657.476 240.254 657.886 240.92ZM691.784 312.177C691.118 314.175 690.273 316.456 689.248 319.018C688.274 321.58 687.326 324.091 686.404 326.551C685.481 329.011 684.687 331.24 684.021 333.238C683.406 335.237 683.098 336.672 683.098 337.543C683.098 337.851 683.252 338.004 683.56 338.004C684.123 338.004 684.969 337.671 686.096 337.005C687.224 336.339 688.505 335.468 689.94 334.391C691.426 333.315 692.963 332.137 694.552 330.856C696.14 329.574 697.652 328.319 699.087 327.089C700.573 325.808 701.905 324.655 703.084 323.63C704.263 322.605 705.16 321.836 705.774 321.324C706.236 321.785 706.774 322.374 707.389 323.092C708.055 323.809 708.67 324.476 709.234 325.09C708.106 326.218 706.697 327.601 705.006 329.241C703.315 330.83 701.47 332.47 699.471 334.161C697.524 335.852 695.474 337.543 693.322 339.234C691.221 340.925 689.145 342.437 687.096 343.769C685.097 345.102 683.226 346.178 681.484 346.998C679.742 347.818 678.281 348.228 677.103 348.228C676.334 348.228 675.36 347.946 674.182 347.382C673.003 346.87 671.876 346.204 670.799 345.384C669.723 344.615 668.801 343.744 668.032 342.77C667.264 341.796 666.879 340.848 666.879 339.926C667.648 336.493 668.417 333.495 669.185 330.932C669.954 328.37 670.671 326.192 671.338 324.399C672.004 322.554 672.593 321.068 673.106 319.94C673.618 318.813 674.002 317.967 674.259 317.404C673.644 317.147 673.054 316.866 672.491 316.558C671.927 316.251 671.363 315.943 670.799 315.636C669.98 316.507 669.057 317.429 668.032 318.403C667.059 319.377 666.059 320.35 665.034 321.324C664.009 322.298 662.985 323.246 661.96 324.168C660.935 325.09 660.012 325.936 659.192 326.705L655.503 322.938C656.835 321.657 658.449 320.12 660.345 318.326C662.19 316.481 664.009 314.636 665.803 312.792C664.522 312.023 663.369 311.305 662.344 310.639C661.319 309.922 660.448 309.281 659.731 308.718C658.859 308.103 658.091 307.539 657.424 307.026C657.117 306.873 656.963 306.54 656.963 306.027C656.963 305.463 657.194 304.669 657.655 303.644C658.065 302.568 658.603 301.441 659.269 300.262C659.935 299.032 660.653 297.802 661.422 296.572C662.19 295.291 662.933 294.138 663.651 293.113C664.368 292.088 664.983 291.269 665.496 290.654C666.059 289.987 666.418 289.654 666.572 289.654C666.674 289.654 667.007 289.782 667.571 290.039C668.186 290.295 668.827 290.602 669.493 290.961C670.159 291.269 670.774 291.627 671.338 292.037C671.901 292.447 672.26 292.806 672.414 293.113C672.465 293.37 672.516 293.908 672.567 294.728C672.619 295.548 672.67 296.547 672.721 297.725C674.72 298.75 676.77 299.929 678.871 301.261C680.972 302.543 682.893 303.772 684.636 304.951C686.686 306.283 688.633 307.641 690.478 309.025C691.144 309.435 691.554 309.947 691.708 310.562C691.913 311.177 691.938 311.715 691.784 312.177ZM751.665 335.468C751.665 336.749 752.075 337.389 752.895 337.389C753.868 337.389 755.021 337.082 756.354 336.467C757.737 335.852 759.172 335.058 760.658 334.084C762.144 333.059 763.656 331.932 765.193 330.702C766.731 329.472 768.166 328.268 769.498 327.089C770.882 325.91 772.112 324.809 773.188 323.784C774.264 322.759 775.109 321.939 775.724 321.324C776.237 321.785 776.852 322.374 777.569 323.092C778.287 323.809 778.927 324.476 779.491 325.09C778.159 326.423 776.647 327.909 774.956 329.549C773.265 331.189 771.445 332.88 769.498 334.622C767.602 336.313 765.603 337.979 763.502 339.619C761.453 341.207 759.403 342.642 757.353 343.923C755.303 345.153 753.305 346.152 751.357 346.921C749.41 347.69 747.565 348.074 745.823 348.074C744.9 348.074 743.773 347.638 742.44 346.767C741.108 345.947 739.827 344.922 738.597 343.693C737.367 342.463 736.317 341.182 735.445 339.849C734.626 338.466 734.216 337.236 734.216 336.159C734.216 333.802 734.369 331.342 734.677 328.78C732.371 330.83 730.142 332.777 727.989 334.622C725.837 336.467 723.659 338.209 721.456 339.849C719.303 341.438 717.074 342.898 714.768 344.231C712.513 345.614 710.105 346.793 707.542 347.767C706.774 348.074 706.108 348.228 705.544 348.228C705.031 348.228 704.365 347.972 703.545 347.459C702.725 346.947 701.931 346.28 701.162 345.46C700.394 344.692 699.727 343.821 699.164 342.847C698.6 341.822 698.318 340.848 698.318 339.926C698.318 337.825 698.728 335.493 699.548 332.931C700.317 330.317 701.47 327.653 703.007 324.937C704.493 322.169 706.338 319.428 708.542 316.712C710.694 313.945 713.154 311.357 715.921 308.948C718.688 306.488 721.737 304.285 725.068 302.338C728.399 300.339 731.961 298.75 735.753 297.572C736.47 297.674 737.393 298.007 738.52 298.571C739.648 299.083 740.698 299.622 741.672 300.185C743.517 294.907 745.618 289.629 747.975 284.35C750.384 279.021 752.92 273.922 755.585 269.054C758.301 264.134 761.119 259.548 764.04 255.294C766.961 250.99 769.882 247.198 772.803 243.918C775.724 240.587 778.594 237.896 781.413 235.847C784.282 233.797 786.998 232.541 789.561 232.08C790.688 232.08 791.867 232.464 793.097 233.233C794.378 233.951 795.582 234.847 796.709 235.924C797.837 236.948 798.785 238.025 799.553 239.152C800.373 240.279 800.886 241.227 801.091 241.996C801.091 244.353 800.501 247.095 799.323 250.221C798.144 253.347 796.504 256.729 794.403 260.368C792.353 263.955 789.894 267.721 787.024 271.667C784.205 275.613 781.156 279.636 777.877 283.735C774.597 287.784 771.138 291.832 767.499 295.881C763.912 299.929 760.299 303.849 756.661 307.641C755.124 312.868 753.894 317.865 752.971 322.631C752.1 327.345 751.665 331.624 751.665 335.468ZM790.252 241.381C789.381 241.381 788.305 242.022 787.024 243.303C785.794 244.584 784.385 246.378 782.796 248.684C781.259 250.938 779.619 253.629 777.877 256.755C776.134 259.881 774.366 263.289 772.573 266.978C770.779 270.668 768.986 274.588 767.192 278.739C765.398 282.89 763.707 287.092 762.119 291.345C765.962 286.631 769.601 281.916 773.034 277.202C776.519 272.436 779.568 267.926 782.181 263.673C784.795 259.42 786.87 255.525 788.408 251.989C789.945 248.453 790.714 245.532 790.714 243.226C790.714 242.919 790.688 242.534 790.637 242.073C790.637 241.612 790.509 241.381 790.252 241.381ZM717.305 332.854C718.996 332.854 721.507 331.675 724.838 329.318C728.169 326.91 731.935 323.707 736.137 319.71C736.599 317.352 737.162 314.97 737.828 312.561C738.495 310.101 739.238 307.616 740.058 305.105C737.085 307.103 734.164 309.384 731.295 311.946C728.476 314.508 725.965 317.045 723.762 319.556C721.558 322.067 719.764 324.424 718.381 326.628C717.048 328.78 716.382 330.42 716.382 331.547C716.382 332.419 716.69 332.854 717.305 332.854ZM780.798 348.228C780.029 348.228 779.055 347.946 777.877 347.382C776.698 346.87 775.571 346.204 774.494 345.384C773.418 344.615 772.496 343.744 771.727 342.77C770.959 341.796 770.574 340.848 770.574 339.926C771.087 337.671 771.778 335.083 772.65 332.162C773.521 329.241 774.469 326.269 775.494 323.246C776.467 320.222 777.518 317.276 778.645 314.406C779.721 311.485 780.695 308.897 781.566 306.642C782.489 304.387 783.283 302.568 783.949 301.185C784.615 299.801 785.051 299.109 785.256 299.109C785.563 299.109 786.332 299.442 787.562 300.108C788.792 300.775 790.073 301.594 791.405 302.568C792.789 303.491 794.019 304.49 795.095 305.566C796.171 306.591 796.709 307.488 796.709 308.256C796.709 308.41 796.684 308.615 796.632 308.871C796.581 309.076 796.504 309.358 796.402 309.717C795.992 310.998 795.454 312.51 794.788 314.252C794.173 315.994 793.506 317.814 792.789 319.71C792.072 321.555 791.354 323.425 790.637 325.321C789.919 327.166 789.279 328.908 788.715 330.548C788.151 332.188 787.69 333.623 787.331 334.853C786.973 336.083 786.793 336.979 786.793 337.543C786.793 337.851 786.947 338.004 787.255 338.004C787.818 338.004 788.664 337.671 789.791 337.005C790.919 336.339 792.2 335.468 793.635 334.391C795.121 333.315 796.658 332.137 798.247 330.856C799.835 329.574 801.347 328.319 802.782 327.089C804.268 325.808 805.6 324.655 806.779 323.63C807.958 322.605 808.854 321.836 809.469 321.324C809.931 321.785 810.469 322.374 811.084 323.092C811.75 323.809 812.365 324.476 812.928 325.09C811.801 326.218 810.392 327.601 808.701 329.241C807.01 330.83 805.165 332.47 803.166 334.161C801.219 335.852 799.169 337.543 797.017 339.234C794.916 340.925 792.866 342.437 790.867 343.769C788.869 345.102 786.998 346.178 785.256 346.998C783.514 347.818 782.028 348.228 780.798 348.228ZM811.237 275.664C811.186 275.869 810.981 276.382 810.622 277.202C810.315 277.97 809.931 278.893 809.469 279.969C809.008 280.994 808.47 282.096 807.855 283.274C807.291 284.402 806.728 285.452 806.164 286.426C805.6 287.4 805.062 288.219 804.55 288.886C804.037 289.501 803.627 289.808 803.32 289.808C802.398 289.757 801.27 289.475 799.938 288.962C798.657 288.45 797.401 287.886 796.171 287.271C794.993 286.605 793.968 285.965 793.097 285.35C792.277 284.735 791.867 284.299 791.867 284.043C791.867 282.967 792.174 281.583 792.789 279.892C793.404 278.15 794.121 276.484 794.941 274.896C795.761 273.256 796.581 271.847 797.401 270.668C798.272 269.489 798.938 268.9 799.4 268.9C800.322 268.9 801.45 269.207 802.782 269.822C804.114 270.386 805.395 271.052 806.625 271.821C807.906 272.59 808.983 273.358 809.854 274.127C810.776 274.844 811.237 275.357 811.237 275.664ZM830.454 306.873C829.839 308.513 829.224 310.178 828.609 311.869C827.995 313.56 827.38 315.303 826.765 317.096C829.993 313.407 832.76 310.409 835.066 308.103C837.424 305.745 839.397 303.901 840.985 302.568C842.625 301.236 843.932 300.339 844.906 299.878C845.93 299.365 846.725 299.109 847.288 299.109C847.955 299.109 848.954 299.442 850.286 300.108C851.619 300.775 852.951 301.594 854.283 302.568C855.667 303.542 856.846 304.541 857.819 305.566C858.844 306.591 859.357 307.488 859.357 308.256C859.357 308.41 859.331 308.615 859.28 308.871C859.229 309.076 859.152 309.358 859.049 309.717C858.639 310.998 858.101 312.51 857.435 314.252C856.82 315.994 856.154 317.814 855.436 319.71C854.719 321.555 854.002 323.425 853.284 325.321C852.567 327.166 851.926 328.908 851.362 330.548C850.799 332.188 850.338 333.623 849.979 334.853C849.62 336.083 849.441 336.979 849.441 337.543C849.441 337.851 849.594 338.004 849.902 338.004C850.466 338.004 851.311 337.671 852.439 337.005C853.566 336.339 854.847 335.468 856.282 334.391C857.768 333.315 859.305 332.137 860.894 330.856C862.483 329.574 863.994 328.319 865.429 327.089C866.915 325.808 868.248 324.655 869.426 323.63C870.605 322.605 871.502 321.836 872.117 321.324C872.629 321.785 873.193 322.374 873.808 323.092C874.423 323.809 875.012 324.476 875.576 325.09C874.448 326.218 873.039 327.601 871.348 329.241C869.657 330.83 867.812 332.47 865.814 334.161C863.866 335.852 861.816 337.543 859.664 339.234C857.563 340.925 855.513 342.437 853.515 343.769C851.516 345.102 849.646 346.178 847.903 346.998C846.161 347.818 844.701 348.228 843.522 348.228C842.753 348.228 841.78 347.946 840.601 347.382C839.422 346.87 838.269 346.204 837.142 345.384C836.066 344.615 835.143 343.744 834.375 342.77C833.606 341.796 833.222 340.848 833.222 339.926C833.683 337.825 834.298 335.442 835.066 332.777C835.886 330.113 836.758 327.397 837.68 324.629C838.602 321.811 839.55 319.044 840.524 316.328C841.549 313.56 842.523 311.024 843.445 308.718L843.291 308.871C842.318 310.05 840.908 311.613 839.064 313.56C837.27 315.456 835.22 317.916 832.914 320.94C830.608 323.912 828.174 327.525 825.612 331.778C823.049 335.98 820.538 340.977 818.079 346.767C817.771 347.485 817.489 348.048 817.233 348.458C816.977 348.868 816.49 349.073 815.773 349.073C814.901 349.073 813.902 348.817 812.775 348.305C811.699 347.843 810.597 347.203 809.469 346.383C808.291 345.614 807.138 344.743 806.01 343.769C804.832 342.796 803.781 341.822 802.859 340.848C802.859 340.541 803.012 339.67 803.32 338.235C803.576 336.8 803.96 335.006 804.473 332.854C804.985 330.651 805.626 328.165 806.395 325.398C807.163 322.579 808.034 319.633 809.008 316.558C809.982 313.483 811.058 310.357 812.237 307.18C813.364 303.952 814.594 300.851 815.926 297.879C818.079 298.904 820.461 300.16 823.075 301.646C825.74 303.132 828.2 304.874 830.454 306.873ZM915.317 337.236C915.317 337.543 915.47 337.697 915.778 337.697C916.239 337.697 917.008 337.364 918.084 336.698C919.16 336.031 920.39 335.186 921.774 334.161C923.157 333.136 924.618 331.983 926.155 330.702C927.744 329.421 929.255 328.165 930.69 326.935C932.125 325.705 933.406 324.578 934.534 323.553C935.712 322.528 936.609 321.734 937.224 321.17C937.685 321.631 938.249 322.246 938.915 323.015C939.633 323.784 940.273 324.476 940.837 325.09C939.607 326.218 938.121 327.601 936.379 329.241C934.687 330.83 932.843 332.495 930.844 334.238C928.897 335.98 926.873 337.722 924.771 339.465C922.67 341.156 920.621 342.668 918.622 344C916.623 345.332 914.727 346.409 912.934 347.228C911.14 348.1 909.577 348.535 908.245 348.535C907.322 348.535 906.297 348.356 905.17 347.997C904.094 347.638 903.095 347.126 902.172 346.46C901.25 345.845 900.481 345.102 899.866 344.231C899.251 343.359 898.944 342.386 898.944 341.31C898.944 340.9 898.918 340.413 898.867 339.849C898.867 339.234 898.918 338.466 899.021 337.543C899.123 336.569 899.328 335.416 899.636 334.084C899.943 332.7 900.404 331.009 901.019 329.011C899.328 330.804 897.33 332.675 895.024 334.622C892.769 336.569 890.386 338.414 887.875 340.157C885.364 341.899 882.827 343.462 880.265 344.846C877.754 346.28 875.422 347.357 873.27 348.074C873.014 348.176 872.809 348.228 872.655 348.228C872.501 348.228 872.347 348.228 872.194 348.228C871.681 348.228 871.015 347.972 870.195 347.459C869.324 346.947 868.478 346.255 867.658 345.384C866.839 344.564 866.147 343.616 865.583 342.54C864.968 341.463 864.661 340.387 864.661 339.311C864.661 339.004 864.814 337.979 865.122 336.236C865.429 334.494 866.172 332.29 867.351 329.626C868.478 326.91 870.17 323.886 872.424 320.555C874.679 317.173 877.754 313.714 881.648 310.178C883.647 308.384 885.799 306.693 888.105 305.105C890.053 303.772 892.282 302.414 894.793 301.031C897.304 299.647 899.943 298.545 902.71 297.725C902.813 297.725 902.89 297.7 902.941 297.649C903.043 297.597 903.172 297.623 903.325 297.725C903.94 297.93 904.658 298.264 905.478 298.725C906.349 299.135 907.194 299.596 908.014 300.108C908.885 300.57 909.628 301.056 910.243 301.569C910.91 302.03 911.345 302.414 911.55 302.722C911.601 302.824 911.601 302.901 911.55 302.952L911.396 303.106C909.09 304.336 906.912 305.72 904.863 307.257C902.813 308.743 900.994 310.152 899.405 311.485C897.56 313.073 895.843 314.636 894.255 316.174C890.514 319.863 887.926 323.066 886.491 325.782C885.056 328.447 884.339 330.369 884.339 331.547C884.339 332.419 884.698 332.854 885.415 332.854C886.132 332.854 887.029 332.572 888.105 332.009C889.233 331.394 890.488 330.599 891.872 329.626C893.256 328.601 894.767 327.422 896.407 326.09C898.098 324.706 899.841 323.271 901.634 321.785C903.223 320.504 904.76 319.12 906.246 317.634C907.527 316.404 908.86 314.995 910.243 313.407C911.627 311.818 912.806 310.204 913.779 308.564C913.779 308.513 913.805 308.461 913.856 308.41C913.907 308.359 913.984 308.359 914.087 308.41C914.65 308.82 915.291 309.512 916.008 310.486C916.726 311.408 917.392 312.433 918.007 313.56C918.622 314.688 919.134 315.789 919.544 316.866C920.006 317.89 920.236 318.685 920.236 319.248C919.058 321.657 918.135 323.861 917.469 325.859C916.854 327.806 916.367 329.523 916.008 331.009C915.701 332.495 915.496 333.777 915.394 334.853C915.342 335.878 915.317 336.672 915.317 337.236ZM971.892 312.177C971.225 314.175 970.38 316.456 969.355 319.018C968.381 321.58 967.433 324.091 966.511 326.551C965.588 329.011 964.794 331.24 964.128 333.238C963.513 335.237 963.205 336.672 963.205 337.543C963.205 337.851 963.359 338.004 963.667 338.004C964.23 338.004 965.076 337.671 966.203 337.005C967.331 336.339 968.612 335.468 970.047 334.391C971.533 333.315 973.07 332.137 974.659 330.856C976.247 329.574 977.759 328.319 979.194 327.089C980.68 325.808 982.012 324.655 983.191 323.63C984.37 322.605 985.267 321.836 985.882 321.324C986.343 321.785 986.881 322.374 987.496 323.092C988.162 323.809 988.777 324.476 989.341 325.09C988.213 326.218 986.804 327.601 985.113 329.241C983.422 330.83 981.577 332.47 979.578 334.161C977.631 335.852 975.581 337.543 973.429 339.234C971.328 340.925 969.252 342.437 967.203 343.769C965.204 345.102 963.334 346.178 961.591 346.998C959.849 347.818 958.388 348.228 957.21 348.228C956.441 348.228 955.467 347.946 954.289 347.382C953.11 346.87 951.983 346.204 950.907 345.384C949.83 344.615 948.908 343.744 948.139 342.77C947.371 341.796 946.986 340.848 946.986 339.926C947.755 336.493 948.524 333.495 949.292 330.932C950.061 328.37 950.778 326.192 951.445 324.399C952.111 322.554 952.7 321.068 953.213 319.94C953.725 318.813 954.109 317.967 954.366 317.404C953.751 317.147 953.161 316.866 952.598 316.558C952.034 316.251 951.47 315.943 950.907 315.636C950.087 316.507 949.164 317.429 948.139 318.403C947.166 319.377 946.166 320.35 945.141 321.324C944.117 322.298 943.092 323.246 942.067 324.168C941.042 325.09 940.119 325.936 939.299 326.705L935.61 322.938C936.942 321.657 938.556 320.12 940.453 318.326C942.297 316.481 944.117 314.636 945.91 312.792C944.629 312.023 943.476 311.305 942.451 310.639C941.426 309.922 940.555 309.281 939.838 308.718C938.966 308.103 938.198 307.539 937.532 307.026C937.224 306.873 937.07 306.54 937.07 306.027C937.07 305.463 937.301 304.669 937.762 303.644C938.172 302.568 938.71 301.441 939.376 300.262C940.043 299.032 940.76 297.802 941.529 296.572C942.297 295.291 943.04 294.138 943.758 293.113C944.475 292.088 945.09 291.269 945.603 290.654C946.166 289.987 946.525 289.654 946.679 289.654C946.781 289.654 947.114 289.782 947.678 290.039C948.293 290.295 948.934 290.602 949.6 290.961C950.266 291.269 950.881 291.627 951.445 292.037C952.008 292.447 952.367 292.806 952.521 293.113C952.572 293.37 952.623 293.908 952.675 294.728C952.726 295.548 952.777 296.547 952.828 297.725C954.827 298.75 956.877 299.929 958.978 301.261C961.079 302.543 963 303.772 964.743 304.951C966.793 306.283 968.74 307.641 970.585 309.025C971.251 309.435 971.661 309.947 971.815 310.562C972.02 311.177 972.045 311.715 971.892 312.177ZM1051.3 324.937C1046.68 329.088 1041.94 333.008 1037.08 336.698C1032.21 340.387 1027.34 343.949 1022.47 347.382C1021.75 349.534 1020.93 351.815 1020.01 354.223C1019.09 356.632 1017.96 359.374 1016.63 362.448C1015.14 365.831 1013.45 369.136 1011.56 372.364C1009.66 375.593 1007.64 378.616 1005.48 381.435C1003.38 384.304 1001.2 386.918 998.949 389.275C996.694 391.633 994.465 393.657 992.262 395.348C990.109 397.09 988.034 398.423 986.035 399.345C983.985 400.319 982.115 400.805 980.424 400.805C979.604 400.805 978.605 400.498 977.426 399.883C976.247 399.268 975.12 398.474 974.044 397.5C972.968 396.578 972.071 395.578 971.353 394.502C970.585 393.426 970.2 392.427 970.2 391.504C970.2 388.276 971.072 385.099 972.814 381.973C974.556 378.898 976.965 375.798 980.04 372.672C983.063 369.546 986.625 366.369 990.724 363.14C994.875 359.963 999.333 356.683 1004.1 353.301C1005.59 349.355 1007.02 345.256 1008.4 341.002C1009.84 336.698 1011.22 332.444 1012.55 328.242C1010.35 331.061 1008.22 333.52 1006.17 335.621C1004.12 337.722 1002.23 339.516 1000.49 341.002C998.744 342.437 997.232 343.59 995.951 344.461C994.67 345.384 993.696 346.075 993.03 346.537C992.62 346.793 992.133 346.972 991.57 347.075C991.006 347.228 990.494 347.305 990.032 347.305C989.059 347.305 987.983 346.998 986.804 346.383C985.625 345.819 984.549 345.076 983.576 344.154C982.551 343.283 981.705 342.309 981.039 341.233C980.321 340.157 979.963 339.132 979.963 338.158C979.963 337.031 980.347 335.237 981.116 332.777C981.833 330.266 982.832 327.243 984.114 323.707C985.343 320.171 986.804 316.199 988.495 311.792C990.186 307.385 992.005 302.696 993.953 297.725C994.055 297.469 994.132 297.367 994.183 297.418C994.286 297.418 994.44 297.418 994.645 297.418C995.618 297.572 996.951 297.982 998.642 298.648C1000.33 299.263 1001.97 299.955 1003.56 300.723C1005.2 301.492 1006.61 302.235 1007.79 302.952C1008.97 303.619 1009.56 304.08 1009.56 304.336C1009.4 304.695 1008.99 305.54 1008.33 306.873C1007.71 308.205 1006.97 309.819 1006.1 311.715C1005.28 313.56 1004.38 315.584 1003.41 317.788C1002.49 319.94 1001.61 322.016 1000.79 324.014C1000.03 326.013 999.385 327.832 998.872 329.472C998.36 331.061 998.104 332.239 998.104 333.008C998.104 333.213 998.206 333.315 998.411 333.315C998.77 333.315 999.538 332.854 1000.72 331.932C1001.95 331.009 1003.46 329.549 1005.25 327.55C1007.05 325.552 1009.07 323.015 1011.32 319.94C1013.58 316.814 1015.96 313.073 1018.47 308.718C1019.5 305.335 1020.34 302.645 1021.01 300.646C1021.68 298.597 1022.11 297.572 1022.32 297.572C1022.62 297.572 1023.42 297.956 1024.7 298.725C1025.98 299.493 1027.34 300.416 1028.77 301.492C1030.21 302.517 1031.49 303.567 1032.62 304.644C1033.74 305.668 1034.31 306.463 1034.31 307.026C1034.31 307.283 1034.28 307.513 1034.23 307.718C1034.18 307.923 1034.1 308.154 1034 308.41C1032.82 311.997 1031.8 315.251 1030.93 318.172C1030.06 321.042 1029.26 323.681 1028.54 326.09C1027.88 328.498 1027.26 330.727 1026.7 332.777C1026.19 334.776 1025.67 336.723 1025.16 338.619C1029 335.852 1032.82 333.033 1036.61 330.164C1040.41 327.243 1044.15 324.194 1047.84 321.016L1051.3 324.937ZM979.963 392.35C980.885 392.35 982.166 391.453 983.806 389.66C985.446 387.917 987.214 385.662 989.11 382.895C991.006 380.128 992.902 377.028 994.798 373.594C996.746 370.212 998.462 366.881 999.948 363.601C998.001 365.241 995.823 367.035 993.415 368.982C991.006 370.929 988.751 373.056 986.65 375.362C984.549 377.668 982.781 380.128 981.346 382.741C979.911 385.406 979.194 388.225 979.194 391.197C979.194 391.966 979.45 392.35 979.963 392.35Z" fill="white"/>
</svg>
