<svg width="1390" height="402" viewBox="0 0 1390 402" fill="none" xmlns="http://www.w3.org/2000/svg">
<path d="M41.6203 198.176C39.9804 196.536 38.4431 194.973 37.0082 193.487C35.6246 192 34.2409 190.54 32.8573 189.105C31.4737 187.67 30.0388 186.21 28.5527 184.724C27.1178 183.237 25.5805 181.675 23.9406 180.035C26.0929 173.68 28.399 167.275 30.8587 160.818C33.3185 154.412 36.0601 147.673 39.0836 140.601C42.1071 133.529 45.4893 126.022 49.2302 118.079C52.9711 110.136 57.2245 101.45 61.9903 92.0208C59.633 95.5054 57.4295 98.5545 55.3796 101.168C53.3811 103.782 51.6387 105.985 50.1526 107.779C48.4103 109.829 46.7704 111.622 45.2331 113.159C41.3384 116.9 37.8537 120.129 34.779 122.845C31.7555 125.561 29.0395 127.79 26.631 129.532C24.2737 131.326 22.1983 132.658 20.4047 133.529C18.6111 134.401 17.0225 134.836 15.6389 134.836C14.5627 134.836 13.4097 134.452 12.1798 133.683C11.0012 132.966 9.82252 132.043 8.64388 130.916C7.51648 129.84 6.44033 128.687 5.41542 127.457C4.39052 126.227 3.49372 125.125 2.72504 124.152C1.44391 122.512 0.726473 120.385 0.572737 117.772C0.419001 115.158 0.342133 111.93 0.342133 108.086C0.342133 102.193 0.828964 96.0179 1.80263 89.561C2.82753 83.1041 4.2624 76.6215 6.10724 70.1134C7.95207 63.554 10.1812 57.0458 12.7948 50.5889C15.4083 44.0807 18.3293 37.8544 21.5577 31.9099C24.7862 25.9142 28.2709 20.3029 32.0118 15.0758C35.7527 9.84882 39.6729 5.15987 43.7726 1.009C44.8487 2.1364 46.0786 3.44315 47.4622 4.92927C48.8459 6.36414 50.2295 7.85025 51.6131 9.38761C53.048 10.925 54.406 12.4623 55.6871 13.9997C57.0195 15.4858 58.1469 16.7926 59.0693 17.92C54.7135 21.8659 50.6138 26.3242 46.7704 31.295C42.9783 36.2146 39.4936 41.4928 36.3164 47.1298C33.1392 52.7156 30.295 58.5575 27.784 64.6557C25.273 70.7027 23.1463 76.8521 21.404 83.1041C19.7129 89.3047 18.3805 95.5054 17.4068 101.706C16.4844 107.907 15.9976 113.903 15.9463 119.693C21.6346 116.824 26.8616 113.339 31.6274 109.239C36.3932 105.14 40.7491 100.681 44.695 95.8642C48.6921 90.9958 52.3049 85.8969 55.5334 80.5674C58.8131 75.2379 61.7597 69.8571 64.3732 64.4251C67.038 58.9931 69.3953 53.638 71.4451 48.3597C73.5461 43.0814 75.4422 38.1106 77.1333 33.4473C78.8244 28.784 80.3105 24.5306 81.5916 20.6872C82.924 16.8438 84.1283 13.641 85.2044 11.0787C85.7169 11.8474 86.4087 12.7954 87.2799 13.9228C88.1511 15.0502 89.0735 16.2801 90.0471 17.6125C91.072 18.8936 92.0969 20.2004 93.1219 21.5328C94.198 22.8651 95.1717 24.1207 96.0428 25.2993C96.9653 26.4267 97.7596 27.426 98.4257 28.2971C99.0919 29.1171 99.5275 29.6808 99.7325 29.9882C97.0165 36.4452 94.3261 42.9021 91.6614 49.359C89.0478 55.7647 86.3575 62.5547 83.5902 69.729C80.823 76.8521 77.9532 84.5646 74.981 92.8663C72.0088 101.168 68.8059 110.469 65.3725 120.769C61.9903 131.07 58.3263 142.574 54.3804 155.283C50.4857 167.992 46.2324 182.289 41.6203 198.176ZM101.424 113.159C101.424 114.697 101.987 115.466 103.115 115.466C104.293 115.466 105.856 114.543 107.804 112.698C109.751 110.802 111.775 108.419 113.876 105.55C113.774 104.986 113.697 104.499 113.646 104.089C113.646 103.628 113.646 103.218 113.646 102.859C113.646 101.834 113.748 100.63 113.953 99.2463C114.209 97.8115 114.799 96.1972 115.721 94.4037C116.336 93.02 117.079 91.662 117.95 90.3297C118.668 89.151 119.539 87.8955 120.564 86.5631C121.589 85.1795 122.716 83.8984 123.946 82.7197L124.407 82.2585C124.92 82.8735 125.586 83.719 126.406 84.7952C127.277 85.8201 128.122 86.8962 128.942 88.0236C129.814 89.0998 130.557 90.099 131.172 91.0215C131.838 91.9439 132.248 92.5844 132.401 92.9432C132.401 95.1467 131.991 97.3503 131.172 99.5538C130.403 101.757 129.352 103.935 128.02 106.088C131.095 105.883 133.939 105.114 136.552 103.782C139.217 102.398 141.984 100.169 144.854 97.094C145.315 97.5552 145.905 98.1958 146.622 99.0157C147.391 99.7844 148.006 100.451 148.467 101.014C146.315 103.269 144.188 105.14 142.087 106.626C140.037 108.112 137.962 109.29 135.86 110.162C133.811 111.033 131.71 111.673 129.557 112.083C127.405 112.442 125.201 112.621 122.947 112.621C121.204 114.466 119.334 116.157 117.335 117.695C115.337 119.232 113.287 120.564 111.186 121.692C109.136 122.819 107.086 123.69 105.036 124.305C102.987 124.92 101.039 125.228 99.1944 125.228C97.6571 125.228 96.0685 124.767 94.4286 123.844C92.7888 122.922 91.3026 121.794 89.9703 120.462C88.6379 119.078 87.5361 117.618 86.6649 116.08C85.7938 114.543 85.3582 113.185 85.3582 112.006C85.3582 108.112 85.8963 104.243 86.9724 100.399C87.9973 96.556 89.6372 92.9688 91.892 89.6378C94.0955 86.2556 96.914 83.2834 100.347 80.7211C103.832 78.1589 107.957 76.2116 112.723 74.8792C112.877 74.7767 113.133 74.6998 113.492 74.6486C113.902 74.5973 114.235 74.5717 114.491 74.5717C115.209 74.5717 115.952 74.8536 116.72 75.4173C117.54 75.9297 118.283 76.519 118.95 77.1852C119.667 77.8514 120.256 78.5176 120.717 79.1838C121.179 79.7987 121.409 80.2087 121.409 80.4137C121.307 80.6699 120.922 81.003 120.256 81.413C119.59 81.7717 118.693 82.4122 117.566 83.3347C116.438 84.2571 115.106 85.5895 113.569 87.3318C112.031 89.0229 110.34 91.2777 108.495 94.0962C105.728 98.2471 103.858 102.014 102.884 105.396C101.91 108.727 101.424 111.315 101.424 113.159ZM183.903 114.236C183.903 114.543 184.057 114.697 184.364 114.697C184.928 114.697 185.773 114.364 186.901 113.698C188.079 113.031 189.412 112.186 190.898 111.161C192.384 110.136 193.947 108.983 195.587 107.702C197.227 106.421 198.79 105.191 200.276 104.012C201.762 102.782 203.094 101.655 204.273 100.63C205.503 99.6051 206.425 98.8364 207.04 98.3239C207.501 98.7851 208.04 99.3745 208.655 100.092C209.321 100.809 209.936 101.476 210.499 102.09C209.372 103.218 207.937 104.576 206.195 106.164C204.504 107.753 202.633 109.419 200.583 111.161C198.585 112.852 196.484 114.543 194.28 116.234C192.128 117.874 190.027 119.36 187.977 120.693C185.927 121.974 184.005 123.024 182.212 123.844C180.418 124.664 178.932 125.074 177.754 125.074C176.882 125.074 175.909 124.792 174.833 124.228C173.756 123.716 172.732 123.024 171.758 122.153C170.835 121.333 170.041 120.411 169.375 119.386C168.76 118.361 168.453 117.387 168.453 116.465C168.453 115.645 168.76 114.082 169.375 111.776C169.99 109.47 170.733 106.779 171.604 103.705C169.298 106.831 167.043 109.598 164.84 112.006C162.636 114.364 160.612 116.388 158.767 118.079C156.922 119.77 155.308 121.128 153.924 122.153C152.541 123.229 151.516 123.998 150.85 124.459C150.44 124.715 149.953 124.895 149.389 124.997C148.826 125.151 148.313 125.228 147.852 125.228C146.878 125.228 145.802 124.92 144.623 124.305C143.445 123.742 142.369 123.024 141.395 122.153C140.37 121.282 139.525 120.308 138.858 119.232C138.141 118.156 137.782 117.131 137.782 116.157C137.782 115.03 138.167 113.159 138.935 110.546C139.653 107.932 140.652 104.806 141.933 101.168C143.163 97.5296 144.623 93.4556 146.315 88.946C148.006 84.4364 149.825 79.6962 151.772 74.7254C151.875 74.4692 151.952 74.3667 152.003 74.418C152.105 74.418 152.259 74.418 152.464 74.418C153.438 74.5717 154.77 74.9817 156.461 75.6479C158.152 76.2628 159.792 76.9546 161.381 77.7233C163.021 78.492 164.43 79.235 165.608 79.9525C166.787 80.6187 167.376 81.0799 167.376 81.3361C167.223 81.6948 166.813 82.5404 166.146 83.8727C165.532 85.2051 164.788 86.8193 163.917 88.7154C163.097 90.5603 162.201 92.5844 161.227 94.788C160.305 96.9403 159.433 99.0157 158.613 101.014C157.845 103.013 157.204 104.832 156.692 106.472C156.179 108.061 155.923 109.239 155.923 110.008C155.923 110.213 156.026 110.315 156.231 110.315C156.64 110.315 157.537 109.777 158.921 108.701C160.305 107.574 161.996 105.831 163.994 103.474C166.044 101.117 168.35 98.0933 170.912 94.4037C173.475 90.6627 176.139 86.1788 178.907 80.9518L181.059 74.8792C181.213 74.4692 181.546 74.2642 182.058 74.2642C182.417 74.2642 183.186 74.623 184.364 75.3404C185.594 76.0066 186.875 76.8009 188.208 77.7233C189.591 78.5945 190.821 79.4913 191.897 80.4137C192.973 81.2848 193.563 81.8998 193.665 82.2585C193.665 82.4122 193.64 82.6941 193.588 83.1041C193.537 83.4628 193.46 83.7702 193.358 84.0265C192.845 85.4101 192.256 87.05 191.59 88.946C190.924 90.7909 190.232 92.7382 189.514 94.788C188.848 96.7866 188.182 98.8108 187.516 100.861C186.85 102.91 186.235 104.832 185.671 106.626C185.159 108.368 184.723 109.931 184.364 111.315C184.057 112.647 183.903 113.621 183.903 114.236ZM241.785 89.1766C241.118 91.1752 240.273 93.4556 239.248 96.0179C238.274 98.5802 237.326 101.091 236.404 103.551C235.481 106.011 234.687 108.24 234.021 110.238C233.406 112.237 233.099 113.672 233.099 114.543C233.099 114.851 233.252 115.004 233.56 115.004C234.123 115.004 234.969 114.671 236.096 114.005C237.224 113.339 238.505 112.468 239.94 111.391C241.426 110.315 242.963 109.137 244.552 107.856C246.14 106.574 247.652 105.319 249.087 104.089C250.573 102.808 251.906 101.655 253.084 100.63C254.263 99.6051 255.16 98.8364 255.775 98.3239C256.236 98.7851 256.774 99.3745 257.389 100.092C258.055 100.809 258.67 101.476 259.234 102.09C258.106 103.218 256.697 104.601 255.006 106.241C253.315 107.83 251.47 109.47 249.471 111.161C247.524 112.852 245.474 114.543 243.322 116.234C241.221 117.925 239.145 119.437 237.096 120.769C235.097 122.102 233.227 123.178 231.484 123.998C229.742 124.818 228.281 125.228 227.103 125.228C226.334 125.228 225.36 124.946 224.182 124.382C223.003 123.87 221.876 123.204 220.8 122.384C219.723 121.615 218.801 120.744 218.032 119.77C217.264 118.796 216.879 117.848 216.879 116.926C217.648 113.493 218.417 110.495 219.185 107.932C219.954 105.37 220.672 103.192 221.338 101.399C222.004 99.5538 222.593 98.0677 223.106 96.9403C223.618 95.8129 224.002 94.9674 224.259 94.4037C223.644 94.1474 223.054 93.8656 222.491 93.5581C221.927 93.2506 221.363 92.9432 220.8 92.6357C219.98 93.5069 219.057 94.4293 218.032 95.4029C217.059 96.3766 216.059 97.3503 215.035 98.3239C214.01 99.2976 212.985 100.246 211.96 101.168C210.935 102.09 210.013 102.936 209.193 103.705L205.503 99.9382C206.835 98.657 208.45 97.1197 210.346 95.3261C212.19 93.4812 214.01 91.6364 215.803 89.7916C214.522 89.0229 213.369 88.3055 212.344 87.6393C211.319 86.9218 210.448 86.2813 209.731 85.7176C208.859 85.1026 208.091 84.5389 207.425 84.0265C207.117 83.8727 206.963 83.5396 206.963 83.0272C206.963 82.4635 207.194 81.6692 207.655 80.6443C208.065 79.5681 208.603 78.4407 209.269 77.2621C209.936 76.0322 210.653 74.8023 211.422 73.5724C212.19 72.2913 212.933 71.1383 213.651 70.1134C214.368 69.0885 214.983 68.2685 215.496 67.6536C216.059 66.9874 216.418 66.6543 216.572 66.6543C216.674 66.6543 217.007 66.7824 217.571 67.0386C218.186 67.2949 218.827 67.6023 219.493 67.9611C220.159 68.2685 220.774 68.6272 221.338 69.0372C221.901 69.4472 222.26 69.8059 222.414 70.1134C222.465 70.3696 222.516 70.9077 222.568 71.7276C222.619 72.5475 222.67 73.5468 222.721 74.7254C224.72 75.7504 226.77 76.929 228.871 78.2614C230.972 79.5425 232.894 80.7724 234.636 81.951C236.686 83.2834 238.633 84.6414 240.478 86.025C241.144 86.435 241.554 86.9475 241.708 87.5624C241.913 88.1773 241.938 88.7154 241.785 89.1766ZM381.531 14.6146C381.787 15.1783 382.018 15.9214 382.223 16.8438C382.428 17.715 382.53 18.7911 382.53 20.0723C382.53 23.2495 382.069 26.811 381.146 30.7569C380.224 34.6516 378.943 38.8281 377.303 43.2864C375.663 47.6935 373.665 52.28 371.307 57.0458C368.95 61.8116 366.362 66.6287 363.544 71.497C360.725 76.3653 357.676 81.208 354.396 86.025C351.117 90.7909 347.709 95.4029 344.173 99.8613C346.376 102.526 348.708 105.011 351.168 107.317C353.679 109.624 356.318 111.673 359.085 113.467C357.394 114.748 355.806 115.747 354.319 116.465C352.321 115.594 350.015 114.236 347.401 112.391C344.839 110.546 342.174 108.291 339.407 105.626C333.411 112.647 327.39 118.72 321.343 123.844C315.347 128.969 309.403 132.786 303.51 135.297C302.792 135.605 301.895 135.861 300.819 136.066C299.743 136.322 298.308 136.45 296.515 136.45C295.08 136.45 293.594 135.912 292.056 134.836C290.519 133.76 289.058 132.479 287.675 130.993C286.24 129.507 284.984 127.995 283.908 126.458C282.781 124.972 281.91 123.793 281.295 122.922C280.629 121.948 280.091 120.744 279.681 119.309C279.271 117.874 279.066 116.08 279.066 113.928C279.066 111.315 279.347 108.65 279.911 105.934C280.475 103.218 281.5 100.118 282.986 96.6328C283.601 96.3766 284.703 96.0179 286.291 95.5567C287.829 95.0442 289.545 94.5318 291.441 94.0193C293.286 93.5069 295.131 93.02 296.976 92.5588C298.821 92.0976 300.358 91.7645 301.588 91.5595C300.051 93.8656 298.616 96.0948 297.283 98.2471C295.951 100.348 294.824 102.475 293.901 104.627C292.927 106.728 292.159 108.906 291.595 111.161C291.031 113.364 290.75 115.696 290.75 118.156C290.75 119.181 290.955 120.154 291.365 121.077C291.723 122.051 292.415 122.537 293.44 122.537C295.029 122.537 297.027 121.743 299.436 120.154C301.844 118.566 304.509 116.362 307.43 113.544C310.402 110.725 313.554 107.394 316.885 103.551C320.216 99.7076 323.623 95.5567 327.108 91.0983C325.161 88.3311 323.367 85.4101 321.727 82.3354C320.088 79.2094 318.653 75.981 317.423 72.65C316.244 69.2678 315.296 65.8088 314.579 62.2728C313.912 58.7369 313.579 55.1241 313.579 51.4344C313.579 46.0024 314.425 40.9804 316.116 36.3683C317.858 31.7562 320.139 27.5797 322.957 23.8388C325.827 20.0466 329.081 16.7157 332.72 13.846C336.409 10.9762 340.201 8.56769 344.096 6.62036C347.991 4.67304 351.834 3.21255 355.626 2.23889C359.47 1.21398 362.98 0.701525 366.157 0.701525C367.899 0.701525 369.206 1.03462 370.077 1.70081C370.949 2.26451 371.973 3.13568 373.152 4.31432C374.331 5.44172 375.484 6.64599 376.611 7.92712C377.79 9.20825 378.815 10.4638 379.686 11.6937C380.608 12.8723 381.223 13.846 381.531 14.6146ZM327.108 59.7362C327.108 63.1696 327.646 66.8593 328.722 70.8052C329.799 74.7511 331.31 78.7482 333.258 82.7966C336.332 78.5432 339.33 74.1874 342.251 69.729C345.223 65.2194 348.016 60.7355 350.63 56.2771C353.295 51.8188 355.729 47.4373 357.932 43.1327C360.187 38.8281 362.109 34.7541 363.697 30.9107C365.337 27.016 366.593 23.4288 367.464 20.1491C368.386 16.8182 368.847 13.9228 368.847 11.4631C368.847 10.7969 368.719 10.3869 368.463 10.2332C368.207 10.0794 367.848 10.0026 367.387 10.0026C366.67 10.0026 365.158 10.4381 362.852 11.3093C360.597 12.1292 357.983 13.436 355.011 15.2296C352.039 16.9719 348.913 19.2011 345.633 21.9171C342.354 24.5819 339.33 27.7591 336.563 31.4487C333.847 35.1384 331.592 39.3405 329.799 44.0551C328.005 48.7697 327.108 53.9967 327.108 59.7362ZM390.217 83.8727C389.602 85.4613 388.987 87.1012 388.372 88.7923C387.757 90.4834 387.168 92.2001 386.604 93.9425C389.832 90.099 392.497 87.0243 394.598 84.7183C396.751 82.4122 398.519 80.6187 399.902 79.3375C401.337 78.0564 402.516 77.1596 403.438 76.6471C404.361 76.1347 405.206 75.7504 405.975 75.4941C406.436 75.4941 407.205 75.7504 408.281 76.2628C409.408 76.7753 410.587 77.4158 411.817 78.1845C413.098 78.9019 414.302 79.6706 415.43 80.4905C416.557 81.2592 417.351 81.8998 417.812 82.4122C418.222 82.8222 418.274 83.4115 417.966 84.1802C417.351 85.8201 416.736 87.4855 416.121 89.1766C415.558 90.8165 414.994 92.5076 414.43 94.2499C417.864 90.304 420.733 87.1524 423.039 84.7952C425.345 82.3866 427.216 80.5418 428.651 79.2607C430.137 77.9795 431.29 77.134 432.11 76.724C432.93 76.314 433.57 76.1091 434.032 76.1091C434.698 76.1091 435.697 76.4422 437.029 77.1084C438.362 77.7745 439.694 78.5945 441.027 79.5681C442.41 80.5418 443.589 81.5411 444.562 82.566C445.587 83.5909 446.1 84.4877 446.1 85.2564C446.1 85.4101 446.074 85.6151 446.023 85.8713C445.972 86.0763 445.895 86.3581 445.792 86.7169C445.382 87.998 444.844 89.5097 444.178 91.2521C443.563 92.9944 442.897 94.8136 442.18 96.7097C441.462 98.5545 440.745 100.425 440.027 102.321C439.31 104.166 438.669 105.908 438.106 107.548C437.542 109.188 437.081 110.623 436.722 111.853C436.363 113.083 436.184 113.979 436.184 114.543C436.184 114.851 436.338 115.004 436.645 115.004C437.209 115.004 438.054 114.671 439.182 114.005C440.309 113.339 441.59 112.468 443.025 111.391C444.511 110.315 446.049 109.137 447.637 107.856C449.226 106.574 450.738 105.319 452.172 104.089C453.659 102.808 454.991 101.655 456.17 100.63C457.348 99.6051 458.245 98.8364 458.86 98.3239C459.321 98.7851 459.859 99.3745 460.474 100.092C461.14 100.809 461.755 101.476 462.319 102.09C461.192 103.218 459.782 104.601 458.091 106.241C456.4 107.83 454.555 109.47 452.557 111.161C450.609 112.852 448.56 114.543 446.407 116.234C444.306 117.925 442.256 119.437 440.258 120.769C438.259 122.102 436.389 123.178 434.647 123.998C432.904 124.818 431.418 125.228 430.188 125.228C429.419 125.228 428.446 124.946 427.267 124.382C426.089 123.87 424.961 123.204 423.885 122.384C422.809 121.615 421.886 120.744 421.118 119.77C420.349 118.796 419.965 117.848 419.965 116.926C420.426 114.825 421.041 112.442 421.81 109.777C422.578 107.113 423.424 104.397 424.346 101.629C425.269 98.8108 426.217 96.0435 427.19 93.3275C428.215 90.6115 429.189 88.1005 430.111 85.7944C429.086 87.0243 427.728 88.5104 426.037 90.2528C424.346 91.9951 422.425 94.3012 420.272 97.1709C418.12 99.9894 415.814 103.5 413.354 107.702C410.894 111.904 408.435 117.028 405.975 123.075C405.667 124.1 404.924 124.613 403.746 124.613C403.131 124.613 402.362 124.485 401.44 124.228C400.568 124.023 399.62 123.665 398.595 123.152C397.622 122.691 396.597 122.102 395.521 121.384C394.496 120.667 393.522 119.796 392.6 118.771C392.6 118.412 392.779 117.336 393.138 115.542C393.548 113.698 394.111 111.366 394.829 108.547C395.598 105.729 396.494 102.577 397.519 99.0926C398.544 95.6079 399.697 92.0208 400.978 88.3311C399.748 89.6635 398.211 91.3802 396.366 93.4812C394.521 95.5311 392.548 98.0421 390.447 101.014C388.346 103.935 386.194 107.343 383.99 111.238C381.787 115.132 379.711 119.54 377.764 124.459C377.457 125.535 376.739 126.073 375.612 126.073C374.741 126.073 373.767 125.817 372.691 125.305C371.563 124.843 370.436 124.203 369.309 123.383C368.13 122.614 366.977 121.743 365.85 120.769C364.671 119.796 363.62 118.822 362.698 117.848C362.698 117.541 362.852 116.67 363.159 115.235C363.415 113.8 363.8 112.006 364.312 109.854C364.825 107.651 365.465 105.165 366.234 102.398C366.951 99.5794 367.797 96.6328 368.771 93.5581C369.744 90.4834 370.82 87.3574 371.999 84.1802C373.178 80.9518 374.433 77.8514 375.766 74.8792C377.918 75.9041 380.301 77.1596 382.914 78.6457C385.579 80.1318 388.013 81.8742 390.217 83.8727ZM502.06 114.236C502.06 114.543 502.214 114.697 502.521 114.697C502.982 114.697 503.751 114.364 504.827 113.698C505.903 113.031 507.133 112.186 508.517 111.161C509.9 110.136 511.361 108.983 512.898 107.702C514.487 106.421 515.999 105.165 517.433 103.935C518.868 102.705 520.149 101.578 521.277 100.553C522.455 99.5282 523.352 98.7339 523.967 98.1702C524.428 98.6314 524.992 99.2463 525.658 100.015C526.376 100.784 527.016 101.476 527.58 102.09C526.35 103.218 524.864 104.601 523.122 106.241C521.431 107.83 519.586 109.495 517.587 111.238C515.64 112.98 513.616 114.722 511.515 116.465C509.413 118.156 507.364 119.668 505.365 121C503.367 122.332 501.47 123.409 499.677 124.228C497.883 125.1 496.32 125.535 494.988 125.535C494.066 125.535 493.041 125.356 491.913 124.997C490.837 124.638 489.838 124.126 488.915 123.46C487.993 122.845 487.224 122.102 486.609 121.231C485.994 120.359 485.687 119.386 485.687 118.31C485.687 117.9 485.661 117.413 485.61 116.849C485.61 116.234 485.661 115.466 485.764 114.543C485.866 113.569 486.071 112.416 486.379 111.084C486.686 109.7 487.147 108.009 487.762 106.011C486.071 107.804 484.073 109.675 481.767 111.622C479.512 113.569 477.129 115.414 474.618 117.157C472.107 118.899 469.57 120.462 467.008 121.846C464.497 123.28 462.165 124.357 460.013 125.074C459.757 125.176 459.552 125.228 459.398 125.228C459.244 125.228 459.091 125.228 458.937 125.228C458.424 125.228 457.758 124.972 456.938 124.459C456.067 123.947 455.222 123.255 454.402 122.384C453.582 121.564 452.89 120.616 452.326 119.54C451.711 118.463 451.404 117.387 451.404 116.311C451.404 116.004 451.557 114.979 451.865 113.236C452.172 111.494 452.915 109.29 454.094 106.626C455.222 103.91 456.913 100.886 459.167 97.5552C461.422 94.1731 464.497 90.714 468.392 87.1781C470.39 85.3845 472.542 83.6934 474.848 82.1048C476.796 80.7724 479.025 79.4144 481.536 78.0308C484.047 76.6471 486.686 75.5454 489.453 74.7254C489.556 74.7254 489.633 74.6998 489.684 74.6486C489.787 74.5973 489.915 74.623 490.068 74.7254C490.683 74.9304 491.401 75.2635 492.221 75.7247C493.092 76.1347 493.937 76.5959 494.757 77.1084C495.628 77.5696 496.372 78.0564 496.986 78.5688C497.653 79.0301 498.088 79.4144 498.293 79.7219C498.344 79.8244 498.344 79.9012 498.293 79.9525L498.14 80.1062C495.833 81.3361 493.656 82.7197 491.606 84.2571C489.556 85.7432 487.737 87.1524 486.148 88.4848C484.303 90.0734 482.587 91.6364 480.998 93.1738C477.257 96.8634 474.669 100.066 473.234 102.782C471.799 105.447 471.082 107.369 471.082 108.547C471.082 109.419 471.441 109.854 472.158 109.854C472.876 109.854 473.772 109.572 474.848 109.009C475.976 108.394 477.231 107.599 478.615 106.626C479.999 105.601 481.51 104.422 483.15 103.09C484.841 101.706 486.584 100.271 488.377 98.7851C489.966 97.504 491.503 96.1204 492.989 94.6343C494.27 93.4044 495.603 91.9951 496.986 90.4065C498.37 88.8179 499.549 87.2037 500.522 85.5638C500.522 85.5126 500.548 85.4613 500.599 85.4101C500.651 85.3589 500.727 85.3589 500.83 85.4101C501.394 85.8201 502.034 86.5119 502.752 87.4855C503.469 88.408 504.135 89.4329 504.75 90.5603C505.365 91.6877 505.878 92.7894 506.288 93.8656C506.749 94.8905 506.979 95.6848 506.979 96.2485C505.801 98.657 504.878 100.861 504.212 102.859C503.597 104.806 503.11 106.523 502.752 108.009C502.444 109.495 502.239 110.777 502.137 111.853C502.085 112.878 502.06 113.672 502.06 114.236ZM587.537 102.09C583.13 106.6 578.697 110.751 574.239 114.543C569.832 118.284 565.45 121.794 561.094 125.074C560.275 127.431 559.378 129.814 558.404 132.223C557.482 134.683 556.508 137.142 555.483 139.602C553.997 142.984 552.255 146.213 550.256 149.287C548.309 152.413 546.233 155.283 544.03 157.897C541.826 160.561 539.571 162.944 537.265 165.045C534.959 167.198 532.73 169.017 530.578 170.503C528.477 171.989 526.529 173.142 524.736 173.962C522.891 174.782 521.328 175.192 520.047 175.192C519.176 175.192 518.151 174.808 516.972 174.039C515.794 173.27 514.692 172.297 513.667 171.118C512.591 169.991 511.694 168.735 510.977 167.351C510.208 166.019 509.823 164.738 509.823 163.508C509.823 160.843 510.746 158.23 512.591 155.667C514.384 153.105 516.895 150.466 520.124 147.75C523.301 145.034 527.042 142.164 531.347 139.141C535.651 136.169 540.314 132.94 545.337 129.455C546.464 126.534 547.719 123.075 549.103 119.078C550.538 115.03 552.229 110.059 554.176 104.166C552.332 106.728 550.179 109.265 547.719 111.776C545.26 114.236 542.723 116.439 540.109 118.386C537.496 120.334 534.882 121.897 532.269 123.075C529.707 124.305 527.349 124.92 525.197 124.92C524.633 124.92 523.916 124.638 523.045 124.075C522.122 123.562 521.226 122.87 520.354 121.999C519.432 121.128 518.663 120.103 518.048 118.925C517.382 117.746 517.049 116.49 517.049 115.158C517.049 113.467 517.459 111.443 518.279 109.085C519.099 106.677 520.303 104.14 521.892 101.476C523.429 98.8108 525.3 96.0948 527.503 93.3275C529.758 90.5603 532.269 87.9724 535.036 85.5638C537.855 83.1041 540.904 80.9261 544.184 79.0301C547.514 77.0827 551.05 75.5966 554.791 74.5717C555.355 74.5717 556.149 74.8023 557.174 75.2635C558.199 75.6735 559.198 76.1603 560.172 76.724C561.197 77.2365 562.068 77.7489 562.786 78.2614C563.554 78.7738 563.939 79.1069 563.939 79.2607C563.939 79.3631 563.862 79.4913 563.708 79.645C563.605 79.6962 563.529 79.7219 563.477 79.7219C562.299 80.4393 560.787 81.4386 558.942 82.7197C557.097 84.0009 555.15 85.4613 553.1 87.1012C551.05 88.6898 549.001 90.4065 546.951 92.2514C544.901 94.0962 543.03 95.941 541.339 97.7859C539.7 99.5794 538.367 101.322 537.342 103.013C536.317 104.653 535.805 106.139 535.805 107.471C535.805 107.932 535.907 108.342 536.112 108.701C536.369 109.009 536.727 109.162 537.189 109.162C538.47 109.162 539.905 108.727 541.493 107.856C543.133 106.933 544.798 105.755 546.49 104.32C548.181 102.885 549.872 101.296 551.563 99.5538C553.254 97.7602 554.843 96.0179 556.329 94.3268C557.866 92.5844 559.224 90.9702 560.403 89.4841C561.581 87.998 562.504 86.7937 563.17 85.8713C563.272 85.7688 563.349 85.6663 563.401 85.5638C563.503 85.4613 563.631 85.3589 563.785 85.2564C564.195 85.3589 564.733 85.8713 565.399 86.7937C566.117 87.7161 566.808 88.7923 567.475 90.0222C568.141 91.2008 568.704 92.3795 569.166 93.5581C569.678 94.7368 569.934 95.5823 569.934 96.0948V96.2485C569.934 96.2997 569.883 96.4791 569.781 96.7866C569.217 98.5802 568.499 101.091 567.628 104.32C566.757 107.548 565.655 111.263 564.323 115.466C567.603 112.852 570.882 110.11 574.162 107.241C577.493 104.371 580.798 101.296 584.078 98.0165L587.537 102.09ZM518.894 164.892C519.919 164.892 521.405 164.097 523.352 162.509C525.248 160.971 527.273 158.973 529.425 156.513C531.577 154.105 533.678 151.414 535.728 148.442C537.829 145.521 539.571 142.677 540.955 139.91C537.624 142.318 534.575 144.573 531.808 146.674C529.04 148.826 526.683 150.902 524.736 152.9C522.737 154.899 521.2 156.821 520.124 158.665C518.996 160.561 518.433 162.432 518.433 164.277C518.433 164.687 518.586 164.892 518.894 164.892ZM588.613 125.228C587.844 125.228 586.871 124.946 585.692 124.382C584.514 123.87 583.386 123.204 582.31 122.384C581.234 121.615 580.311 120.744 579.543 119.77C578.774 118.796 578.39 117.848 578.39 116.926C578.902 114.671 579.594 112.083 580.465 109.162C581.336 106.241 582.284 103.269 583.309 100.246C584.283 97.2222 585.333 94.2755 586.461 91.4058C587.537 88.4848 588.511 85.8969 589.382 83.6421C590.304 81.3873 591.099 79.5681 591.765 78.1845C592.431 76.8009 592.867 76.1091 593.072 76.1091C593.379 76.1091 594.148 76.4422 595.378 77.1084C596.607 77.7745 597.889 78.5945 599.221 79.5681C600.605 80.4905 601.834 81.4898 602.911 82.566C603.987 83.5909 604.525 84.4877 604.525 85.2564C604.525 85.4101 604.499 85.6151 604.448 85.8713C604.397 86.0763 604.32 86.3581 604.217 86.7169C603.807 87.998 603.269 89.5097 602.603 91.2521C601.988 92.9944 601.322 94.8136 600.605 96.7097C599.887 98.5545 599.17 100.425 598.452 102.321C597.735 104.166 597.094 105.908 596.531 107.548C595.967 109.188 595.506 110.623 595.147 111.853C594.788 113.083 594.609 113.979 594.609 114.543C594.609 114.851 594.763 115.004 595.07 115.004C595.634 115.004 596.479 114.671 597.607 114.005C598.734 113.339 600.015 112.468 601.45 111.391C602.936 110.315 604.474 109.137 606.062 107.856C607.651 106.574 609.163 105.319 610.597 104.089C612.084 102.808 613.416 101.655 614.595 100.63C615.773 99.6051 616.67 98.8364 617.285 98.3239C617.746 98.7851 618.284 99.3745 618.899 100.092C619.565 100.809 620.18 101.476 620.744 102.09C619.617 103.218 618.207 104.601 616.516 106.241C614.825 107.83 612.98 109.47 610.982 111.161C609.034 112.852 606.985 114.543 604.832 116.234C602.731 117.925 600.681 119.437 598.683 120.769C596.684 122.102 594.814 123.178 593.072 123.998C591.329 124.818 589.843 125.228 588.613 125.228ZM619.053 52.6643C619.002 52.8693 618.797 53.3818 618.438 54.2017C618.131 54.9704 617.746 55.8928 617.285 56.9689C616.824 57.9938 616.286 59.0956 615.671 60.2743C615.107 61.4017 614.543 62.4522 613.98 63.4258C613.416 64.3995 612.878 65.2194 612.365 65.8856C611.853 66.5006 611.443 66.808 611.136 66.808C610.213 66.7568 609.086 66.4749 607.753 65.9625C606.472 65.45 605.217 64.8863 603.987 64.2714C602.808 63.6052 601.783 62.9646 600.912 62.3497C600.092 61.7347 599.682 61.2992 599.682 61.0429C599.682 59.9668 599.99 58.5832 600.605 56.8921C601.22 55.1497 601.937 53.4842 602.757 51.8956C603.577 50.2558 604.397 48.8465 605.217 47.6679C606.088 46.4893 606.754 45.8999 607.215 45.8999C608.138 45.8999 609.265 46.2074 610.597 46.8223C611.93 47.386 613.211 48.0522 614.441 48.8209C615.722 49.5896 616.798 50.3583 617.669 51.127C618.592 51.8444 619.053 52.3568 619.053 52.6643ZM638.27 83.8727C637.655 85.5126 637.04 87.1781 636.425 88.8692C635.81 90.5603 635.195 92.3026 634.58 94.0962C637.809 90.4065 640.576 87.4087 642.882 85.1026C645.239 82.7453 647.212 80.9005 648.801 79.5681C650.441 78.2357 651.747 77.339 652.721 76.8777C653.746 76.3653 654.54 76.1091 655.104 76.1091C655.77 76.1091 656.77 76.4422 658.102 77.1084C659.434 77.7745 660.767 78.5945 662.099 79.5681C663.483 80.5418 664.661 81.5411 665.635 82.566C666.66 83.5909 667.172 84.4877 667.172 85.2564C667.172 85.4101 667.147 85.6151 667.095 85.8713C667.044 86.0763 666.967 86.3581 666.865 86.7169C666.455 87.998 665.917 89.5097 665.251 91.2521C664.636 92.9944 663.969 94.8136 663.252 96.7097C662.535 98.5545 661.817 100.425 661.1 102.321C660.382 104.166 659.742 105.908 659.178 107.548C658.614 109.188 658.153 110.623 657.794 111.853C657.436 113.083 657.256 113.979 657.256 114.543C657.256 114.851 657.41 115.004 657.718 115.004C658.281 115.004 659.127 114.671 660.254 114.005C661.382 113.339 662.663 112.468 664.098 111.391C665.584 110.315 667.121 109.137 668.71 107.856C670.298 106.574 671.81 105.319 673.245 104.089C674.731 102.808 676.063 101.655 677.242 100.63C678.421 99.6051 679.317 98.8364 679.932 98.3239C680.445 98.7851 681.009 99.3745 681.624 100.092C682.238 100.809 682.828 101.476 683.391 102.09C682.264 103.218 680.855 104.601 679.164 106.241C677.473 107.83 675.628 109.47 673.629 111.161C671.682 112.852 669.632 114.543 667.48 116.234C665.379 117.925 663.329 119.437 661.33 120.769C659.332 122.102 657.461 123.178 655.719 123.998C653.977 124.818 652.516 125.228 651.338 125.228C650.569 125.228 649.595 124.946 648.417 124.382C647.238 123.87 646.085 123.204 644.957 122.384C643.881 121.615 642.959 120.744 642.19 119.77C641.422 118.796 641.037 117.848 641.037 116.926C641.498 114.825 642.113 112.442 642.882 109.777C643.702 107.113 644.573 104.397 645.496 101.629C646.418 98.8108 647.366 96.0435 648.34 93.3275C649.365 90.5603 650.338 88.0236 651.261 85.7176L651.107 85.8713C650.133 87.05 648.724 88.6129 646.879 90.5603C645.086 92.4563 643.036 94.9161 640.73 97.9396C638.424 100.912 635.99 104.525 633.427 108.778C630.865 112.98 628.354 117.977 625.894 123.767C625.587 124.485 625.305 125.048 625.049 125.458C624.792 125.868 624.306 126.073 623.588 126.073C622.717 126.073 621.718 125.817 620.59 125.305C619.514 124.843 618.412 124.203 617.285 123.383C616.106 122.614 614.953 121.743 613.826 120.769C612.647 119.796 611.597 118.822 610.674 117.848C610.674 117.541 610.828 116.67 611.136 115.235C611.392 113.8 611.776 112.006 612.289 109.854C612.801 107.651 613.442 105.165 614.21 102.398C614.979 99.5794 615.85 96.6328 616.824 93.5581C617.797 90.4834 618.874 87.3574 620.052 84.1802C621.18 80.9518 622.41 77.8514 623.742 74.8792C625.894 75.9041 628.277 77.1596 630.891 78.6457C633.555 80.1318 636.015 81.8742 638.27 83.8727ZM723.132 114.236C723.132 114.543 723.286 114.697 723.593 114.697C724.055 114.697 724.823 114.364 725.9 113.698C726.976 113.031 728.206 112.186 729.589 111.161C730.973 110.136 732.433 108.983 733.971 107.702C735.559 106.421 737.071 105.165 738.506 103.935C739.941 102.705 741.222 101.578 742.349 100.553C743.528 99.5282 744.425 98.7339 745.04 98.1702C745.501 98.6314 746.065 99.2463 746.731 100.015C747.448 100.784 748.089 101.476 748.652 102.09C747.423 103.218 745.936 104.601 744.194 106.241C742.503 107.83 740.658 109.495 738.66 111.238C736.712 112.98 734.688 114.722 732.587 116.465C730.486 118.156 728.436 119.668 726.438 121C724.439 122.332 722.543 123.409 720.749 124.228C718.956 125.1 717.393 125.535 716.06 125.535C715.138 125.535 714.113 125.356 712.986 124.997C711.91 124.638 710.91 124.126 709.988 123.46C709.065 122.845 708.297 122.102 707.682 121.231C707.067 120.359 706.759 119.386 706.759 118.31C706.759 117.9 706.734 117.413 706.683 116.849C706.683 116.234 706.734 115.466 706.836 114.543C706.939 113.569 707.144 112.416 707.451 111.084C707.759 109.7 708.22 108.009 708.835 106.011C707.144 107.804 705.145 109.675 702.839 111.622C700.584 113.569 698.201 115.414 695.69 117.157C693.179 118.899 690.643 120.462 688.08 121.846C685.569 123.28 683.238 124.357 681.085 125.074C680.829 125.176 680.624 125.228 680.471 125.228C680.317 125.228 680.163 125.228 680.009 125.228C679.497 125.228 678.831 124.972 678.011 124.459C677.14 123.947 676.294 123.255 675.474 122.384C674.654 121.564 673.962 120.616 673.399 119.54C672.784 118.463 672.476 117.387 672.476 116.311C672.476 116.004 672.63 114.979 672.937 113.236C673.245 111.494 673.988 109.29 675.167 106.626C676.294 103.91 677.985 100.886 680.24 97.5552C682.495 94.1731 685.569 90.714 689.464 87.1781C691.463 85.3845 693.615 83.6934 695.921 82.1048C697.868 80.7724 700.098 79.4144 702.609 78.0308C705.12 76.6471 707.759 75.5454 710.526 74.7254C710.628 74.7254 710.705 74.6998 710.757 74.6486C710.859 74.5973 710.987 74.623 711.141 74.7254C711.756 74.9304 712.473 75.2635 713.293 75.7247C714.164 76.1347 715.01 76.5959 715.83 77.1084C716.701 77.5696 717.444 78.0564 718.059 78.5688C718.725 79.0301 719.161 79.4144 719.366 79.7219C719.417 79.8244 719.417 79.9012 719.366 79.9525L719.212 80.1062C716.906 81.3361 714.728 82.7197 712.678 84.2571C710.628 85.7432 708.809 87.1524 707.221 88.4848C705.376 90.0734 703.659 91.6364 702.07 93.1738C698.33 96.8634 695.742 100.066 694.307 102.782C692.872 105.447 692.154 107.369 692.154 108.547C692.154 109.419 692.513 109.854 693.231 109.854C693.948 109.854 694.845 109.572 695.921 109.009C697.048 108.394 698.304 107.599 699.688 106.626C701.071 105.601 702.583 104.422 704.223 103.09C705.914 101.706 707.656 100.271 709.45 98.7851C711.038 97.504 712.576 96.1204 714.062 94.6343C715.343 93.4044 716.675 91.9951 718.059 90.4065C719.443 88.8179 720.621 87.2037 721.595 85.5638C721.595 85.5126 721.621 85.4613 721.672 85.4101C721.723 85.3589 721.8 85.3589 721.902 85.4101C722.466 85.8201 723.107 86.5119 723.824 87.4855C724.542 88.408 725.208 89.4329 725.823 90.5603C726.438 91.6877 726.95 92.7894 727.36 93.8656C727.821 94.8905 728.052 95.6848 728.052 96.2485C726.873 98.657 725.951 100.861 725.285 102.859C724.67 104.806 724.183 106.523 723.824 108.009C723.517 109.495 723.312 110.777 723.209 111.853C723.158 112.878 723.132 113.672 723.132 114.236ZM752.419 125.228C751.548 125.228 750.395 124.818 748.96 123.998C747.576 123.229 746.218 122.256 744.886 121.077C743.554 119.949 742.401 118.771 741.427 117.541C740.453 116.311 739.966 115.261 739.966 114.389C739.966 112.852 740.402 110.418 741.273 107.087C742.093 103.756 743.195 99.9638 744.578 95.7104C745.962 91.4058 747.525 86.8193 749.267 81.951C751.061 77.0827 752.855 72.3169 754.648 67.6536H743.81H743.733C743.682 67.6536 743.656 67.6023 743.656 67.4998C743.656 67.1924 743.784 66.7568 744.04 66.1931C744.245 65.5781 744.527 64.9632 744.886 64.3483C745.193 63.6821 745.578 63.0927 746.039 62.5803C746.449 62.0166 746.859 61.6579 747.269 61.5041L757.262 61.0429C758.697 57.5582 760.055 54.3554 761.336 51.4344C762.668 48.4622 763.847 45.9256 764.872 43.8245C765.128 43.2608 765.384 42.6715 765.64 42.0565C765.948 41.3903 766.358 40.7498 766.87 40.1348C767.434 39.4686 768.151 38.8024 769.022 38.1363C769.945 37.4188 771.175 36.7014 772.712 35.984C773.84 35.4203 775.198 34.8053 776.786 34.1391C778.426 33.4729 780.015 32.858 781.552 32.2943C783.141 31.7306 784.575 31.2694 785.857 30.9107C787.138 30.5007 788.06 30.2957 788.624 30.2957C789.136 30.2957 789.393 30.3982 789.393 30.6032V30.7569C789.393 30.8082 789.341 30.9363 789.239 31.1413C788.931 31.6537 788.368 32.7811 787.548 34.5235C786.728 36.2146 785.703 38.3669 784.473 40.9804C783.294 43.5426 781.962 46.4893 780.476 49.8202C779.041 53.0999 777.555 56.5846 776.017 60.2743L794.466 59.5824C794.978 59.5824 795.132 59.8899 794.927 60.5049C794.722 61.1198 794.338 61.8372 793.774 62.6572C793.21 63.4771 792.544 64.3226 791.775 65.1938C791.058 66.065 790.443 66.7312 789.931 67.1924C789.828 67.2949 789.623 67.3974 789.316 67.4998C789.008 67.6023 788.624 67.6536 788.163 67.6536H772.943C771.098 72.1119 769.33 76.6215 767.639 81.1824C765.948 85.7432 764.436 90.0734 763.104 94.1731C761.771 98.2727 760.695 102.039 759.875 105.473C759.107 108.906 758.722 111.725 758.722 113.928C758.722 114.236 758.876 114.389 759.183 114.389C759.747 114.389 760.593 114.082 761.72 113.467C762.847 112.801 764.103 111.955 765.487 110.93C766.921 109.905 768.433 108.778 770.022 107.548C771.61 106.318 773.122 105.114 774.557 103.935C775.992 102.705 777.273 101.604 778.4 100.63C779.579 99.6051 780.476 98.8364 781.091 98.3239C781.552 98.7851 782.09 99.3745 782.705 100.092C783.371 100.809 783.986 101.476 784.55 102.09C783.422 103.218 782.013 104.601 780.322 106.241C778.631 107.83 776.786 109.47 774.788 111.161C772.84 112.852 770.79 114.543 768.638 116.234C766.537 117.925 764.462 119.437 762.412 120.769C760.413 122.102 758.543 123.178 756.8 123.998C755.058 124.818 753.598 125.228 752.419 125.228ZM786.01 125.228C785.242 125.228 784.268 124.946 783.089 124.382C781.911 123.87 780.783 123.204 779.707 122.384C778.631 121.615 777.709 120.744 776.94 119.77C776.171 118.796 775.787 117.848 775.787 116.926C776.299 114.671 776.991 112.083 777.862 109.162C778.733 106.241 779.682 103.269 780.706 100.246C781.68 97.2222 782.731 94.2755 783.858 91.4058C784.934 88.4848 785.908 85.8969 786.779 83.6421C787.701 81.3873 788.496 79.5681 789.162 78.1845C789.828 76.8009 790.264 76.1091 790.469 76.1091C790.776 76.1091 791.545 76.4422 792.775 77.1084C794.005 77.7745 795.286 78.5945 796.618 79.5681C798.002 80.4905 799.232 81.4898 800.308 82.566C801.384 83.5909 801.922 84.4877 801.922 85.2564C801.922 85.4101 801.896 85.6151 801.845 85.8713C801.794 86.0763 801.717 86.3581 801.615 86.7169C801.205 87.998 800.667 89.5097 800 91.2521C799.385 92.9944 798.719 94.8136 798.002 96.7097C797.284 98.5545 796.567 100.425 795.849 102.321C795.132 104.166 794.491 105.908 793.928 107.548C793.364 109.188 792.903 110.623 792.544 111.853C792.185 113.083 792.006 113.979 792.006 114.543C792.006 114.851 792.16 115.004 792.467 115.004C793.031 115.004 793.876 114.671 795.004 114.005C796.131 113.339 797.412 112.468 798.847 111.391C800.333 110.315 801.871 109.137 803.459 107.856C805.048 106.574 806.56 105.319 807.995 104.089C809.481 102.808 810.813 101.655 811.992 100.63C813.17 99.6051 814.067 98.8364 814.682 98.3239C815.143 98.7851 815.681 99.3745 816.296 100.092C816.963 100.809 817.577 101.476 818.141 102.09C817.014 103.218 815.605 104.601 813.913 106.241C812.222 107.83 810.378 109.47 808.379 111.161C806.432 112.852 804.382 114.543 802.229 116.234C800.128 117.925 798.079 119.437 796.08 120.769C794.081 122.102 792.211 123.178 790.469 123.998C788.726 124.818 787.24 125.228 786.01 125.228ZM816.45 52.6643C816.399 52.8693 816.194 53.3818 815.835 54.2017C815.528 54.9704 815.143 55.8928 814.682 56.9689C814.221 57.9938 813.683 59.0956 813.068 60.2743C812.504 61.4017 811.94 62.4522 811.377 63.4258C810.813 64.3995 810.275 65.2194 809.763 65.8856C809.25 66.5006 808.84 66.808 808.533 66.808C807.61 66.7568 806.483 66.4749 805.15 65.9625C803.869 65.45 802.614 64.8863 801.384 64.2714C800.205 63.6052 799.18 62.9646 798.309 62.3497C797.489 61.7347 797.079 61.2992 797.079 61.0429C797.079 59.9668 797.387 58.5832 798.002 56.8921C798.617 55.1497 799.334 53.4842 800.154 51.8956C800.974 50.2558 801.794 48.8465 802.614 47.6679C803.485 46.4893 804.151 45.8999 804.612 45.8999C805.535 45.8999 806.662 46.2074 807.995 46.8223C809.327 47.386 810.608 48.0522 811.838 48.8209C813.119 49.5896 814.195 50.3583 815.066 51.127C815.989 51.8444 816.45 52.3568 816.45 52.6643ZM823.214 113.159C823.214 114.697 823.778 115.466 824.906 115.466C826.084 115.466 827.647 114.543 829.594 112.698C831.542 110.802 833.566 108.419 835.667 105.55C835.565 104.986 835.488 104.499 835.436 104.089C835.436 103.628 835.436 103.218 835.436 102.859C835.436 101.834 835.539 100.63 835.744 99.2463C836 97.8115 836.589 96.1972 837.512 94.4037C838.127 93.02 838.87 91.662 839.741 90.3297C840.458 89.151 841.33 87.8955 842.355 86.5631C843.379 85.1795 844.507 83.8984 845.737 82.7197L846.198 82.2585C846.71 82.8735 847.377 83.719 848.197 84.7952C849.068 85.8201 849.913 86.8962 850.733 88.0236C851.604 89.0998 852.347 90.099 852.962 91.0215C853.629 91.9439 854.039 92.5844 854.192 92.9432C854.192 95.1467 853.782 97.3503 852.962 99.5538C852.194 101.757 851.143 103.935 849.811 106.088C852.885 105.883 855.73 105.114 858.343 103.782C861.008 102.398 863.775 100.169 866.645 97.094C867.106 97.5552 867.695 98.1958 868.413 99.0157C869.182 99.7844 869.796 100.451 870.258 101.014C868.105 103.269 865.979 105.14 863.878 106.626C861.828 108.112 859.752 109.29 857.651 110.162C855.601 111.033 853.5 111.673 851.348 112.083C849.196 112.442 846.992 112.621 844.737 112.621C842.995 114.466 841.125 116.157 839.126 117.695C837.128 119.232 835.078 120.564 832.977 121.692C830.927 122.819 828.877 123.69 826.827 124.305C824.777 124.92 822.83 125.228 820.985 125.228C819.448 125.228 817.859 124.767 816.219 123.844C814.58 122.922 813.093 121.794 811.761 120.462C810.429 119.078 809.327 117.618 808.456 116.08C807.585 114.543 807.149 113.185 807.149 112.006C807.149 108.112 807.687 104.243 808.763 100.399C809.788 96.556 811.428 92.9688 813.683 89.6378C815.886 86.2556 818.705 83.2834 822.138 80.7211C825.623 78.1589 829.748 76.2116 834.514 74.8792C834.668 74.7767 834.924 74.6998 835.283 74.6486C835.693 74.5973 836.026 74.5717 836.282 74.5717C836.999 74.5717 837.742 74.8536 838.511 75.4173C839.331 75.9297 840.074 76.519 840.74 77.1852C841.458 77.8514 842.047 78.5176 842.508 79.1838C842.97 79.7987 843.2 80.2087 843.2 80.4137C843.098 80.6699 842.713 81.003 842.047 81.413C841.381 81.7717 840.484 82.4122 839.357 83.3347C838.229 84.2571 836.897 85.5895 835.36 87.3318C833.822 89.0229 832.131 91.2777 830.286 94.0962C827.519 98.2471 825.649 102.014 824.675 105.396C823.701 108.727 823.214 111.315 823.214 113.159ZM887.322 83.8727C886.707 85.5126 886.092 87.1781 885.478 88.8692C884.863 90.5603 884.248 92.3026 883.633 94.0962C886.861 90.4065 889.628 87.4087 891.934 85.1026C894.292 82.7453 896.265 80.9005 897.853 79.5681C899.493 78.2357 900.8 77.339 901.774 76.8777C902.798 76.3653 903.593 76.1091 904.156 76.1091C904.823 76.1091 905.822 76.4422 907.154 77.1084C908.487 77.7745 909.819 78.5945 911.151 79.5681C912.535 80.5418 913.714 81.5411 914.687 82.566C915.712 83.5909 916.225 84.4877 916.225 85.2564C916.225 85.4101 916.199 85.6151 916.148 85.8713C916.097 86.0763 916.02 86.3581 915.917 86.7169C915.507 87.998 914.969 89.5097 914.303 91.2521C913.688 92.9944 913.022 94.8136 912.304 96.7097C911.587 98.5545 910.87 100.425 910.152 102.321C909.435 104.166 908.794 105.908 908.23 107.548C907.667 109.188 907.206 110.623 906.847 111.853C906.488 113.083 906.309 113.979 906.309 114.543C906.309 114.851 906.463 115.004 906.77 115.004C907.334 115.004 908.179 114.671 909.307 114.005C910.434 113.339 911.715 112.468 913.15 111.391C914.636 110.315 916.174 109.137 917.762 107.856C919.351 106.574 920.862 105.319 922.297 104.089C923.783 102.808 925.116 101.655 926.294 100.63C927.473 99.6051 928.37 98.8364 928.985 98.3239C929.497 98.7851 930.061 99.3745 930.676 100.092C931.291 100.809 931.88 101.476 932.444 102.09C931.317 103.218 929.907 104.601 928.216 106.241C926.525 107.83 924.68 109.47 922.682 111.161C920.734 112.852 918.685 114.543 916.532 116.234C914.431 117.925 912.381 119.437 910.383 120.769C908.384 122.102 906.514 123.178 904.771 123.998C903.029 124.818 901.569 125.228 900.39 125.228C899.621 125.228 898.648 124.946 897.469 124.382C896.29 123.87 895.137 123.204 894.01 122.384C892.934 121.615 892.011 120.744 891.243 119.77C890.474 118.796 890.09 117.848 890.09 116.926C890.551 114.825 891.166 112.442 891.934 109.777C892.754 107.113 893.626 104.397 894.548 101.629C895.47 98.8108 896.418 96.0435 897.392 93.3275C898.417 90.5603 899.391 88.0236 900.313 85.7176L900.159 85.8713C899.186 87.05 897.776 88.6129 895.932 90.5603C894.138 92.4563 892.088 94.9161 889.782 97.9396C887.476 100.912 885.042 104.525 882.48 108.778C879.917 112.98 877.406 117.977 874.947 123.767C874.639 124.485 874.357 125.048 874.101 125.458C873.845 125.868 873.358 126.073 872.641 126.073C871.769 126.073 870.77 125.817 869.643 125.305C868.567 124.843 867.465 124.203 866.337 123.383C865.159 122.614 864.006 121.743 862.878 120.769C861.7 119.796 860.649 118.822 859.727 117.848C859.727 117.541 859.88 116.67 860.188 115.235C860.444 113.8 860.829 112.006 861.341 109.854C861.853 107.651 862.494 105.165 863.263 102.398C864.031 99.5794 864.903 96.6328 865.876 93.5581C866.85 90.4834 867.926 87.3574 869.105 84.1802C870.232 80.9518 871.462 77.8514 872.794 74.8792C874.947 75.9041 877.33 77.1596 879.943 78.6457C882.608 80.1318 885.068 81.8742 887.322 83.8727ZM1054.74 14.6146C1055 15.1783 1055.23 15.9214 1055.43 16.8438C1055.64 17.715 1055.74 18.7911 1055.74 20.0723C1055.74 23.2495 1055.28 26.811 1054.36 30.7569C1053.43 34.6516 1052.15 38.8281 1050.51 43.2864C1048.87 47.6935 1046.87 52.28 1044.52 57.0458C1042.16 61.8116 1039.57 66.6287 1036.75 71.497C1033.94 76.3653 1030.89 81.208 1027.61 86.025C1024.33 90.7909 1020.92 95.4029 1017.38 99.8613C1019.59 102.526 1021.92 105.011 1024.38 107.317C1026.89 109.624 1029.53 111.673 1032.3 113.467C1030.6 114.748 1029.02 115.747 1027.53 116.465C1025.53 115.594 1023.23 114.236 1020.61 112.391C1018.05 110.546 1015.38 108.291 1012.62 105.626C1006.62 112.647 1000.6 118.72 994.553 123.844C988.558 128.969 982.613 132.786 976.72 135.297C976.002 135.605 975.106 135.861 974.03 136.066C972.953 136.322 971.518 136.45 969.725 136.45C968.29 136.45 966.804 135.912 965.267 134.836C963.729 133.76 962.269 132.479 960.885 130.993C959.45 129.507 958.195 127.995 957.119 126.458C955.991 124.972 955.12 123.793 954.505 122.922C953.839 121.948 953.301 120.744 952.891 119.309C952.481 117.874 952.276 116.08 952.276 113.928C952.276 111.315 952.558 108.65 953.121 105.934C953.685 103.218 954.71 100.118 956.196 96.6328C956.811 96.3766 957.913 96.0179 959.501 95.5567C961.039 95.0442 962.756 94.5318 964.652 94.0193C966.496 93.5069 968.341 93.02 970.186 92.5588C972.031 92.0976 973.568 91.7645 974.798 91.5595C973.261 93.8656 971.826 96.0948 970.494 98.2471C969.161 100.348 968.034 102.475 967.111 104.627C966.138 106.728 965.369 108.906 964.805 111.161C964.242 113.364 963.96 115.696 963.96 118.156C963.96 119.181 964.165 120.154 964.575 121.077C964.933 122.051 965.625 122.537 966.65 122.537C968.239 122.537 970.237 121.743 972.646 120.154C975.054 118.566 977.719 116.362 980.64 113.544C983.612 110.725 986.764 107.394 990.095 103.551C993.426 99.7076 996.834 95.5567 1000.32 91.0983C998.371 88.3311 996.577 85.4101 994.938 82.3354C993.298 79.2094 991.863 75.981 990.633 72.65C989.454 69.2678 988.506 65.8088 987.789 62.2728C987.123 58.7369 986.79 55.1241 986.79 51.4344C986.79 46.0024 987.635 40.9804 989.326 36.3683C991.069 31.7562 993.349 27.5797 996.168 23.8388C999.037 20.0466 1002.29 16.7157 1005.93 13.846C1009.62 10.9762 1013.41 8.56769 1017.31 6.62036C1021.2 4.67304 1025.04 3.21255 1028.84 2.23889C1032.68 1.21398 1036.19 0.701525 1039.37 0.701525C1041.11 0.701525 1042.42 1.03462 1043.29 1.70081C1044.16 2.26451 1045.18 3.13568 1046.36 4.31432C1047.54 5.44172 1048.69 6.64599 1049.82 7.92712C1051 9.20825 1052.02 10.4638 1052.9 11.6937C1053.82 12.8723 1054.43 13.846 1054.74 14.6146ZM1000.32 59.7362C1000.32 63.1696 1000.86 66.8593 1001.93 70.8052C1003.01 74.7511 1004.52 78.7482 1006.47 82.7966C1009.54 78.5432 1012.54 74.1874 1015.46 69.729C1018.43 65.2194 1021.23 60.7355 1023.84 56.2771C1026.5 51.8188 1028.94 47.4373 1031.14 43.1327C1033.4 38.8281 1035.32 34.7541 1036.91 30.9107C1038.55 27.016 1039.8 23.4288 1040.67 20.1491C1041.6 16.8182 1042.06 13.9228 1042.06 11.4631C1042.06 10.7969 1041.93 10.3869 1041.67 10.2332C1041.42 10.0794 1041.06 10.0026 1040.6 10.0026C1039.88 10.0026 1038.37 10.4381 1036.06 11.3093C1033.81 12.1292 1031.19 13.436 1028.22 15.2296C1025.25 16.9719 1022.12 19.2011 1018.84 21.9171C1015.56 24.5819 1012.54 27.7591 1009.77 31.4487C1007.06 35.1384 1004.8 39.3405 1003.01 44.0551C1001.22 48.7697 1000.32 53.9967 1000.32 59.7362ZM1036.45 99.7844C1037.63 98.657 1038.98 97.3759 1040.52 95.941C1042.01 94.5062 1043.49 92.9432 1044.98 91.2521C1046.52 89.561 1047.93 87.7418 1049.21 85.7944C1050.54 83.8471 1051.59 81.7461 1052.36 79.4913C1052.56 78.3126 1052.87 77.0827 1053.28 75.8016C1053.74 74.4692 1054.23 73.265 1054.74 72.1888C1055.3 71.1126 1055.84 70.2159 1056.36 69.4984C1056.87 68.781 1057.33 68.4223 1057.74 68.4223C1058.35 68.781 1059.28 69.4728 1060.51 70.4977C1061.74 71.4714 1062.97 72.5219 1064.2 73.6493C1065.43 74.7767 1066.5 75.8272 1067.42 76.8009C1068.4 77.7233 1068.88 78.287 1068.88 78.492C1068.27 80.8493 1067.96 82.9759 1067.96 84.872C1068.01 86.7681 1068.17 88.6386 1068.42 90.4834C1068.73 92.3282 1069.04 94.3012 1069.35 96.4022C1069.7 98.452 1069.88 100.835 1069.88 103.551C1069.88 105.191 1069.6 107.087 1069.04 109.239C1068.53 111.34 1067.6 113.236 1066.27 114.927C1068.88 113.39 1071.47 111.673 1074.03 109.777C1076.6 107.83 1078.88 106.011 1080.88 104.32C1083.23 102.321 1085.49 100.322 1087.64 98.3239L1091.1 102.09C1089.41 103.679 1087.56 105.37 1085.57 107.164C1083.62 108.957 1081.57 110.725 1079.42 112.468C1077.31 114.21 1075.16 115.875 1072.96 117.464C1070.76 119.053 1068.58 120.462 1066.43 121.692C1064.27 122.922 1062.2 123.895 1060.2 124.613C1058.2 125.33 1056.33 125.689 1054.59 125.689C1053.1 125.689 1051.46 125.33 1049.67 124.613C1047.87 123.895 1046.18 123.024 1044.59 121.999C1043.01 120.974 1041.62 119.898 1040.44 118.771C1039.26 117.643 1038.57 116.695 1038.37 115.927C1038.37 115.824 1038.47 115.619 1038.68 115.312C1038.88 114.953 1039.14 114.594 1039.44 114.236C1039.7 113.877 1039.98 113.569 1040.29 113.313C1040.55 113.006 1040.75 112.852 1040.9 112.852C1041.21 112.852 1041.83 113.083 1042.75 113.544C1043.67 114.005 1045.21 114.236 1047.36 114.236C1048.54 114.236 1049.54 113.928 1050.36 113.313C1051.23 112.698 1051.95 111.878 1052.51 110.853C1053.08 109.829 1053.49 108.65 1053.74 107.317C1054 105.985 1054.13 104.576 1054.13 103.09C1054.13 100.937 1054.02 98.862 1053.82 96.8634C1053.61 94.8136 1053.38 92.8407 1053.13 90.9446C1052.26 91.9695 1051.26 93.0457 1050.13 94.1731C1049 95.3005 1047.85 96.4279 1046.67 97.5552C1045.54 98.6314 1044.39 99.7076 1043.21 100.784C1042.08 101.809 1041.06 102.731 1040.14 103.551L1036.45 99.7844ZM1172.04 198.176C1170.4 196.536 1168.86 194.973 1167.43 193.487C1166.05 192 1164.66 190.54 1163.28 189.105C1161.9 187.67 1160.46 186.21 1158.97 184.724C1157.54 183.237 1156 181.675 1154.36 180.035C1156.51 173.68 1158.82 167.275 1161.28 160.818C1163.74 154.412 1166.48 147.673 1169.5 140.601C1172.53 133.529 1175.91 126.022 1179.65 118.079C1183.39 110.136 1187.65 101.45 1192.41 92.0208C1190.05 95.5054 1187.85 98.5545 1185.8 101.168C1183.8 103.782 1182.06 105.985 1180.57 107.779C1178.83 109.829 1177.19 111.622 1175.65 113.159C1171.76 116.9 1168.28 120.129 1165.2 122.845C1162.18 125.561 1159.46 127.79 1157.05 129.532C1154.7 131.326 1152.62 132.658 1150.83 133.529C1149.03 134.401 1147.44 134.836 1146.06 134.836C1144.98 134.836 1143.83 134.452 1142.6 133.683C1141.42 132.966 1140.24 132.043 1139.07 130.916C1137.94 129.84 1136.86 128.687 1135.84 127.457C1134.81 126.227 1133.92 125.125 1133.15 124.152C1131.87 122.512 1131.15 120.385 1130.99 117.772C1130.84 115.158 1130.76 111.93 1130.76 108.086C1130.76 102.193 1131.25 96.0179 1132.22 89.561C1133.25 83.1041 1134.68 76.6215 1136.53 70.1134C1138.37 63.554 1140.6 57.0458 1143.22 50.5889C1145.83 44.0807 1148.75 37.8544 1151.98 31.9099C1155.21 25.9142 1158.69 20.3029 1162.43 15.0758C1166.17 9.84882 1170.09 5.15987 1174.19 1.009C1175.27 2.1364 1176.5 3.44315 1177.88 4.92927C1179.27 6.36414 1180.65 7.85025 1182.03 9.38761C1183.47 10.925 1184.83 12.4623 1186.11 13.9997C1187.44 15.4858 1188.57 16.7926 1189.49 17.92C1185.13 21.8659 1181.04 26.3242 1177.19 31.295C1173.4 36.2146 1169.91 41.4928 1166.74 47.1298C1163.56 52.7156 1160.72 58.5575 1158.21 64.6557C1155.69 70.7027 1153.57 76.8521 1151.83 83.1041C1150.13 89.3047 1148.8 95.5054 1147.83 101.706C1146.91 107.907 1146.42 113.903 1146.37 119.693C1152.06 116.824 1157.28 113.339 1162.05 109.239C1166.81 105.14 1171.17 100.681 1175.12 95.8642C1179.11 90.9958 1182.73 85.8969 1185.95 80.5674C1189.23 75.2379 1192.18 69.8571 1194.79 64.4251C1197.46 58.9931 1199.82 53.638 1201.87 48.3597C1203.97 43.0814 1205.86 38.1106 1207.55 33.4473C1209.25 28.784 1210.73 24.5306 1212.01 20.6872C1213.35 16.8438 1214.55 13.641 1215.63 11.0787C1216.14 11.8474 1216.83 12.7954 1217.7 13.9228C1218.57 15.0502 1219.49 16.2801 1220.47 17.6125C1221.49 18.8936 1222.52 20.2004 1223.54 21.5328C1224.62 22.8651 1225.59 24.1207 1226.46 25.2993C1227.39 26.4267 1228.18 27.426 1228.85 28.2971C1229.51 29.1171 1229.95 29.6808 1230.15 29.9882C1227.44 36.4452 1224.75 42.9021 1222.08 49.359C1219.47 55.7647 1216.78 62.5547 1214.01 69.729C1211.24 76.8521 1208.37 84.5646 1205.4 92.8663C1202.43 101.168 1199.23 110.469 1195.79 120.769C1192.41 131.07 1188.75 142.574 1184.8 155.283C1180.91 167.992 1176.65 182.289 1172.04 198.176ZM1231.84 113.159C1231.84 114.697 1232.41 115.466 1233.54 115.466C1234.71 115.466 1236.28 114.543 1238.23 112.698C1240.17 110.802 1242.2 108.419 1244.3 105.55C1244.2 104.986 1244.12 104.499 1244.07 104.089C1244.07 103.628 1244.07 103.218 1244.07 102.859C1244.07 101.834 1244.17 100.63 1244.37 99.2463C1244.63 97.8115 1245.22 96.1972 1246.14 94.4037C1246.76 93.02 1247.5 91.662 1248.37 90.3297C1249.09 89.151 1249.96 87.8955 1250.99 86.5631C1252.01 85.1795 1253.14 83.8984 1254.37 82.7197L1254.83 82.2585C1255.34 82.8735 1256.01 83.719 1256.83 84.7952C1257.7 85.8201 1258.54 86.8962 1259.36 88.0236C1260.23 89.0998 1260.98 90.099 1261.59 91.0215C1262.26 91.9439 1262.67 92.5844 1262.82 92.9432C1262.82 95.1467 1262.41 97.3503 1261.59 99.5538C1260.82 101.757 1259.77 103.935 1258.44 106.088C1261.52 105.883 1264.36 105.114 1266.97 103.782C1269.64 102.398 1272.41 100.169 1275.28 97.094C1275.74 97.5552 1276.33 98.1958 1277.04 99.0157C1277.81 99.7844 1278.43 100.451 1278.89 101.014C1276.74 103.269 1274.61 105.14 1272.51 106.626C1270.46 108.112 1268.38 109.29 1266.28 110.162C1264.23 111.033 1262.13 111.673 1259.98 112.083C1257.83 112.442 1255.62 112.621 1253.37 112.621C1251.63 114.466 1249.76 116.157 1247.76 117.695C1245.76 119.232 1243.71 120.564 1241.61 121.692C1239.56 122.819 1237.51 123.69 1235.46 124.305C1233.41 124.92 1231.46 125.228 1229.62 125.228C1228.08 125.228 1226.49 124.767 1224.85 123.844C1223.21 122.922 1221.72 121.794 1220.39 120.462C1219.06 119.078 1217.96 117.618 1217.09 116.08C1216.22 114.543 1215.78 113.185 1215.78 112.006C1215.78 108.112 1216.32 104.243 1217.39 100.399C1218.42 96.556 1220.06 92.9688 1222.31 89.6378C1224.52 86.2556 1227.34 83.2834 1230.77 80.7211C1234.25 78.1589 1238.38 76.2116 1243.14 74.8792C1243.3 74.7767 1243.55 74.6998 1243.91 74.6486C1244.32 74.5973 1244.66 74.5717 1244.91 74.5717C1245.63 74.5717 1246.37 74.8536 1247.14 75.4173C1247.96 75.9297 1248.7 76.519 1249.37 77.1852C1250.09 77.8514 1250.68 78.5176 1251.14 79.1838C1251.6 79.7987 1251.83 80.2087 1251.83 80.4137C1251.73 80.6699 1251.34 81.003 1250.68 81.413C1250.01 81.7717 1249.11 82.4122 1247.99 83.3347C1246.86 84.2571 1245.53 85.5895 1243.99 87.3318C1242.45 89.0229 1240.76 91.2777 1238.92 94.0962C1236.15 98.2471 1234.28 102.014 1233.31 105.396C1232.33 108.727 1231.84 111.315 1231.84 113.159ZM1314.32 114.236C1314.32 114.543 1314.48 114.697 1314.79 114.697C1315.35 114.697 1316.19 114.364 1317.32 113.698C1318.5 113.031 1319.83 112.186 1321.32 111.161C1322.81 110.136 1324.37 108.983 1326.01 107.702C1327.65 106.421 1329.21 105.191 1330.7 104.012C1332.18 102.782 1333.52 101.655 1334.69 100.63C1335.92 99.6051 1336.85 98.8364 1337.46 98.3239C1337.92 98.7851 1338.46 99.3745 1339.08 100.092C1339.74 100.809 1340.36 101.476 1340.92 102.09C1339.79 103.218 1338.36 104.576 1336.62 106.164C1334.92 107.753 1333.05 109.419 1331 111.161C1329.01 112.852 1326.91 114.543 1324.7 116.234C1322.55 117.874 1320.45 119.36 1318.4 120.693C1316.35 121.974 1314.43 123.024 1312.63 123.844C1310.84 124.664 1309.35 125.074 1308.17 125.074C1307.3 125.074 1306.33 124.792 1305.25 124.228C1304.18 123.716 1303.15 123.024 1302.18 122.153C1301.26 121.333 1300.46 120.411 1299.8 119.386C1299.18 118.361 1298.87 117.387 1298.87 116.465C1298.87 115.645 1299.18 114.082 1299.8 111.776C1300.41 109.47 1301.15 106.779 1302.03 103.705C1299.72 106.831 1297.46 109.598 1295.26 112.006C1293.06 114.364 1291.03 116.388 1289.19 118.079C1287.34 119.77 1285.73 121.128 1284.35 122.153C1282.96 123.229 1281.94 123.998 1281.27 124.459C1280.86 124.715 1280.37 124.895 1279.81 124.997C1279.25 125.151 1278.73 125.228 1278.27 125.228C1277.3 125.228 1276.22 124.92 1275.04 124.305C1273.87 123.742 1272.79 123.024 1271.82 122.153C1270.79 121.282 1269.95 120.308 1269.28 119.232C1268.56 118.156 1268.2 117.131 1268.2 116.157C1268.2 115.03 1268.59 113.159 1269.36 110.546C1270.07 107.932 1271.07 104.806 1272.35 101.168C1273.58 97.5296 1275.04 93.4556 1276.74 88.946C1278.43 84.4364 1280.25 79.6962 1282.19 74.7254C1282.3 74.4692 1282.37 74.3667 1282.42 74.418C1282.53 74.418 1282.68 74.418 1282.89 74.418C1283.86 74.5717 1285.19 74.9817 1286.88 75.6479C1288.57 76.2628 1290.21 76.9546 1291.8 77.7233C1293.44 78.492 1294.85 79.235 1296.03 79.9525C1297.21 80.6187 1297.8 81.0799 1297.8 81.3361C1297.64 81.6948 1297.23 82.5404 1296.57 83.8727C1295.95 85.2051 1295.21 86.8193 1294.34 88.7154C1293.52 90.5603 1292.62 92.5844 1291.65 94.788C1290.73 96.9403 1289.85 99.0157 1289.03 101.014C1288.27 103.013 1287.63 104.832 1287.11 106.472C1286.6 108.061 1286.34 109.239 1286.34 110.008C1286.34 110.213 1286.45 110.315 1286.65 110.315C1287.06 110.315 1287.96 109.777 1289.34 108.701C1290.73 107.574 1292.42 105.831 1294.42 103.474C1296.47 101.117 1298.77 98.0933 1301.33 94.4037C1303.9 90.6627 1306.56 86.1788 1309.33 80.9518L1311.48 74.8792C1311.63 74.4692 1311.97 74.2642 1312.48 74.2642C1312.84 74.2642 1313.61 74.623 1314.79 75.3404C1316.02 76.0066 1317.3 76.8009 1318.63 77.7233C1320.01 78.5945 1321.24 79.4913 1322.32 80.4137C1323.39 81.2848 1323.98 81.8998 1324.09 82.2585C1324.09 82.4122 1324.06 82.6941 1324.01 83.1041C1323.96 83.4628 1323.88 83.7702 1323.78 84.0265C1323.27 85.4101 1322.68 87.05 1322.01 88.946C1321.34 90.7909 1320.65 92.7382 1319.94 94.788C1319.27 96.7866 1318.6 98.8108 1317.94 100.861C1317.27 102.91 1316.66 104.832 1316.09 106.626C1315.58 108.368 1315.14 109.931 1314.79 111.315C1314.48 112.647 1314.32 113.621 1314.32 114.236ZM1372.21 89.1766C1371.54 91.1752 1370.69 93.4556 1369.67 96.0179C1368.7 98.5802 1367.75 101.091 1366.83 103.551C1365.9 106.011 1365.11 108.24 1364.44 110.238C1363.83 112.237 1363.52 113.672 1363.52 114.543C1363.52 114.851 1363.67 115.004 1363.98 115.004C1364.54 115.004 1365.39 114.671 1366.52 114.005C1367.65 113.339 1368.93 112.468 1370.36 111.391C1371.85 110.315 1373.38 109.137 1374.97 107.856C1376.56 106.574 1378.07 105.319 1379.51 104.089C1380.99 102.808 1382.33 101.655 1383.51 100.63C1384.68 99.6051 1385.58 98.8364 1386.2 98.3239C1386.66 98.7851 1387.2 99.3745 1387.81 100.092C1388.48 100.809 1389.09 101.476 1389.66 102.09C1388.53 103.218 1387.12 104.601 1385.43 106.241C1383.74 107.83 1381.89 109.47 1379.89 111.161C1377.95 112.852 1375.9 114.543 1373.74 116.234C1371.64 117.925 1369.57 119.437 1367.52 120.769C1365.52 122.102 1363.65 123.178 1361.91 123.998C1360.16 124.818 1358.7 125.228 1357.52 125.228C1356.76 125.228 1355.78 124.946 1354.6 124.382C1353.42 123.87 1352.3 123.204 1351.22 122.384C1350.14 121.615 1349.22 120.744 1348.45 119.77C1347.69 118.796 1347.3 117.848 1347.3 116.926C1348.07 113.493 1348.84 110.495 1349.61 107.932C1350.38 105.37 1351.09 103.192 1351.76 101.399C1352.43 99.5538 1353.01 98.0677 1353.53 96.9403C1354.04 95.8129 1354.42 94.9674 1354.68 94.4037C1354.07 94.1474 1353.48 93.8656 1352.91 93.5581C1352.35 93.2506 1351.78 92.9432 1351.22 92.6357C1350.4 93.5069 1349.48 94.4293 1348.45 95.4029C1347.48 96.3766 1346.48 97.3503 1345.46 98.3239C1344.43 99.2976 1343.41 100.246 1342.38 101.168C1341.36 102.09 1340.43 102.936 1339.61 103.705L1335.92 99.9382C1337.26 98.657 1338.87 97.1197 1340.77 95.3261C1342.61 93.4812 1344.43 91.6364 1346.22 89.7916C1344.94 89.0229 1343.79 88.3055 1342.77 87.6393C1341.74 86.9218 1340.87 86.2813 1340.15 85.7176C1339.28 85.1026 1338.51 84.5389 1337.85 84.0265C1337.54 83.8727 1337.38 83.5396 1337.38 83.0272C1337.38 82.4635 1337.62 81.6692 1338.08 80.6443C1338.49 79.5681 1339.02 78.4407 1339.69 77.2621C1340.36 76.0322 1341.07 74.8023 1341.84 73.5724C1342.61 72.2913 1343.35 71.1383 1344.07 70.1134C1344.79 69.0885 1345.4 68.2685 1345.92 67.6536C1346.48 66.9874 1346.84 66.6543 1346.99 66.6543C1347.1 66.6543 1347.43 66.7824 1347.99 67.0386C1348.61 67.2949 1349.25 67.6023 1349.91 67.9611C1350.58 68.2685 1351.2 68.6272 1351.76 69.0372C1352.32 69.4472 1352.68 69.8059 1352.84 70.1134C1352.89 70.3696 1352.94 70.9077 1352.99 71.7276C1353.04 72.5475 1353.09 73.5468 1353.14 74.7254C1355.14 75.7504 1357.19 76.929 1359.29 78.2614C1361.39 79.5425 1363.31 80.7724 1365.06 81.951C1367.11 83.2834 1369.05 84.6414 1370.9 86.025C1371.57 86.435 1371.98 86.9475 1372.13 87.5624C1372.33 88.1773 1372.36 88.7154 1372.21 89.1766ZM502.675 241.92C503.033 242.535 503.418 243.15 503.828 243.765C504.238 244.328 504.622 245.148 504.981 246.225C505.339 247.301 505.647 248.736 505.903 250.529C506.159 252.323 506.288 254.731 506.288 257.755C506.288 264.109 505.544 270.412 504.058 276.664C502.572 282.916 500.548 288.989 497.986 294.882C495.424 300.775 492.4 306.438 488.915 311.87C485.431 317.251 481.664 322.298 477.616 327.013C473.619 331.676 469.442 335.93 465.086 339.773C460.73 343.565 456.375 346.819 452.019 349.535C447.714 352.251 443.512 354.352 439.412 355.838C435.313 357.325 431.521 358.068 428.036 358.068C426.652 358.068 425.217 357.734 423.731 357.068C422.296 356.402 420.862 355.531 419.427 354.455C418.043 353.379 416.711 352.2 415.43 350.919C414.2 349.638 413.072 348.357 412.047 347.075C411.074 345.846 410.254 344.718 409.588 343.693C408.921 342.668 408.46 341.9 408.204 341.387C407.948 340.875 407.64 340.26 407.282 339.542C406.923 338.825 406.59 337.928 406.282 336.852C405.975 335.725 405.719 334.367 405.514 332.778C405.309 331.138 405.206 329.165 405.206 326.859C405.206 323.323 405.565 319.48 406.282 315.329C406.948 311.127 408.178 306.617 409.972 301.8C411.765 296.983 414.2 291.859 417.274 286.427C420.4 280.943 424.372 275.178 429.189 269.131C429.599 269.592 430.214 270.284 431.034 271.207C431.854 272.078 432.75 273.077 433.724 274.205C434.698 275.332 435.723 276.536 436.799 277.817C437.875 279.047 438.874 280.226 439.797 281.353C440.77 282.481 441.59 283.506 442.256 284.428C442.923 285.299 443.384 285.965 443.64 286.427C441.18 289.245 438.849 292.294 436.645 295.574C434.442 298.854 432.392 302.185 430.496 305.567C428.651 308.898 426.96 312.203 425.422 315.483C423.885 318.762 422.578 321.811 421.502 324.63C420.426 327.448 419.58 329.959 418.965 332.163C418.402 334.367 418.12 336.083 418.12 337.313C418.12 338.133 418.274 338.927 418.581 339.696C418.889 340.414 419.273 341.054 419.734 341.618C420.195 342.182 420.682 342.643 421.195 343.001C421.707 343.309 422.168 343.463 422.578 343.463C425.243 343.463 428.292 342.694 431.726 341.157C435.159 339.619 438.746 337.467 442.487 334.7C446.279 331.932 450.148 328.601 454.094 324.707C458.04 320.812 461.858 316.508 465.547 311.793C469.237 307.078 472.696 302.031 475.925 296.65C479.204 291.218 482.074 285.581 484.534 279.739C486.994 273.897 488.915 267.927 490.299 261.829C491.734 255.679 492.451 249.556 492.451 243.457C492.451 241.612 492.246 240.075 491.836 238.845C491.426 237.564 490.888 236.539 490.222 235.771C489.556 234.951 488.787 234.387 487.916 234.079C487.096 233.721 486.251 233.541 485.379 233.541C481.434 233.541 477.898 234.31 474.772 235.847C471.697 237.334 469.032 239.23 466.777 241.536C464.523 243.842 462.703 246.378 461.32 249.146C459.936 251.913 458.988 254.578 458.476 257.14C457.707 261.444 457.579 265.313 458.091 268.747C458.604 272.129 459.321 275.076 460.244 277.587C461.217 280.098 462.165 282.148 463.088 283.736C464.061 285.274 464.599 286.375 464.702 287.042C463.472 286.888 462.012 286.76 460.32 286.657C458.629 286.503 456.861 286.35 455.017 286.196C453.172 286.042 451.353 285.888 449.559 285.735C447.765 285.53 446.151 285.299 444.716 285.043C444.101 284.325 443.435 283.301 442.718 281.968C442 280.636 441.334 279.098 440.719 277.356C440.155 275.614 439.669 273.718 439.259 271.668C438.849 269.618 438.644 267.517 438.644 265.365C438.644 261.265 439.284 257.422 440.565 253.835C441.898 250.196 443.666 246.891 445.869 243.919C448.073 240.895 450.584 238.23 453.402 235.924C456.221 233.567 459.142 231.594 462.165 230.005C465.189 228.366 468.187 227.136 471.159 226.316C474.131 225.445 476.873 225.009 479.384 225.009C481.024 225.009 482.663 225.342 484.303 226.008C485.994 226.623 487.634 227.469 489.223 228.545C490.811 229.57 492.323 230.723 493.758 232.004C495.244 233.234 496.577 234.489 497.755 235.771C498.934 237 499.933 238.179 500.753 239.306C501.624 240.383 502.265 241.254 502.675 241.92ZM523.506 307.873C522.891 309.513 522.276 311.178 521.661 312.869C521.046 314.56 520.431 316.303 519.816 318.096C523.045 314.407 525.812 311.409 528.118 309.103C530.475 306.745 532.448 304.901 534.037 303.568C535.677 302.236 536.983 301.339 537.957 300.878C538.982 300.365 539.776 300.109 540.34 300.109C541.006 300.109 542.006 300.442 543.338 301.108C544.67 301.775 546.003 302.594 547.335 303.568C548.719 304.542 549.897 305.541 550.871 306.566C551.896 307.591 552.408 308.488 552.408 309.256C552.408 309.41 552.383 309.615 552.331 309.871C552.28 310.076 552.203 310.358 552.101 310.717C551.691 311.998 551.153 313.51 550.487 315.252C549.872 316.994 549.206 318.814 548.488 320.71C547.771 322.555 547.053 324.425 546.336 326.321C545.618 328.166 544.978 329.908 544.414 331.548C543.85 333.188 543.389 334.623 543.03 335.853C542.672 337.083 542.492 337.979 542.492 338.543C542.492 338.851 542.646 339.004 542.954 339.004C543.517 339.004 544.363 338.671 545.49 338.005C546.618 337.339 547.899 336.468 549.334 335.391C550.82 334.315 552.357 333.137 553.946 331.856C555.534 330.574 557.046 329.319 558.481 328.089C559.967 326.808 561.299 325.655 562.478 324.63C563.657 323.605 564.553 322.836 565.168 322.324C565.681 322.785 566.245 323.374 566.86 324.092C567.474 324.809 568.064 325.476 568.628 326.09C567.5 327.218 566.091 328.601 564.4 330.241C562.709 331.83 560.864 333.47 558.865 335.161C556.918 336.852 554.868 338.543 552.716 340.234C550.615 341.925 548.565 343.437 546.566 344.769C544.568 346.102 542.697 347.178 540.955 347.998C539.213 348.818 537.752 349.228 536.574 349.228C535.805 349.228 534.831 348.946 533.653 348.382C532.474 347.87 531.321 347.204 530.193 346.384C529.117 345.615 528.195 344.744 527.426 343.77C526.658 342.796 526.273 341.848 526.273 340.926C526.734 338.825 527.349 336.442 528.118 333.777C528.938 331.113 529.809 328.397 530.732 325.629C531.654 322.811 532.602 320.044 533.576 317.328C534.601 314.56 535.574 312.024 536.497 309.718L536.343 309.871C535.369 311.05 533.96 312.613 532.115 314.56C530.322 316.456 528.272 318.916 525.966 321.94C523.66 324.912 521.226 328.525 518.663 332.778C516.101 336.98 513.59 341.977 511.13 347.767C510.823 348.485 510.541 349.048 510.285 349.458C510.028 349.868 509.542 350.073 508.824 350.073C507.953 350.073 506.954 349.817 505.826 349.305C504.75 348.843 503.648 348.203 502.521 347.383C501.342 346.614 500.189 345.743 499.062 344.769C497.883 343.796 496.833 342.822 495.91 341.848C495.91 341.541 496.064 340.67 496.372 339.235C496.628 337.8 497.012 336.006 497.525 333.854C498.037 331.651 498.678 329.165 499.446 326.398C500.215 323.579 501.086 320.633 502.06 317.558C503.033 314.483 504.11 311.357 505.288 308.18C506.416 304.952 507.646 301.851 508.978 298.879C511.13 299.904 513.513 301.16 516.127 302.646C518.791 304.132 521.251 305.874 523.506 307.873ZM581.311 339.619C582.131 339.619 583.232 339.261 584.616 338.543C586.051 337.826 587.614 336.929 589.305 335.853C590.996 334.725 592.764 333.495 594.609 332.163C596.454 330.831 598.17 329.524 599.759 328.243C601.399 326.962 602.859 325.783 604.141 324.707C605.422 323.631 606.37 322.836 606.985 322.324C607.446 322.785 607.984 323.374 608.599 324.092C609.265 324.809 609.88 325.476 610.444 326.09C609.316 327.218 607.907 328.601 606.216 330.241C604.525 331.83 602.68 333.47 600.681 335.161C598.734 336.852 596.684 338.543 594.532 340.234C592.431 341.925 590.356 343.437 588.306 344.769C586.307 346.102 584.437 347.178 582.694 347.998C580.952 348.818 579.491 349.228 578.313 349.228C576.724 349.228 575.033 348.664 573.24 347.537C571.497 346.409 569.857 345.102 568.32 343.616C566.783 342.079 565.476 340.542 564.4 339.004C563.324 337.467 562.709 336.314 562.555 335.545C562.452 335.238 562.401 334.879 562.401 334.469C562.401 334.008 562.401 333.521 562.401 333.009C562.401 330.446 562.734 327.218 563.4 323.323C564.015 319.377 564.861 315.226 565.937 310.871C567.013 306.463 568.243 302.108 569.627 297.803C571.062 293.447 572.548 289.604 574.085 286.273C577.211 279.457 580.414 273.41 583.694 268.132C587.025 262.854 590.279 258.267 593.456 254.373C596.633 250.427 599.682 247.121 602.603 244.457C605.524 241.792 608.138 239.64 610.444 238C612.801 236.36 614.774 235.181 616.363 234.464C618.002 233.746 619.13 233.388 619.745 233.388C620.718 233.746 621.692 234.284 622.666 235.002C623.691 235.668 624.639 236.385 625.51 237.154C626.381 237.923 627.15 238.692 627.816 239.46C628.482 240.178 628.969 240.716 629.276 241.074C629.686 241.484 629.943 241.894 630.045 242.304C630.199 242.663 630.276 243.15 630.276 243.765C630.276 244.995 629.968 246.686 629.353 248.838C628.738 250.99 627.585 253.732 625.894 257.063C624.203 260.343 621.846 264.289 618.822 268.901C615.85 273.513 611.955 278.893 607.138 285.043C604.884 287.913 602.501 290.834 599.99 293.806C597.837 296.368 595.352 299.161 592.533 302.185C589.715 305.208 586.82 308.103 583.847 310.871C582.361 316.508 581.311 321.478 580.696 325.783C580.132 330.088 579.85 333.444 579.85 335.853C579.85 337.441 579.978 338.466 580.235 338.927C580.491 339.389 580.849 339.619 581.311 339.619ZM593.61 283.275C592.738 285.222 591.918 287.118 591.15 288.963C590.432 290.808 589.741 292.627 589.074 294.421C590.663 292.627 592.098 290.911 593.379 289.271C594.711 287.631 595.839 286.222 596.761 285.043C597.837 283.659 598.811 282.353 599.682 281.123C603.269 276.101 606.37 271.489 608.983 267.286C611.597 263.084 613.749 259.395 615.44 256.217C617.131 252.989 618.361 250.324 619.13 248.223C619.95 246.071 620.36 244.533 620.36 243.611C620.36 243.355 620.334 243.175 620.283 243.073C620.283 242.919 620.155 242.842 619.898 242.842C619.437 242.842 618.387 243.611 616.747 245.148C615.107 246.635 613.083 249.017 610.674 252.297C608.317 255.577 605.652 259.779 602.68 264.904C599.759 269.977 596.736 276.101 593.61 283.275ZM672.399 325.937C667.787 330.088 663.047 334.008 658.179 337.698C653.311 341.387 648.442 344.949 643.574 348.382C642.856 350.534 642.037 352.815 641.114 355.223C640.192 357.632 639.064 360.374 637.732 363.448C636.246 366.831 634.555 370.136 632.659 373.364C630.763 376.593 628.738 379.616 626.586 382.435C624.485 385.304 622.307 387.918 620.052 390.275C617.797 392.633 615.568 394.657 613.365 396.348C611.212 398.09 609.137 399.423 607.138 400.345C605.089 401.319 603.218 401.805 601.527 401.805C600.707 401.805 599.708 401.498 598.529 400.883C597.351 400.268 596.223 399.474 595.147 398.5C594.071 397.578 593.174 396.578 592.457 395.502C591.688 394.426 591.304 393.427 591.304 392.504C591.304 389.276 592.175 386.099 593.917 382.973C595.659 379.898 598.068 376.798 601.143 373.672C604.166 370.546 607.728 367.369 611.827 364.14C615.978 360.963 620.437 357.683 625.202 354.301C626.689 350.355 628.123 346.256 629.507 342.002C630.942 337.698 632.326 333.444 633.658 329.242C631.454 332.061 629.328 334.52 627.278 336.621C625.228 338.722 623.332 340.516 621.59 342.002C619.847 343.437 618.336 344.59 617.054 345.461C615.773 346.384 614.8 347.075 614.133 347.537C613.723 347.793 613.237 347.972 612.673 348.075C612.109 348.228 611.597 348.305 611.136 348.305C610.162 348.305 609.086 347.998 607.907 347.383C606.728 346.819 605.652 346.076 604.679 345.154C603.654 344.283 602.808 343.309 602.142 342.233C601.425 341.157 601.066 340.132 601.066 339.158C601.066 338.031 601.45 336.237 602.219 333.777C602.936 331.266 603.936 328.243 605.217 324.707C606.447 321.171 607.907 317.199 609.598 312.792C611.289 308.385 613.109 303.696 615.056 298.725C615.158 298.469 615.235 298.367 615.286 298.418C615.389 298.418 615.543 298.418 615.748 298.418C616.721 298.572 618.054 298.982 619.745 299.648C621.436 300.263 623.076 300.955 624.664 301.723C626.304 302.492 627.713 303.235 628.892 303.952C630.071 304.619 630.66 305.08 630.66 305.336C630.506 305.695 630.096 306.54 629.43 307.873C628.815 309.205 628.072 310.819 627.201 312.715C626.381 314.56 625.484 316.584 624.511 318.788C623.588 320.94 622.717 323.016 621.897 325.014C621.128 327.013 620.488 328.832 619.975 330.472C619.463 332.061 619.207 333.239 619.207 334.008C619.207 334.213 619.309 334.315 619.514 334.315C619.873 334.315 620.642 333.854 621.82 332.932C623.05 332.009 624.562 330.549 626.355 328.55C628.149 326.552 630.173 324.015 632.428 320.94C634.683 317.814 637.066 314.073 639.577 309.718C640.602 306.335 641.447 303.645 642.113 301.646C642.78 299.597 643.215 298.572 643.42 298.572C643.728 298.572 644.522 298.956 645.803 299.725C647.084 300.493 648.442 301.416 649.877 302.492C651.312 303.517 652.593 304.567 653.72 305.644C654.848 306.668 655.412 307.463 655.412 308.026C655.412 308.283 655.386 308.513 655.335 308.718C655.283 308.923 655.207 309.154 655.104 309.41C653.925 312.997 652.901 316.251 652.029 319.172C651.158 322.042 650.364 324.681 649.646 327.09C648.98 329.498 648.365 331.727 647.802 333.777C647.289 335.776 646.777 337.723 646.264 339.619C650.108 336.852 653.925 334.033 657.718 331.164C661.51 328.243 665.251 325.194 668.94 322.016L672.399 325.937ZM601.066 393.35C601.988 393.35 603.269 392.453 604.909 390.66C606.549 388.917 608.317 386.662 610.213 383.895C612.109 381.128 614.005 378.028 615.901 374.594C617.849 371.212 619.565 367.881 621.052 364.601C619.104 366.241 616.926 368.035 614.518 369.982C612.109 371.929 609.854 374.056 607.753 376.362C605.652 378.668 603.884 381.128 602.449 383.741C601.015 386.406 600.297 389.225 600.297 392.197C600.297 392.966 600.553 393.35 601.066 393.35ZM695.844 349.843C698.509 345.282 701.327 340.106 704.3 334.315C707.272 328.473 710.295 322.221 713.37 315.56C716.445 308.846 719.519 301.775 722.594 294.344C725.669 286.913 728.641 279.303 731.511 271.514C734.381 263.674 737.097 255.705 739.659 247.608C742.221 239.511 744.527 231.466 746.577 223.472C748.063 224.907 749.601 226.341 751.189 227.776C752.829 229.16 754.418 230.543 755.955 231.927C757.492 233.259 758.927 234.592 760.26 235.924C761.643 237.205 762.796 238.41 763.719 239.537C761.823 245.072 759.619 250.914 757.108 257.063C754.597 263.161 751.932 269.387 749.114 275.742C746.295 282.045 743.374 288.323 740.351 294.575C737.378 300.827 734.432 306.822 731.511 312.562C728.641 318.301 725.9 323.682 723.286 328.704C720.673 333.675 718.341 338.056 716.291 341.848C719.366 341.848 723.004 341.874 727.206 341.925C731.408 341.925 735.969 341.951 740.889 342.002C745.808 342.053 750.984 342.13 756.416 342.233C761.848 342.335 767.331 342.463 772.866 342.617C772.046 343.744 771.098 344.974 770.022 346.307C768.946 347.639 767.793 348.997 766.563 350.381C765.384 351.816 764.154 353.199 762.873 354.532C761.643 355.915 760.413 357.196 759.183 358.375C754.571 358.119 750.113 357.786 745.808 357.376C741.555 356.966 737.43 356.479 733.433 355.915C729.435 355.403 725.515 354.865 721.672 354.301C717.88 353.737 714.113 353.174 710.372 352.61C709.808 353.635 709.347 354.378 708.989 354.839C708.681 355.3 708.553 355.48 708.604 355.377L695.844 349.843ZM788.701 349.228C787.932 349.228 786.958 348.946 785.78 348.382C784.601 347.87 783.474 347.204 782.398 346.384C781.321 345.615 780.399 344.744 779.63 343.77C778.862 342.796 778.477 341.848 778.477 340.926C778.99 338.671 779.682 336.083 780.553 333.162C781.424 330.241 782.372 327.269 783.397 324.246C784.37 321.222 785.421 318.276 786.548 315.406C787.625 312.485 788.598 309.897 789.469 307.642C790.392 305.387 791.186 303.568 791.852 302.185C792.518 300.801 792.954 300.109 793.159 300.109C793.467 300.109 794.235 300.442 795.465 301.108C796.695 301.775 797.976 302.594 799.308 303.568C800.692 304.491 801.922 305.49 802.998 306.566C804.074 307.591 804.612 308.488 804.612 309.256C804.612 309.41 804.587 309.615 804.536 309.871C804.484 310.076 804.407 310.358 804.305 310.717C803.895 311.998 803.357 313.51 802.691 315.252C802.076 316.994 801.41 318.814 800.692 320.71C799.975 322.555 799.257 324.425 798.54 326.321C797.822 328.166 797.182 329.908 796.618 331.548C796.054 333.188 795.593 334.623 795.234 335.853C794.876 337.083 794.696 337.979 794.696 338.543C794.696 338.851 794.85 339.004 795.158 339.004C795.721 339.004 796.567 338.671 797.694 338.005C798.822 337.339 800.103 336.468 801.538 335.391C803.024 334.315 804.561 333.137 806.15 331.856C807.738 330.574 809.25 329.319 810.685 328.089C812.171 326.808 813.503 325.655 814.682 324.63C815.861 323.605 816.758 322.836 817.372 322.324C817.834 322.785 818.372 323.374 818.987 324.092C819.653 324.809 820.268 325.476 820.832 326.09C819.704 327.218 818.295 328.601 816.604 330.241C814.913 331.83 813.068 333.47 811.069 335.161C809.122 336.852 807.072 338.543 804.92 340.234C802.819 341.925 800.769 343.437 798.77 344.769C796.772 346.102 794.901 347.178 793.159 347.998C791.417 348.818 789.931 349.228 788.701 349.228ZM819.14 276.664C819.089 276.869 818.884 277.382 818.525 278.202C818.218 278.97 817.834 279.893 817.372 280.969C816.911 281.994 816.373 283.096 815.758 284.274C815.195 285.402 814.631 286.452 814.067 287.426C813.503 288.4 812.965 289.219 812.453 289.886C811.94 290.501 811.531 290.808 811.223 290.808C810.301 290.757 809.173 290.475 807.841 289.962C806.56 289.45 805.304 288.886 804.074 288.271C802.896 287.605 801.871 286.965 801 286.35C800.18 285.735 799.77 285.299 799.77 285.043C799.77 283.967 800.077 282.583 800.692 280.892C801.307 279.15 802.024 277.484 802.844 275.896C803.664 274.256 804.484 272.847 805.304 271.668C806.175 270.489 806.842 269.9 807.303 269.9C808.225 269.9 809.353 270.207 810.685 270.822C812.017 271.386 813.298 272.052 814.528 272.821C815.809 273.59 816.886 274.358 817.757 275.127C818.679 275.844 819.14 276.357 819.14 276.664ZM837.358 307.873C836.743 309.461 836.128 311.101 835.513 312.792C834.898 314.483 834.309 316.2 833.745 317.942C836.974 314.099 839.639 311.024 841.74 308.718C843.892 306.412 845.66 304.619 847.043 303.338C848.478 302.056 849.657 301.16 850.579 300.647C851.502 300.135 852.347 299.75 853.116 299.494C853.577 299.494 854.346 299.75 855.422 300.263C856.55 300.775 857.728 301.416 858.958 302.185C860.239 302.902 861.443 303.671 862.571 304.491C863.698 305.259 864.493 305.9 864.954 306.412C865.364 306.822 865.415 307.412 865.107 308.18C864.493 309.82 863.878 311.486 863.263 313.177C862.699 314.816 862.135 316.508 861.572 318.25C865.005 314.304 867.875 311.152 870.181 308.795C872.487 306.387 874.357 304.542 875.792 303.261C877.278 301.98 878.431 301.134 879.251 300.724C880.071 300.314 880.712 300.109 881.173 300.109C881.839 300.109 882.838 300.442 884.171 301.108C885.503 301.775 886.836 302.594 888.168 303.568C889.552 304.542 890.73 305.541 891.704 306.566C892.729 307.591 893.241 308.488 893.241 309.256C893.241 309.41 893.216 309.615 893.164 309.871C893.113 310.076 893.036 310.358 892.934 310.717C892.524 311.998 891.986 313.51 891.319 315.252C890.705 316.994 890.038 318.814 889.321 320.71C888.603 322.555 887.886 324.425 887.169 326.321C886.451 328.166 885.811 329.908 885.247 331.548C884.683 333.188 884.222 334.623 883.863 335.853C883.505 337.083 883.325 337.979 883.325 338.543C883.325 338.851 883.479 339.004 883.786 339.004C884.35 339.004 885.196 338.671 886.323 338.005C887.45 337.339 888.732 336.468 890.166 335.391C891.653 334.315 893.19 333.137 894.779 331.856C896.367 330.574 897.879 329.319 899.314 328.089C900.8 326.808 902.132 325.655 903.311 324.63C904.49 323.605 905.386 322.836 906.001 322.324C906.462 322.785 907.001 323.374 907.616 324.092C908.282 324.809 908.897 325.476 909.46 326.09C908.333 327.218 906.924 328.601 905.233 330.241C903.542 331.83 901.697 333.47 899.698 335.161C897.751 336.852 895.701 338.543 893.549 340.234C891.448 341.925 889.398 343.437 887.399 344.769C885.401 346.102 883.53 347.178 881.788 347.998C880.046 348.818 878.559 349.228 877.33 349.228C876.561 349.228 875.587 348.946 874.409 348.382C873.23 347.87 872.102 347.204 871.026 346.384C869.95 345.615 869.028 344.744 868.259 343.77C867.49 342.796 867.106 341.848 867.106 340.926C867.567 338.825 868.182 336.442 868.951 333.777C869.72 331.113 870.565 328.397 871.488 325.629C872.41 322.811 873.358 320.044 874.332 317.328C875.357 314.612 876.33 312.1 877.253 309.794C876.228 311.024 874.87 312.51 873.179 314.253C871.488 315.995 869.566 318.301 867.414 321.171C865.261 323.989 862.955 327.5 860.495 331.702C858.036 335.904 855.576 341.028 853.116 347.075C852.809 348.1 852.066 348.613 850.887 348.613C850.272 348.613 849.503 348.485 848.581 348.228C847.71 348.023 846.762 347.665 845.737 347.152C844.763 346.691 843.738 346.102 842.662 345.384C841.637 344.667 840.663 343.796 839.741 342.771C839.741 342.412 839.92 341.336 840.279 339.542C840.689 337.698 841.253 335.366 841.97 332.547C842.739 329.729 843.636 326.577 844.661 323.093C845.685 319.608 846.839 316.021 848.12 312.331C846.89 313.663 845.352 315.38 843.508 317.481C841.663 319.531 839.69 322.042 837.589 325.014C835.488 327.935 833.335 331.343 831.132 335.238C828.928 339.132 826.853 343.54 824.906 348.459C824.598 349.535 823.881 350.073 822.753 350.073C821.882 350.073 820.908 349.817 819.832 349.305C818.705 348.843 817.577 348.203 816.45 347.383C815.271 346.614 814.118 345.743 812.991 344.769C811.812 343.796 810.762 342.822 809.839 341.848C809.839 341.541 809.993 340.67 810.301 339.235C810.557 337.8 810.941 336.006 811.454 333.854C811.966 331.651 812.607 329.165 813.375 326.398C814.093 323.579 814.938 320.633 815.912 317.558C816.886 314.483 817.962 311.357 819.14 308.18C820.319 304.952 821.575 301.851 822.907 298.879C825.059 299.904 827.442 301.16 830.056 302.646C832.72 304.132 835.155 305.874 837.358 307.873ZM910.921 349.228C910.152 349.228 909.179 348.946 908 348.382C906.821 347.87 905.694 347.204 904.618 346.384C903.542 345.615 902.619 344.744 901.85 343.77C901.082 342.796 900.697 341.848 900.697 340.926C901.21 338.671 901.902 336.083 902.773 333.162C903.644 330.241 904.592 327.269 905.617 324.246C906.591 321.222 907.641 318.276 908.769 315.406C909.845 312.485 910.818 309.897 911.69 307.642C912.612 305.387 913.406 303.568 914.072 302.185C914.739 300.801 915.174 300.109 915.379 300.109C915.687 300.109 916.455 300.442 917.685 301.108C918.915 301.775 920.196 302.594 921.529 303.568C922.912 304.491 924.142 305.49 925.218 306.566C926.294 307.591 926.833 308.488 926.833 309.256C926.833 309.41 926.807 309.615 926.756 309.871C926.704 310.076 926.628 310.358 926.525 310.717C926.115 311.998 925.577 313.51 924.911 315.252C924.296 316.994 923.63 318.814 922.912 320.71C922.195 322.555 921.477 324.425 920.76 326.321C920.043 328.166 919.402 329.908 918.838 331.548C918.275 333.188 917.813 334.623 917.455 335.853C917.096 337.083 916.917 337.979 916.917 338.543C916.917 338.851 917.07 339.004 917.378 339.004C917.941 339.004 918.787 338.671 919.914 338.005C921.042 337.339 922.323 336.468 923.758 335.391C925.244 334.315 926.781 333.137 928.37 331.856C929.959 330.574 931.47 329.319 932.905 328.089C934.391 326.808 935.724 325.655 936.902 324.63C938.081 323.605 938.978 322.836 939.593 322.324C940.054 322.785 940.592 323.374 941.207 324.092C941.873 324.809 942.488 325.476 943.052 326.09C941.924 327.218 940.515 328.601 938.824 330.241C937.133 331.83 935.288 333.47 933.289 335.161C931.342 336.852 929.292 338.543 927.14 340.234C925.039 341.925 922.989 343.437 920.991 344.769C918.992 346.102 917.122 347.178 915.379 347.998C913.637 348.818 912.151 349.228 910.921 349.228ZM941.361 276.664C941.309 276.869 941.104 277.382 940.746 278.202C940.438 278.97 940.054 279.893 939.593 280.969C939.131 281.994 938.593 283.096 937.978 284.274C937.415 285.402 936.851 286.452 936.287 287.426C935.724 288.4 935.186 289.219 934.673 289.886C934.161 290.501 933.751 290.808 933.443 290.808C932.521 290.757 931.393 290.475 930.061 289.962C928.78 289.45 927.524 288.886 926.294 288.271C925.116 287.605 924.091 286.965 923.22 286.35C922.4 285.735 921.99 285.299 921.99 285.043C921.99 283.967 922.297 282.583 922.912 280.892C923.527 279.15 924.245 277.484 925.065 275.896C925.885 274.256 926.704 272.847 927.524 271.668C928.396 270.489 929.062 269.9 929.523 269.9C930.445 269.9 931.573 270.207 932.905 270.822C934.237 271.386 935.519 272.052 936.749 272.821C938.03 273.59 939.106 274.358 939.977 275.127C940.899 275.844 941.361 276.357 941.361 276.664ZM946.357 349.228C945.486 349.228 944.333 348.818 942.898 347.998C941.514 347.229 940.156 346.256 938.824 345.077C937.492 343.949 936.339 342.771 935.365 341.541C934.391 340.311 933.904 339.261 933.904 338.389C933.904 336.852 934.34 334.418 935.211 331.087C936.031 327.756 937.133 323.964 938.516 319.71C939.9 315.406 941.463 310.819 943.205 305.951C944.999 301.083 946.793 296.317 948.586 291.654H937.748H937.671C937.62 291.654 937.594 291.602 937.594 291.5C937.594 291.192 937.722 290.757 937.978 290.193C938.183 289.578 938.465 288.963 938.824 288.348C939.131 287.682 939.516 287.093 939.977 286.58C940.387 286.017 940.797 285.658 941.207 285.504L951.2 285.043C952.635 281.558 953.993 278.355 955.274 275.434C956.606 272.462 957.785 269.926 958.81 267.824C959.066 267.261 959.322 266.671 959.578 266.057C959.886 265.39 960.296 264.75 960.808 264.135C961.372 263.469 962.089 262.802 962.961 262.136C963.883 261.419 965.113 260.701 966.65 259.984C967.778 259.42 969.136 258.805 970.724 258.139C972.364 257.473 973.953 256.858 975.49 256.294C977.079 255.731 978.513 255.269 979.795 254.911C981.076 254.501 981.998 254.296 982.562 254.296C983.074 254.296 983.331 254.398 983.331 254.603V254.757C983.331 254.808 983.279 254.936 983.177 255.141C982.869 255.654 982.306 256.781 981.486 258.523C980.666 260.215 979.641 262.367 978.411 264.98C977.232 267.543 975.9 270.489 974.414 273.82C972.979 277.1 971.493 280.585 969.956 284.274L988.404 283.582C988.916 283.582 989.07 283.89 988.865 284.505C988.66 285.12 988.276 285.837 987.712 286.657C987.148 287.477 986.482 288.323 985.713 289.194C984.996 290.065 984.381 290.731 983.869 291.192C983.766 291.295 983.561 291.397 983.254 291.5C982.946 291.602 982.562 291.654 982.101 291.654H966.881C965.036 296.112 963.268 300.622 961.577 305.182C959.886 309.743 958.374 314.073 957.042 318.173C955.709 322.273 954.633 326.039 953.813 329.473C953.045 332.906 952.66 335.725 952.66 337.928C952.66 338.236 952.814 338.389 953.121 338.389C953.685 338.389 954.531 338.082 955.658 337.467C956.785 336.801 958.041 335.955 959.425 334.93C960.859 333.905 962.371 332.778 963.96 331.548C965.548 330.318 967.06 329.114 968.495 327.935C969.93 326.705 971.211 325.604 972.338 324.63C973.517 323.605 974.414 322.836 975.029 322.324C975.49 322.785 976.028 323.374 976.643 324.092C977.309 324.809 977.924 325.476 978.488 326.09C977.36 327.218 975.951 328.601 974.26 330.241C972.569 331.83 970.724 333.47 968.726 335.161C966.778 336.852 964.728 338.543 962.576 340.234C960.475 341.925 958.4 343.437 956.35 344.769C954.351 346.102 952.481 347.178 950.739 347.998C948.996 348.818 947.536 349.228 946.357 349.228Z" fill="white"/>
</svg>
